<svg width="224" height="224" viewBox="0 0 224 224" fill="none" xmlns="http://www.w3.org/2000/svg">
<g clip-path="url(#clip0_616_15370)">
<path fill-rule="evenodd" clip-rule="evenodd" d="M99.2461 80.2578L25.2769 105.462V197.549L98.4089 172.345L99.2461 80.2578Z" fill="#F1EFEF"/>
<path fill-rule="evenodd" clip-rule="evenodd" d="M98.9453 80.2578L197.04 102.95V195.037L98.9453 172.345V80.2578Z" fill="#E2DEDE"/>
<path fill-rule="evenodd" clip-rule="evenodd" d="M25.2773 105.371L123.372 128.063V224.336L25.2773 197.458V105.371Z" fill="#F1EFEF"/>
<path opacity="0.2" fill-rule="evenodd" clip-rule="evenodd" d="M50.1281 184.003L40.7812 181.482V178.7L47.5496 161.456L52.5223 159.643L45.4777 179.495L50.1281 180.282V172.414L54.8245 172.211V181.077L57.0806 181.458V185.878L54.8245 185.269V189.899L50.1281 188.111V184.003Z" fill="url(#paint0_linear_616_15370)"/>
<path opacity="0.2" fill-rule="evenodd" clip-rule="evenodd" d="M96.171 196.75L86.8242 194.484V191.537L93.5926 173.661L98.5653 172.031L91.5207 192.251L96.171 192.958V184.941L100.867 184.758V193.673L103.124 194.016V198.435L100.867 197.888V202.543L96.171 200.936V196.75Z" fill="url(#paint1_linear_616_15370)"/>
<path opacity="0.2" fill-rule="evenodd" clip-rule="evenodd" d="M65.8871 172.117C65.945 171.122 66.1879 170.229 66.6161 169.436C67.0443 168.638 67.5963 167.94 68.2721 167.342C68.948 166.738 69.7158 166.258 70.5757 165.903C71.4355 165.545 72.3252 165.333 73.2448 165.272C74.1644 165.21 75.0373 165.308 75.8634 165.567C76.6895 165.831 77.4084 166.247 78.02 166.818C78.6315 167.394 79.1064 168.102 79.4446 168.943C79.7828 169.788 79.923 170.763 79.8652 171.866L78.8579 190.927C78.8001 192.013 78.5571 192.952 78.1289 193.74C77.7008 194.524 77.1488 195.163 76.4729 195.658C75.797 196.148 75.0292 196.477 74.1694 196.646C73.3095 196.812 72.4198 196.818 71.5002 196.666C70.5806 196.515 69.7077 196.223 68.8816 195.792C68.0555 195.366 67.3367 194.828 66.7251 194.179C66.1135 193.536 65.6386 192.807 65.3004 191.991C64.9622 191.179 64.822 190.286 64.8799 189.307L65.8871 172.117ZM69.5708 189.835C69.5354 190.455 69.7207 190.996 70.1265 191.459C70.5324 191.925 71.0725 192.203 71.7469 192.292C72.4213 192.382 72.9847 192.246 73.4371 191.881C73.8896 191.515 74.1335 191.01 74.1688 190.368L75.1761 171.934C75.2114 171.283 75.0262 170.747 74.6203 170.33C74.2144 169.916 73.6743 169.721 73 169.744C72.3256 169.767 71.7622 169.996 71.3097 170.428C70.8573 170.858 70.6134 171.387 70.578 172.017L69.5708 189.835Z" fill="url(#paint2_linear_616_15370)"/>
<path fill-rule="evenodd" clip-rule="evenodd" d="M198.031 102.861L123.225 128.065V224.338L197.194 194.948L198.031 102.861Z" fill="#E2DEDE"/>
<path fill-rule="evenodd" clip-rule="evenodd" d="M197.722 102.793L223.875 139.252L148.171 169.135L123.026 127.422L197.722 102.793Z" fill="#C9C9C9"/>
<path fill-rule="evenodd" clip-rule="evenodd" d="M25.6778 104.535L1 142.618L96.3822 168.159L124.062 127.228L25.6778 104.535Z" fill="#C9C9C9"/>
<path d="M76 23.611C74.9952 23.376 73.9942 23.172 73 23" stroke="#9D9D9D"/>
<path d="M66.134 23.0476C34.038 21.8581 8.99919 43.1745 9 63.9415C9 84.8373 27.0704 109.856 55.556 104.184C84.0416 98.5121 86.2464 80.1654 112.527 80.1654C128.624 80.1654 148.513 90.6088 158 96.1956" stroke="#D7DAE9" stroke-dasharray="8.08 8.08"/>
<path fill-rule="evenodd" clip-rule="evenodd" d="M76 31C73.7122 30.4677 71.5 28 70.9248 27.576L66 27.3657L70.2311 24.6592C70.3066 22.676 71.2194 20.662 73 19C73.0139 21.0199 73.4354 23.0973 73.9257 25.1831C74.4159 27.2689 75.1213 29.2187 76 31Z" fill="#282526"/>
<path fill-rule="evenodd" clip-rule="evenodd" d="M71.573 27L71.384 26.9887C71.231 26.6702 71.106 26.3371 71 26C71.14 26.3468 71.338 26.6815 71.573 27" fill="#282526"/>
<path fill-rule="evenodd" clip-rule="evenodd" d="M79.5 30.997C78.5 31 77 31 76 30.997C75.1173 29.2439 74.2393 27.0184 73.7473 24.9646C73.2561 22.91 73.0132 20.9889 73 19C73.7589 18.3042 75.0059 17.548 76 17C75.9095 19.3561 76.4121 22.0478 77 24.5C77.5872 26.9522 78.3613 28.9736 79.5 30.997Z" fill="#F5D30D"/>
<path fill-rule="evenodd" clip-rule="evenodd" d="M83.0001 30.5C81.8497 30.7413 80.5765 30.9733 79.4903 31C78.2623 29.0057 77.4357 26.7725 76.8025 24.3555C76.1685 21.9385 75.9025 19.3223 76.0001 17C76.9678 16.519 78.0447 16.3206 79.1743 16C79.0166 18.4534 79.2577 21.017 79.9309 23.583C80.6033 26.149 82.0001 28.5 83.0001 30.5Z" fill="#282526"/>
<path fill-rule="evenodd" clip-rule="evenodd" d="M86.5 29C86.5 29 86 29.5 85 30C84 30.5 83.5 30.5 83 30.5C81.7668 28.4514 80.3511 25.6255 79.736 23.1014C79.1194 20.5772 78.8986 18.0554 79.0422 15.642C79.2111 15.5886 79.3815 15.5432 79.5595 15.4962C80.6033 15.2198 82.5036 15.051 83.5 15C83.3494 17.5 83.4109 19.5842 84 22C84.5891 24.4166 85.3447 27.0135 86.5 29Z" fill="#F5D30D"/>
<path fill-rule="evenodd" clip-rule="evenodd" d="M89 27C88.2224 27.6714 87.5031 28.4999 86.5 29C85.368 26.985 84.2983 24.7277 83.7207 22.2765C83.1424 19.826 82.9221 17.3853 83.024 15.031C84.1268 14.9542 85.1861 15.0221 86.166 15.212C86.1645 17.2374 86.4004 19.3154 86.8934 21.4063C87.3863 23.4964 88.1003 25.221 89 27Z" fill="#282526"/>
<path fill-rule="evenodd" clip-rule="evenodd" d="M89 27C88.108 25.2218 87.2109 23.2774 86.7218 21.1893C86.2327 19.1004 85.9985 17.0243 86 15C88.9934 15.5642 91.2755 17.2826 91.8582 19.7703C92.4403 22.258 91.3809 24.9514 89 27Z" fill="#282526"/>
<path fill-rule="evenodd" clip-rule="evenodd" d="M84.6992 17.9516C82.1028 18.4624 79.2373 14.8688 78.2992 9.9253C77.3603 4.98098 78.7047 0.559265 81.3003 0.0484906C83.8968 -0.463073 86.7622 3.13129 87.7011 8.07483C88.6392 13.0184 87.2956 17.4409 84.6992 17.9516" fill="#98B4DD"/>
<path fill-rule="evenodd" clip-rule="evenodd" d="M87.174 18.0475C85.2863 20.0662 80.7676 18.7712 77.0819 15.1552C73.3961 11.5392 71.9382 6.97159 73.8259 4.95212C75.7143 2.9343 80.2322 4.22843 83.9188 7.84445C87.6045 11.4605 89.0616 16.0289 87.174 18.0475" fill="#B9C7E5"/>
<path fill-rule="evenodd" clip-rule="evenodd" d="M92.4874 17C91.5943 15.8272 90.2642 14.9372 88.6492 14.5718C88.4303 14.5216 88.2172 14.4814 88 14.4559C89.5724 13.2299 91.728 12.6922 93.871 13.1773C95.6715 13.5853 97.1135 14.6359 98 15.998C96.004 15.546 94.008 15.9686 92.4874 17Z" fill="#1A1E1D"/>
<path fill-rule="evenodd" clip-rule="evenodd" d="M98.8114 20.2411C98.0089 23.3884 94.8609 25.3844 91.5853 24.9377C91.3723 24.9118 91.1635 24.8709 90.9481 24.8205L90.9326 24.8166C87.4587 23.9908 85.3352 20.617 86.1886 17.2716C86.5276 15.9425 87.2851 14.825 88.2875 14C88.5004 14.026 88.7092 14.0668 88.9238 14.1172C90.5067 14.4899 91.8105 15.3959 92.6867 16.5897C94.1763 15.539 96.1327 15.1089 98.0736 15.5658L98.0891 15.5697C98.9244 16.924 99.2348 18.5841 98.8114 20.2411" fill="#F5D30D"/>
<path fill-rule="evenodd" clip-rule="evenodd" d="M93.8398 13.4019C94.1042 11.8505 96.2903 10.1278 97.9451 10L97.9993 10.6206C96.6244 10.7267 94.7051 12.2894 94.4993 13.5L93.8398 13.4019Z" fill="#1A1E1D"/>
<path fill-rule="evenodd" clip-rule="evenodd" d="M98.9512 11.3072C98.781 11.8325 98.218 12.1213 97.6928 11.9512C97.1675 11.7819 96.8787 11.218 97.0488 10.6928C97.2181 10.1675 97.782 9.87866 98.3072 10.0488C98.8325 10.2181 99.1213 10.782 98.9512 11.3072" fill="#1A1E1D"/>
<path fill-rule="evenodd" clip-rule="evenodd" d="M93 13.5C93.7236 12.2553 92.6163 9.89372 91.4139 9L91 9.4194C92.0004 10.1626 93 12 92.4325 13.2511L93 13.5Z" fill="#1A1E1D"/>
<path fill-rule="evenodd" clip-rule="evenodd" d="M90.0488 8.69276C89.8787 9.21801 90.1675 9.7819 90.6918 9.95116C91.218 10.1213 91.7819 9.83249 91.9512 9.30724C92.1213 8.78199 91.8325 8.2181 91.3072 8.04884C90.782 7.87866 90.2181 8.16751 90.0488 8.69276" fill="#1A1E1D"/>
<path fill-rule="evenodd" clip-rule="evenodd" d="M90.9422 18.4758C90.6798 19.5482 89.5965 20.2047 88.5242 19.9422C87.4518 19.679 86.7953 18.5972 87.0578 17.5242C87.3217 16.4518 88.4035 15.7953 89.4758 16.0578C90.5482 16.321 91.2047 17.4035 90.9422 18.4758" fill="#1A1E1D"/>
<path fill-rule="evenodd" clip-rule="evenodd" d="M91.9419 18.4762C91.6794 19.5481 90.5971 20.2047 89.5242 19.9422C88.4514 19.6798 87.7948 18.5975 88.0581 17.5247C88.3206 16.4519 89.4029 15.7953 90.4758 16.0578C91.5486 16.3211 92.2052 17.4033 91.9419 18.4762" fill="#FEFEFE"/>
<path fill-rule="evenodd" clip-rule="evenodd" d="M89.0291 17.7619C88.8973 18.2985 89.2253 18.8401 89.7629 18.9709C90.2984 19.1028 90.839 18.7737 90.9709 18.2382C91.1027 17.7016 90.7747 17.1599 90.2381 17.0291C89.7016 16.8973 89.161 17.2254 89.0291 17.7619" fill="#1A1E1D"/>
<path fill-rule="evenodd" clip-rule="evenodd" d="M90.014 17.3731C89.95 17.6351 90.111 17.9001 90.373 17.9641C90.635 18.0291 90.9 17.8681 90.964 17.6051C91.029 17.3431 90.868 17.0791 90.606 17.0141C90.343 16.9501 90.078 17.1101 90.014 17.3731" fill="#FEFEFE"/>
<path fill-rule="evenodd" clip-rule="evenodd" d="M92.0578 18.5243C91.7953 19.5968 92.4512 20.6795 93.5245 20.9419C94.5962 21.2051 95.679 20.5486 95.9422 19.4761C96.2047 18.4029 95.5488 17.321 94.4755 17.0578C93.4038 16.7953 92.3203 17.4519 92.0578 18.5243" fill="#1A1E1D"/>
<path fill-rule="evenodd" clip-rule="evenodd" d="M93.0435 19.143C92.8461 19.9476 93.3391 20.7592 94.1436 20.9567C94.9475 21.1535 95.759 20.6611 95.9565 19.8566C96.1539 19.052 95.6609 18.2404 94.8571 18.0436C94.0525 17.8461 93.241 18.3385 93.0435 19.143" fill="#FEFEFE"/>
<path fill-rule="evenodd" clip-rule="evenodd" d="M94.9713 19.2381C94.8394 19.7747 94.2989 20.1027 93.7614 19.9709C93.226 19.8401 92.8979 19.2984 93.0287 18.7619C93.1606 18.2253 93.7021 17.8973 94.2376 18.0291C94.774 18.1599 95.1021 18.7016 94.9713 19.2381" fill="#1A1E1D"/>
<path fill-rule="evenodd" clip-rule="evenodd" d="M93.9644 18.6054C93.9004 18.8674 93.6354 19.0284 93.3724 18.9644C93.1104 18.8994 92.9494 18.6354 93.0144 18.3724C93.0784 18.1104 93.3434 17.9494 93.6054 18.0144C93.8674 18.0784 94.0284 18.3434 93.9644 18.6054" fill="#FEFEFE"/>
<path fill-rule="evenodd" clip-rule="evenodd" d="M91.3044 22.9747C91.2734 22.9708 91.2432 22.9656 91.2122 22.961C90.6932 22.8732 90.2464 22.6494 90.0443 22.3781C89.9618 22.2649 89.9979 22.1139 90.1247 22.0397C90.2523 21.9662 90.424 21.9975 90.5081 22.1107C90.6039 22.2395 90.8966 22.4106 91.3162 22.4815C91.5875 22.5303 92.1043 22.5609 92.5644 22.2746C92.689 22.1972 92.8608 22.2232 92.9492 22.3338C93.0377 22.4438 93.0075 22.596 92.8822 22.6741C92.4413 22.9473 91.8831 23.0534 91.3044 22.9747" fill="#1A1E1D"/>
</g>
<defs>
<linearGradient id="paint0_linear_616_15370" x1="41.3674" y1="160.104" x2="36.6602" y2="185.758" gradientUnits="userSpaceOnUse">
<stop stop-color="#7B86A4"/>
<stop offset="1" stop-color="#454E6B"/>
</linearGradient>
<linearGradient id="paint1_linear_616_15370" x1="87.4104" y1="172.496" x2="82.6259" y2="198.353" gradientUnits="userSpaceOnUse">
<stop stop-color="#7B86A4"/>
<stop offset="1" stop-color="#454E6B"/>
</linearGradient>
<linearGradient id="paint2_linear_616_15370" x1="65.7974" y1="164.99" x2="57.7399" y2="190.226" gradientUnits="userSpaceOnUse">
<stop stop-color="#7B86A4"/>
<stop offset="1" stop-color="#454E6B"/>
</linearGradient>
<clipPath id="clip0_616_15370">
<rect width="224" height="224" fill="white"/>
</clipPath>
</defs>
</svg>
