<svg width="118" height="118" viewBox="0 0 118 118" fill="none" xmlns="http://www.w3.org/2000/svg">
<path d="M118 59C118 91.5848 91.5848 118 59 118C26.4152 118 0 91.5848 0 59C0 26.4152 26.4152 0 59 0C91.5848 0 118 26.4152 118 59ZM11.6038 59C11.6038 85.1762 32.8238 106.396 59 106.396C85.1762 106.396 106.396 85.1762 106.396 59C106.396 32.8238 85.1762 11.6038 59 11.6038C32.8238 11.6038 11.6038 32.8238 11.6038 59Z" fill="#F1EFEF"/>
<path d="M5.80192 59C2.59761 59 -0.0295715 61.6039 0.285019 64.7928C1.23435 74.4156 4.53831 83.6895 9.94329 91.7786C16.4263 101.481 25.6408 109.043 36.4217 113.509C47.2025 117.974 59.0654 119.143 70.5103 116.866C81.9552 114.59 92.468 108.971 100.719 100.719C108.971 92.468 114.59 81.9552 116.866 70.5103C119.143 59.0654 117.974 47.2025 113.509 36.4217C109.043 25.6408 101.481 16.4263 91.7786 9.94329C83.6895 4.5383 74.4156 1.23435 64.7928 0.28502C61.6039 -0.0295722 59 2.59761 59 5.80192C59 9.00623 61.6073 11.5672 64.7876 11.9585C72.1115 12.8596 79.1521 15.4623 85.3319 19.5915C93.1262 24.7995 99.201 32.2018 102.788 40.8623C106.376 49.5228 107.314 59.0526 105.485 68.2465C103.657 77.4405 99.1426 85.8857 92.5142 92.5142C85.8857 99.1426 77.4405 103.657 68.2465 105.485C59.0526 107.314 49.5228 106.376 40.8623 102.788C32.2018 99.201 24.7995 93.1262 19.5915 85.3319C15.4623 79.1521 12.8596 72.1115 11.9585 64.7876C11.5672 61.6073 9.00623 59 5.80192 59Z" fill="#34A853"/>
<path d="M44.1892 68.073C43.702 68.073 43.1498 68.0324 42.5327 67.9512C41.9317 67.8862 41.3389 67.805 40.7543 67.7076C40.1858 67.6101 39.6905 67.5127 39.2682 67.4152L39.5606 64.5649C39.9179 64.6137 40.3483 64.6705 40.8517 64.7355C41.3714 64.7842 41.9155 64.8329 42.4839 64.8816C43.0524 64.9141 43.5802 64.9304 44.0674 64.9304C45.1068 64.9304 45.8701 64.638 46.3574 64.0534C46.8446 63.4687 47.1045 62.5836 47.1369 61.398C46.8121 61.5279 46.4711 61.6416 46.1138 61.739C45.7565 61.8365 45.3992 61.9177 45.0419 61.9827C44.7008 62.0476 44.3841 62.0801 44.0918 62.0801C42.3215 62.0801 40.9898 61.6578 40.0965 60.8133C39.2033 59.9688 38.7567 58.6452 38.7567 56.8424C38.7567 55.6568 39.0003 54.6661 39.4875 53.8703C39.9747 53.0583 40.6568 52.4493 41.5338 52.0432C42.4108 51.6372 43.434 51.4342 44.6034 51.4342C46.0488 51.4342 47.2263 51.759 48.1357 52.4087C49.0452 53.0421 49.7111 53.9759 50.1334 55.2102C50.5719 56.4445 50.7911 57.9387 50.7911 59.6927C50.7911 61.3168 50.6287 62.6729 50.3039 63.761C49.9953 64.8329 49.5487 65.6856 48.964 66.319C48.3794 66.9524 47.681 67.4071 46.869 67.6832C46.0732 67.943 45.1799 68.073 44.1892 68.073ZM44.5303 59.0106C44.8226 59.0106 45.1312 58.9862 45.456 58.9375C45.7971 58.8725 46.1138 58.7913 46.4061 58.6939C46.7147 58.5964 46.9664 58.5152 47.1613 58.4503C47.1613 57.6382 47.0801 56.9399 46.9177 56.3552C46.7553 55.7705 46.4954 55.3158 46.1381 54.991C45.7808 54.6661 45.2692 54.5037 44.6034 54.5037C43.8563 54.5037 43.2797 54.723 42.8737 55.1615C42.4839 55.5838 42.289 56.1522 42.289 56.8668C42.289 57.6301 42.4758 58.1823 42.8493 58.5233C43.2391 58.8482 43.7994 59.0106 44.5303 59.0106ZM58.433 68.0486C57.832 68.0486 57.1662 67.9999 56.4353 67.9024C55.7045 67.8212 54.9899 67.7157 54.2915 67.5857C53.6094 67.4558 53.0248 67.334 52.5375 67.2203L52.8542 64.4188C53.309 64.4837 53.8368 64.5649 54.4377 64.6624C55.0549 64.7436 55.6801 64.8086 56.3135 64.8573C56.9632 64.906 57.5478 64.9304 58.0675 64.9304C58.8146 64.9304 59.3993 64.7517 59.8216 64.3944C60.2438 64.0209 60.4549 63.4849 60.4549 62.7866C60.4549 62.3156 60.3656 61.9421 60.187 61.666C60.0083 61.3899 59.7485 61.195 59.4074 61.0813C59.0826 60.9514 58.6928 60.8864 58.2381 60.8864C57.8808 60.8864 57.5235 60.9189 57.1662 60.9838C56.8089 61.0488 56.4759 61.13 56.1674 61.2275C55.8588 61.3087 55.5989 61.398 55.3878 61.4954L52.8786 61.1544L53.2684 51.7265H63.5732V55.064H56.2404L55.9725 58.1092C56.1836 58.028 56.4435 57.9387 56.752 57.8412C57.0768 57.7438 57.426 57.6626 57.7996 57.5976C58.1731 57.5164 58.5385 57.4758 58.8958 57.4758C60.0327 57.4758 60.9909 57.6301 61.7705 57.9387C62.55 58.2473 63.1509 58.767 63.5732 59.4978C63.9955 60.2124 64.2066 61.195 64.2066 62.4455C64.2066 63.7448 63.9711 64.8086 63.5001 65.6368C63.0291 66.4651 62.3632 67.0742 61.5025 67.4639C60.6417 67.8537 59.6185 68.0486 58.433 68.0486ZM70.8983 68.8525L69.7533 68.5602L74.1871 50.9226L75.3321 51.2393L70.8983 68.8525ZM68.7545 59.2785C67.6502 59.2785 66.8544 58.97 66.3671 58.3528C65.8799 57.7194 65.6363 56.7206 65.6363 55.3564C65.6363 53.9759 65.8799 52.9852 66.3671 52.3843C66.8706 51.7834 67.6664 51.4829 68.7545 51.4829C69.5016 51.4829 70.1025 51.621 70.5573 51.8971C71.012 52.1569 71.345 52.5711 71.5561 53.1395C71.7672 53.6917 71.8728 54.4307 71.8728 55.3564C71.8728 56.7206 71.621 57.7194 71.1176 58.3528C70.6304 58.97 69.8427 59.2785 68.7545 59.2785ZM68.7545 57.3053C68.9657 57.3053 69.1281 57.2566 69.2418 57.1591C69.3554 57.0454 69.4367 56.8424 69.4854 56.5501C69.5341 56.2577 69.5585 55.8598 69.5585 55.3564C69.5585 54.8204 69.5341 54.4225 69.4854 54.1627C69.4367 53.8866 69.3554 53.6998 69.2418 53.6024C69.1281 53.4887 68.9657 53.4318 68.7545 53.4318C68.5434 53.4318 68.381 53.4887 68.2673 53.6024C68.1536 53.6998 68.0724 53.8866 68.0237 54.1627C67.9912 54.4225 67.975 54.8204 67.975 55.3564C67.975 55.8598 67.9993 56.2577 68.0481 56.5501C68.0968 56.8424 68.178 57.0454 68.2917 57.1591C68.4054 57.2566 68.5596 57.3053 68.7545 57.3053ZM76.4527 68.0486C75.3483 68.0486 74.5444 67.74 74.0409 67.1229C73.5537 66.5057 73.3101 65.5069 73.3101 64.1264C73.3101 62.7622 73.5537 61.7796 74.0409 61.1787C74.5444 60.5778 75.3483 60.2774 76.4527 60.2774C77.1835 60.2774 77.7763 60.4073 78.2311 60.6671C78.6858 60.927 79.0188 61.3411 79.2299 61.9096C79.441 62.478 79.5466 63.2251 79.5466 64.1508C79.5466 65.515 79.303 66.5057 78.8157 67.1229C78.3285 67.74 77.5408 68.0486 76.4527 68.0486ZM76.4527 66.0997C76.6476 66.0997 76.8019 66.0429 76.9156 65.9292C77.0293 65.8155 77.1105 65.6206 77.1592 65.3445C77.2079 65.0522 77.2323 64.6543 77.2323 64.1508C77.2323 63.6149 77.2079 63.2088 77.1592 62.9327C77.1105 62.6566 77.0293 62.4699 76.9156 62.3724C76.8019 62.275 76.6476 62.2263 76.4527 62.2263C76.2416 62.2263 76.071 62.275 75.9411 62.3724C75.8274 62.4699 75.7462 62.6566 75.6975 62.9327C75.665 63.2088 75.6488 63.6067 75.6488 64.1264C75.6488 64.6462 75.6731 65.0522 75.7219 65.3445C75.7706 65.6206 75.8518 65.8155 75.9655 65.9292C76.0792 66.0429 76.2416 66.0997 76.4527 66.0997Z" fill="#170605"/>
</svg>
