<svg width="245" height="150" viewBox="0 0 245 150" fill="none" xmlns="http://www.w3.org/2000/svg">
<path d="M237.83 20.1738H6.41C3.146 20.1738 0.5 22.4097 0.5 25.1678V293.337C0.5 296.095 3.146 298.331 6.41 298.331H237.83C241.094 298.331 243.74 296.095 243.74 293.337V25.1678C243.74 22.4097 241.094 20.1738 237.83 20.1738Z" fill="#170605"/>
<path d="M237.83 298.788H6.41C4.71078 298.786 3.08191 298.214 1.88037 297.199C0.678836 296.184 0.00264471 294.807 0 293.371V25.1684C0.00264471 23.7326 0.678836 22.3562 1.88037 21.3409C3.08191 20.3256 4.71078 19.7542 6.41 19.752H237.83C239.529 19.7542 241.158 20.3256 242.36 21.3409C243.561 22.3562 244.237 23.7326 244.24 25.1684V293.338C244.244 294.051 244.081 294.759 243.761 295.419C243.441 296.08 242.969 296.681 242.374 297.187C241.778 297.693 241.07 298.095 240.291 298.37C239.511 298.645 238.675 298.787 237.83 298.788ZM6.41 20.597C4.97599 20.5992 3.60147 21.0815 2.58747 21.9384C1.57347 22.7952 1.00264 23.9567 1 25.1684V293.338C1.00264 294.549 1.57347 295.711 2.58747 296.568C3.60147 297.424 4.97599 297.907 6.41 297.909H237.83C239.264 297.907 240.639 297.424 241.653 296.568C242.667 295.711 243.237 294.549 243.24 293.338V25.1684C243.237 23.9567 242.667 22.7952 241.653 21.9384C240.639 21.0815 239.264 20.5992 237.83 20.597H6.41Z" fill="#170605"/>
<path d="M237 27.0371H7.25V290.745H237V27.0371Z" fill="white"/>
<path d="M237.49 291.183H6.74023V26.6133H237.49V291.183ZM7.74023 290.338H236.49V27.4583H7.74023V290.338Z" fill="#170605"/>
<path d="M142.26 13.4143V5.69946C142.26 4.41532 141.656 3.18377 140.582 2.27575C139.507 1.36773 138.05 0.857607 136.53 0.857607H107.71C106.954 0.85202 106.204 0.973195 105.503 1.21412C104.803 1.45505 104.166 1.81095 103.63 2.26123C103.093 2.7115 102.667 3.24722 102.377 3.83738C102.087 4.42755 101.939 5.06044 101.94 5.69946V13.4143C101.941 13.8911 101.831 14.3634 101.616 14.8041C101.401 15.2449 101.086 15.6456 100.687 15.9831C100.289 16.3206 99.8153 16.5884 99.2941 16.7711C98.773 16.9538 98.2143 17.0478 97.6501 17.0478H78.6501C76.1226 17.0478 73.6986 17.8962 71.9114 19.4064C70.1242 20.9166 69.1201 22.9649 69.1201 25.1007V29.9172H175.06V25.1007C175.06 22.9649 174.056 20.9166 172.269 19.4064C170.482 17.8962 168.058 17.0478 165.53 17.0478H146.53C145.394 17.0433 144.307 16.6583 143.506 15.9771C142.706 15.2959 142.257 14.3743 142.26 13.4143Z" fill="#B81B34"/>
<path d="M175.56 30.3401H68.6797V25.1011C68.6797 22.86 69.7332 20.7107 71.6086 19.126C73.484 17.5414 76.0275 16.6511 78.6797 16.6511H97.6797C98.6858 16.6489 99.6498 16.3096 100.36 15.7076C101.071 15.1057 101.47 14.2902 101.47 13.4401V5.6999C101.47 4.3037 102.126 2.9647 103.294 1.97744C104.463 0.990182 106.047 0.435547 107.7 0.435547H136.52C138.171 0.437781 139.754 0.993134 140.922 1.97991C142.09 2.96668 142.747 4.30439 142.75 5.6999V13.4147C142.75 14.2649 143.149 15.0803 143.859 15.6823C144.57 16.2842 145.534 16.6235 146.54 16.6257H165.54C168.192 16.6257 170.735 17.516 172.611 19.1007C174.486 20.6854 175.54 22.8347 175.54 25.0757L175.56 30.3401ZM69.6797 29.4951H174.56V25.1011C174.56 23.0841 173.611 21.1498 171.924 19.7236C170.236 18.2973 167.947 17.4961 165.56 17.4961H146.56C145.288 17.4939 144.07 17.0655 143.172 16.3051C142.274 15.5447 141.77 14.5144 141.77 13.4401V5.6999C141.77 4.52781 141.219 3.40373 140.238 2.57494C139.257 1.74616 137.927 1.28055 136.54 1.28055H107.71C106.323 1.28055 104.992 1.74616 104.012 2.57494C103.031 3.40373 102.48 4.52781 102.48 5.6999V13.4147C102.48 14.489 101.975 15.5194 101.077 16.2798C100.179 17.0402 98.961 17.4685 97.6897 17.4707H78.6897C76.3027 17.4707 74.0135 18.272 72.3257 19.6982C70.6379 21.1244 69.6897 23.0588 69.6897 25.0757L69.6797 29.4951Z" fill="#170605"/>
<path d="M165.49 25.4557H77.6597C77.3726 25.4568 77.088 25.41 76.8224 25.3179C76.5568 25.2258 76.3153 25.0903 76.1118 24.9192C75.9083 24.748 75.7468 24.5445 75.6366 24.3205C75.5264 24.0965 75.4697 23.8562 75.4697 23.6136C75.4697 23.371 75.5264 23.1308 75.6366 22.9067C75.7468 22.6827 75.9083 22.4792 76.1118 22.308C76.3153 22.1369 76.5568 22.0014 76.8224 21.9093C77.088 21.8172 77.3726 21.7704 77.6597 21.7715H165.49C165.776 21.7704 166.06 21.8173 166.326 21.9094C166.591 22.0016 166.831 22.1373 167.034 22.3085C167.237 22.4798 167.397 22.6833 167.506 22.9073C167.616 23.1313 167.671 23.3714 167.67 23.6136C167.671 23.8558 167.616 24.0959 167.506 24.3199C167.397 24.5439 167.237 24.7474 167.034 24.9187C166.831 25.0899 166.591 25.2256 166.326 25.3178C166.06 25.4099 165.776 25.4568 165.49 25.4557Z" fill="#170605"/>
<path d="M165.49 25.8534H77.6605C76.9497 25.8534 76.268 25.6148 75.7654 25.1901C75.2628 24.7654 74.9805 24.1894 74.9805 23.5888C74.9805 22.9882 75.2628 22.4122 75.7654 21.9875C76.268 21.5628 76.9497 21.3242 77.6605 21.3242H165.49C166.201 21.3242 166.883 21.5628 167.386 21.9875C167.888 22.4122 168.17 22.9882 168.17 23.5888C168.17 24.1894 167.888 24.7654 167.386 25.1901C166.883 25.6148 166.201 25.8534 165.49 25.8534ZM77.6605 22.1692C77.2149 22.1692 76.7876 22.3188 76.4725 22.585C76.1575 22.8512 75.9805 23.2123 75.9805 23.5888C75.9805 23.9653 76.1575 24.3264 76.4725 24.5926C76.7876 24.8589 77.2149 25.0084 77.6605 25.0084H165.49C165.936 25.0084 166.363 24.8589 166.678 24.5926C166.993 24.3264 167.17 23.9653 167.17 23.5888C167.17 23.2123 166.993 22.8512 166.678 22.585C166.363 22.3188 165.936 22.1692 165.49 22.1692H77.6605Z" fill="#170605"/>
<path d="M217.27 114.621H211.07V115.466H217.27V114.621Z" fill="#170605"/>
<path d="M217.27 59.5859H211.07V60.4309H217.27V59.5859Z" fill="#170605"/>
<path d="M207.71 114.621H184.76V115.466H207.71V114.621Z" fill="#170605"/>
<path d="M207.71 59.5859H184.76V60.4309H207.71V59.5859Z" fill="#170605"/>
<path d="M180.01 114.621H127.4V115.466H180.01V114.621Z" fill="#170605"/>
<path d="M180.01 59.5859H127.4V60.4309H180.01V59.5859Z" fill="#170605"/>
<path d="M123.76 114.621H62.2002V115.466H123.76V114.621Z" fill="#170605"/>
<path d="M123.76 59.5859H62.2002V60.4309H123.76V59.5859Z" fill="#170605"/>
<path d="M58.8399 114.621H45.1299V115.466H58.8399V114.621Z" fill="#170605"/>
<path d="M58.8399 59.5859H45.1299V60.4309H58.8399V59.5859Z" fill="#170605"/>
<path d="M41.4901 114.621H29.3701V115.466H41.4901V114.621Z" fill="#170605"/>
<path d="M41.4901 59.5859H29.3701V60.4309H41.4901V59.5859Z" fill="#170605"/>
<path d="M217.26 123.586H168.53V124.431H217.26V123.586Z" fill="#170605"/>
<path d="M217.26 68.5508H168.53V69.3958H217.26V68.5508Z" fill="#170605"/>
<path d="M164.89 123.586H105.29V124.431H164.89V123.586Z" fill="#170605"/>
<path d="M164.89 68.5508H105.29V69.3958H164.89V68.5508Z" fill="#170605"/>
<path d="M100.81 123.586H55.4805V124.431H100.81V123.586Z" fill="#170605"/>
<path d="M100.81 68.5508H55.4805V69.3958H100.81V68.5508Z" fill="#170605"/>
<path d="M51.5601 123.586H29.3701V124.431H51.5601V123.586Z" fill="#170605"/>
<path d="M51.5601 68.5508H29.3701V69.3958H51.5601V68.5508Z" fill="#170605"/>
<path d="M217.26 132.551H174.41V133.396H217.26V132.551Z" fill="#170605"/>
<path d="M217.26 77.5156H174.41V78.3606H217.26V77.5156Z" fill="#170605"/>
<path d="M169.37 132.551H158.46V133.396H169.37V132.551Z" fill="#170605"/>
<path d="M152.86 132.551H112.85V133.396H152.86V132.551Z" fill="#170605"/>
<path d="M107.25 132.551H48.4902V133.396H107.25V132.551Z" fill="#170605"/>
<path d="M45.1201 132.551H29.3701V133.396H45.1201V132.551Z" fill="#170605"/>
<path d="M217.26 141.518H174.69V142.363H217.26V141.518Z" fill="#170605"/>
<path d="M170.49 141.518H89.3398V142.363H170.49V141.518Z" fill="#170605"/>
<path d="M84.5801 141.518H29.3701V142.363H84.5801V141.518Z" fill="#170605"/>
</svg>
