<svg width="224" height="224" viewBox="0 0 224 224" fill="none" xmlns="http://www.w3.org/2000/svg">
<g clip-path="url(#clip0_952_15371)">
<path d="M111.726 234.211C173.431 234.211 223.452 184.436 223.452 123.035C223.452 61.6344 173.431 11.8594 111.726 11.8594C50.0215 11.8594 0 61.6344 0 123.035C0 184.436 50.0215 234.211 111.726 234.211Z" fill="#E2DEDE"/>
<path d="M175.776 75.5996H47.6633C43.5496 75.5996 40.2148 78.9179 40.2148 83.0113V238.657C40.2148 242.751 43.5496 246.069 47.6633 246.069H175.776C179.889 246.069 183.224 242.751 183.224 238.657V83.0113C183.224 78.9179 179.889 75.5996 175.776 75.5996Z" fill="white"/>
<path d="M96.8355 97.834H58.1038C55.6356 97.834 53.6348 99.825 53.6348 102.281C53.6348 104.737 55.6356 106.728 58.1038 106.728H96.8355C99.3037 106.728 101.305 104.737 101.305 102.281C101.305 99.825 99.3037 97.834 96.8355 97.834Z" fill="#F1EFEF"/>
<path d="M123.65 117.105H58.1038C55.6356 117.105 53.6348 119.096 53.6348 121.552C53.6348 124.009 55.6356 126 58.1038 126H123.65C126.118 126 128.119 124.009 128.119 121.552C128.119 119.096 126.118 117.105 123.65 117.105Z" fill="#F8F7F7"/>
<path d="M96.8355 137.857H58.1038C55.6356 137.857 53.6348 139.848 53.6348 142.304C53.6348 144.76 55.6356 146.751 58.1038 146.751H96.8355C99.3037 146.751 101.305 144.76 101.305 142.304C101.305 139.848 99.3037 137.857 96.8355 137.857Z" fill="#F1EFEF"/>
<path d="M123.65 157.129H58.1038C55.6356 157.129 53.6348 159.12 53.6348 161.576C53.6348 164.032 55.6356 166.023 58.1038 166.023H123.65C126.118 166.023 128.119 164.032 128.119 161.576C128.119 159.12 126.118 157.129 123.65 157.129Z" fill="#F8F7F7"/>
<path d="M96.8355 177.881H58.1038C55.6356 177.881 53.6348 179.872 53.6348 182.328C53.6348 184.784 55.6356 186.775 58.1038 186.775H96.8355C99.3037 186.775 101.305 184.784 101.305 182.328C101.305 179.872 99.3037 177.881 96.8355 177.881Z" fill="#F1EFEF"/>
<path d="M123.65 197.152H58.1038C55.6356 197.152 53.6348 199.143 53.6348 201.599C53.6348 204.055 55.6356 206.046 58.1038 206.046H123.65C126.118 206.046 128.119 204.055 128.119 201.599C128.119 199.143 126.118 197.152 123.65 197.152Z" fill="#F8F7F7"/>
<path d="M175.776 0H47.6633C43.5496 0 40.2148 3.31834 40.2148 7.41172V51.882C40.2148 55.9754 43.5496 59.2937 47.6633 59.2937H175.776C179.889 59.2937 183.224 55.9754 183.224 51.882V7.41172C183.224 3.31834 179.889 0 175.776 0Z" fill="#8D8584"/>
<path d="M96.8277 16.3047H58.096C55.6278 16.3047 53.627 18.2957 53.627 20.7517C53.627 23.2077 55.6278 25.1987 58.096 25.1987H96.8277C99.2959 25.1987 101.297 23.2077 101.297 20.7517C101.297 18.2957 99.2959 16.3047 96.8277 16.3047Z" fill="#F8F7F7"/>
<path d="M123.642 35.5762H58.096C55.6278 35.5762 53.627 37.5672 53.627 40.0232C53.627 42.4792 55.6278 44.4702 58.096 44.4702H123.642C126.11 44.4702 128.111 42.4792 128.111 40.0232C128.111 37.5672 126.11 35.5762 123.642 35.5762Z" fill="white"/>
</g>
<defs>
<clipPath id="clip0_952_15371">
<rect width="224" height="224" fill="white"/>
</clipPath>
</defs>
</svg>
