<svg width="150" height="52" viewBox="0 0 150 52" fill="none" xmlns="http://www.w3.org/2000/svg">
<g clip-path="url(#clip0_118_13192)">
<path d="M34.8893 27.6093C34.8274 21.1167 40.1936 17.9972 40.435 17.8487C37.4146 13.4356 32.723 12.8291 31.0519 12.761C27.0598 12.3525 23.2595 15.1129 21.2293 15.1129C19.1992 15.1129 16.0736 12.8167 12.7622 12.8848C8.40491 12.9467 4.38799 15.4162 2.14124 19.3155C-2.37702 27.1513 0.990016 38.7874 5.40305 45.1563C7.56315 48.2695 10.1256 51.7789 13.505 51.6489C16.7606 51.519 17.9861 49.5446 21.9102 49.5446C25.8342 49.5446 26.9422 51.6489 30.3773 51.5871C33.8743 51.519 36.0901 48.4057 38.2316 45.2801C40.695 41.6593 41.7162 38.1623 41.7781 37.9766C41.6977 37.9456 34.9636 35.3646 34.8893 27.6093Z" fill="#170605"/>
<path d="M28.4342 8.53949C30.2291 6.36701 31.436 3.35277 31.108 0.344727C28.527 0.449946 25.4014 2.06538 23.5507 4.23786C21.892 6.15657 20.4375 9.22651 20.8336 12.1727C23.6993 12.3955 26.6454 10.7058 28.4342 8.53949ZM57.5243 33.9903L54.5534 42.9958H50.7346L60.4581 14.3761H64.9145L74.6751 42.9958H70.7263L67.6687 33.9903H57.5243ZM66.9075 31.0998L64.1098 22.8617C63.4723 20.9925 63.0515 19.2967 62.6244 17.6379H62.5439C62.1169 19.3338 61.6527 21.073 61.1018 22.8184L58.3042 31.0936L66.9075 31.0998ZM77.5718 29.1502C77.5718 26.5197 77.4913 24.3905 77.3985 22.4409H80.7531L80.9264 25.9688H81.0069C82.5357 23.4621 84.9557 21.9767 88.3104 21.9767C93.2805 21.9767 97.0127 26.1793 97.0127 32.4244C97.0127 39.8145 92.513 43.4601 87.6729 43.4601C84.9557 43.4601 82.579 42.2717 81.3473 40.2354H81.2668V51.4011H77.5718V29.1502ZM81.2607 34.6278C81.2607 35.1848 81.3411 35.6862 81.434 36.1566C82.1148 38.7437 84.3616 40.5325 87.0416 40.5325C90.9904 40.5325 93.2867 37.3078 93.2867 32.5915C93.2867 28.4693 91.1204 24.9538 87.1715 24.9538C84.6277 24.9538 82.251 26.7796 81.5206 29.5834C81.3906 30.0476 81.2668 30.6047 81.2668 31.1122L81.2607 34.6278ZM100.875 29.1502C100.875 26.5197 100.794 24.3905 100.702 22.4409H104.056L104.23 25.9688H104.31C105.839 23.4621 108.259 21.9767 111.613 21.9767C116.584 21.9767 120.316 26.1793 120.316 32.4244C120.316 39.8145 115.816 43.4601 110.976 43.4601C108.259 43.4601 105.882 42.2717 104.65 40.2354H104.57V51.4011H100.875V29.1502ZM104.57 34.6278C104.57 35.1848 104.65 35.6862 104.743 36.1566C105.424 38.7437 107.671 40.5325 110.351 40.5325C114.3 40.5325 116.596 37.3078 116.596 32.5915C116.596 28.4693 114.43 24.9538 110.481 24.9538C107.937 24.9538 105.56 26.7796 104.83 29.5834C104.7 30.0476 104.576 30.6047 104.576 31.1122L104.57 34.6278ZM124.184 12.8473H127.923V42.9897H124.184V12.8473ZM135.436 33.3961C135.517 38.4466 138.748 40.5325 142.48 40.5325C145.154 40.5325 146.769 40.0683 148.168 39.4741L148.806 42.1479C147.493 42.7421 145.24 43.4229 141.972 43.4229C135.647 43.4229 131.865 39.2636 131.865 33.0619C131.865 26.8601 135.517 21.9767 141.502 21.9767C148.211 21.9767 149.994 27.8752 149.994 31.6569C149.994 32.4244 149.913 33.0124 149.864 33.3961H135.436ZM146.392 30.7223C146.435 28.3456 145.414 24.6505 141.211 24.6505C137.429 24.6505 135.777 28.1351 135.48 30.7223H146.392Z" fill="#170605"/>
</g>
<defs>
<clipPath id="clip0_118_13192">
<rect width="150" height="51.3101" fill="white" transform="translate(0 0.344727)"/>
</clipPath>
</defs>
</svg>
