<svg width="228" height="68" viewBox="0 0 228 68" fill="none" xmlns="http://www.w3.org/2000/svg">
<g clip-path="url(#clip0_204_8136)">
<path d="M226.487 60.0237C226.487 63.5977 223.592 66.4925 220.012 66.4925H8.09713C4.51819 66.4925 1.61328 63.5977 1.61328 60.0237V8.4372C1.61328 4.86501 4.51833 1.95996 8.09713 1.95996H220.01C223.592 1.95996 226.486 4.86501 226.486 8.4372L226.487 60.0237Z" fill="white"/>
<path d="M220.013 67.9976H8.09851C3.69534 67.9976 0.111328 64.4221 0.111328 60.024V8.43915C0.111328 4.03767 3.69534 0.457031 8.09851 0.457031H220.011C224.41 0.457031 227.999 4.03767 227.999 8.43915V60.024C228.002 64.4221 224.413 67.9976 220.013 67.9976Z" fill="#A6A6A6"/>
<path d="M226.487 60.0237C226.487 63.5977 223.592 66.4925 220.012 66.4925H8.09713C4.51819 66.4925 1.61328 63.5977 1.61328 60.0237V8.4372C1.61328 4.86501 4.51833 1.95996 8.09713 1.95996H220.01C223.592 1.95996 226.486 4.86501 226.486 8.4372L226.487 60.0237Z" fill="black"/>
<path d="M50.9967 33.8714C50.9477 28.4278 55.4539 25.7795 55.6599 25.6562C53.1079 21.9354 49.1524 21.427 47.7624 21.3865C44.4402 21.0369 41.2176 23.3744 39.5252 23.3744C37.7991 23.3744 35.193 21.4203 32.3842 21.4777C28.7698 21.5334 25.3886 23.6261 23.534 26.8757C19.7069 33.5015 22.5611 43.2385 26.228 48.5942C28.0621 51.2189 30.2056 54.1459 33.0108 54.0429C35.7554 53.9314 36.7807 52.2948 40.0927 52.2948C43.3743 52.2948 44.3371 54.0429 47.1981 53.977C50.1439 53.9314 51.9982 51.3422 53.7684 48.6956C55.8881 45.6909 56.7392 42.7284 56.7731 42.5764C56.7054 42.5528 51.0541 40.3943 50.9967 33.8714ZM45.5919 17.8633C47.0679 16.0172 48.0781 13.5057 47.7977 10.957C45.661 11.0516 42.9892 12.4349 41.4504 14.2404C40.0891 15.8314 38.873 18.4392 39.1872 20.8916C41.5873 21.0706 44.0516 19.6806 45.5919 17.8633Z" fill="white"/>
<path d="M220.014 0.456543H106.506L150.965 67.9971H220.014C224.412 67.9971 228.001 64.4216 228.001 60.0184V8.43866C228.003 4.03718 224.413 0.456543 220.014 0.456543Z" fill="url(#paint0_linear_204_8136)"/>
<path d="M90.7511 53.6663H86.9154L84.8143 47.0641H77.511L75.5096 53.6663H71.7754L79.0127 31.1894H83.4817L90.7511 53.6663ZM84.1811 44.2942L82.281 38.425C82.08 37.8254 81.7017 36.4134 81.1475 34.1907H81.0801C80.8572 35.1467 80.5008 36.5586 80.0127 38.425L78.1447 44.2942H84.1811ZM109.327 45.3633C109.327 48.1197 108.578 50.2985 107.08 51.8981C105.739 53.3218 104.072 54.033 102.084 54.033C99.9374 54.033 98.3937 53.2677 97.4563 51.7343V60.2383H93.8554V42.7859C93.8554 41.0546 93.81 39.2796 93.7221 37.4589H96.889L97.09 40.0278H97.1574C98.3582 38.0922 100.181 37.1243 102.626 37.1243C104.538 37.1243 106.134 37.8793 107.411 39.3909C108.686 40.9061 109.327 42.8957 109.327 45.3633ZM105.658 45.495C105.658 43.9175 105.303 42.617 104.591 41.5918C103.812 40.5261 102.766 39.9925 101.456 39.9925C100.567 39.9925 99.7601 40.2896 99.0389 40.8757C98.316 41.4668 97.8431 42.2387 97.622 43.1946C97.5105 43.6405 97.4548 44.0037 97.4548 44.2909V46.9949C97.4548 48.1721 97.8162 49.167 98.5391 49.9811C99.262 50.7918 100.201 51.1987 101.356 51.1987C102.713 51.1987 103.768 50.6736 104.523 49.6313C105.28 48.5859 105.658 47.2077 105.658 45.495ZM127.968 45.3633C127.968 48.1197 127.22 50.2985 125.721 51.8981C124.379 53.3218 122.713 54.033 120.724 54.033C118.577 54.033 117.033 53.2677 116.096 51.7343V60.2383H112.495V42.7859C112.495 41.0546 112.449 39.2796 112.362 37.4589H115.528L115.729 40.0278H115.797C116.996 38.0922 118.819 37.1243 121.266 37.1243C123.176 37.1243 124.772 37.8793 126.052 39.3909C127.326 40.9061 127.968 42.8957 127.968 45.3633ZM124.298 45.495C124.298 43.9175 123.941 42.617 123.228 41.5918C122.45 40.5261 121.408 39.9925 120.097 39.9925C119.209 39.9925 118.401 40.2896 117.677 40.8757C116.954 41.4668 116.483 42.2387 116.261 43.1946C116.152 43.6405 116.093 44.0037 116.093 44.2909V46.9949C116.093 48.1721 116.456 49.167 117.175 49.9811C117.898 50.7901 118.837 51.1987 119.996 51.1987C121.354 51.1987 122.409 50.6736 123.163 49.6313C123.919 48.5859 124.298 47.2077 124.298 45.495ZM148.81 47.3614C148.81 49.275 148.141 50.8305 146.812 52.0314C145.349 53.342 143.307 53.999 140.689 53.999C138.271 53.999 136.332 53.5329 134.869 52.5989L135.702 49.5976C137.281 50.5333 139.015 50.9994 140.904 50.9994C142.262 50.9994 143.317 50.692 144.07 50.0823C144.825 49.4709 145.207 48.6534 145.207 47.6333C145.207 46.7197 144.891 45.9544 144.271 45.3313C143.648 44.7098 142.618 44.1305 141.171 43.5985C137.235 42.1307 135.266 39.984 135.266 37.1601C135.266 35.3157 135.962 33.8057 137.35 32.6252C138.738 31.4462 140.579 30.8569 142.87 30.8569C144.915 30.8569 146.619 31.2133 147.972 31.9244L147.069 34.8597C145.795 34.1706 144.358 33.826 142.75 33.826C141.48 33.826 140.483 34.1385 139.77 34.76C139.171 35.3157 138.867 35.9931 138.867 36.7969C138.867 37.6838 139.213 38.4202 139.902 38.9978C140.5 39.5297 141.591 40.1092 143.169 40.7307C145.104 41.511 146.526 42.4197 147.437 43.4635C148.354 44.507 148.81 45.8092 148.81 47.3614ZM160.746 40.1612H156.777V48.0302C156.777 50.0316 157.476 51.0298 158.878 51.0298C159.521 51.0298 160.055 50.9756 160.477 50.8626L160.577 53.5971C159.868 53.8624 158.933 53.9957 157.777 53.9957C156.354 53.9957 155.243 53.5616 154.441 52.6935C153.642 51.8253 153.24 50.3711 153.24 48.3241V40.1545H150.875V37.4521H153.24V34.4846L156.777 33.4171V37.4521H160.746V40.1612ZM178.619 45.4292C178.619 47.9203 177.906 49.9656 176.484 51.5652C174.996 53.212 173.016 54.0328 170.549 54.0328C168.167 54.0328 166.274 53.2441 164.862 51.6683C163.45 50.0889 162.744 48.0994 162.744 45.6994C162.744 43.1877 163.473 41.1307 164.928 39.5312C166.385 37.9301 168.348 37.1297 170.815 37.1297C173.194 37.1297 175.104 37.92 176.55 39.4975C177.931 41.0277 178.619 43.0038 178.619 45.4292ZM174.886 45.5119C174.886 44.0272 174.565 42.7537 173.921 41.6879C173.167 40.4009 172.086 39.7576 170.685 39.7576C169.243 39.7576 168.137 40.4009 167.383 41.6879C166.738 42.7537 166.417 44.0491 166.417 45.5793C166.417 47.0658 166.738 48.3425 167.383 49.405C168.162 50.692 169.248 51.3355 170.655 51.3355C172.032 51.3355 173.111 50.6785 173.891 49.3729C174.553 48.2819 174.886 46.9999 174.886 45.5119ZM190.328 40.6257C189.972 40.5597 189.59 40.5259 189.193 40.5259C187.927 40.5259 186.947 41.0023 186.258 41.9615C185.66 42.806 185.359 43.8735 185.359 45.1622V53.6662H181.758V42.563C181.758 40.6966 181.723 38.9942 181.654 37.4606H184.79L184.922 40.5614H185.022C185.403 39.4958 186.001 38.636 186.822 37.9925C187.624 37.4133 188.491 37.1243 189.425 37.1243C189.757 37.1243 190.058 37.148 190.325 37.1903L190.328 40.6257ZM206.433 44.7958C206.433 45.441 206.39 45.9847 206.301 46.429H195.498C195.539 48.0302 196.062 49.2564 197.066 50.1009C197.976 50.8543 199.153 51.2325 200.599 51.2325C202.198 51.2325 203.658 50.9792 204.97 50.4674L205.534 52.9654C204.001 53.6342 202.19 53.967 200.101 53.967C197.588 53.967 195.615 53.227 194.179 51.751C192.747 50.2732 192.029 48.2869 192.029 45.7991C192.029 43.3566 192.696 41.3216 194.032 39.6985C195.431 37.9656 197.321 37.099 199.699 37.099C202.035 37.099 203.803 37.9654 205.004 39.6985C205.955 41.0716 206.433 42.7741 206.433 44.7958ZM202.999 43.8618C203.024 42.7927 202.788 41.8722 202.3 41.0936C201.676 40.0903 200.717 39.5904 199.432 39.5904C198.255 39.5904 197.295 40.0785 196.566 41.0581C195.966 41.8367 195.61 42.7724 195.5 43.8584L202.999 43.8618Z" fill="white"/>
<path d="M82.4436 23.1446H80.5569L79.5249 19.9001H75.9358L74.9512 23.1446H73.1152L76.6722 12.097H78.8679L82.4436 23.1446ZM79.2141 18.5387L78.2801 15.654C78.1822 15.3584 78.0015 14.671 77.7228 13.5731H77.689C77.5741 14.0477 77.4103 14.7369 77.1637 15.654L76.2466 18.5387H79.2141ZM91.3376 15.1794L88.3211 23.1446H86.5999L83.6815 15.1794H85.5833L86.9446 19.3917C87.1743 20.096 87.3702 20.7682 87.5172 21.4066H87.5661C87.698 20.8341 87.8938 20.1619 88.1387 19.3917L89.4831 15.1794H91.3376ZM97.7591 23.1446L97.6274 22.2273H97.5783C97.0378 22.9654 96.2507 23.3252 95.251 23.3252C93.8254 23.3252 92.8086 22.3253 92.8086 20.9809C92.8086 19.0149 94.5128 17.9981 97.4634 17.9981V17.8512C97.4634 16.8023 96.9061 16.2771 95.8082 16.2771C95.021 16.2771 94.3321 16.4747 93.7274 16.8682L93.3675 15.7045C94.1056 15.2451 95.0229 15.0154 96.1053 15.0154C98.1862 15.0154 99.2367 16.1132 99.2367 18.3106V21.2444C99.2367 22.0483 99.2705 22.6715 99.3516 23.1461L97.7591 23.1446ZM97.5125 19.1772C95.545 19.1772 94.5619 19.6535 94.5619 20.7834C94.5619 21.6194 95.0703 22.0282 95.7746 22.0282C96.6764 22.0282 97.5125 21.3408 97.5125 20.4068V19.1772ZM103.179 13.867C102.59 13.867 102.13 13.4076 102.13 12.8013C102.13 12.1949 102.605 11.7524 103.213 11.7524C103.819 11.7524 104.311 12.1949 104.294 12.8013C104.294 13.4414 103.836 13.867 103.179 13.867ZM104.098 23.1446H102.328V15.1794H104.098V23.1446ZM109.013 23.1446H107.243V11.5244H109.013V23.1446ZM116.536 23.1446L116.404 22.2273H116.355C115.814 22.9654 115.027 23.3252 114.027 23.3252C112.602 23.3252 111.585 22.3253 111.585 20.9809C111.585 19.0149 113.289 17.9981 116.24 17.9981V17.8512C116.24 16.8023 115.682 16.2771 114.585 16.2771C113.798 16.2771 113.108 16.4747 112.504 16.8682L112.142 15.7028C112.881 15.2434 113.798 15.0137 114.88 15.0137C116.961 15.0137 118.012 16.1115 118.012 18.3089V21.2427C118.012 22.0466 118.047 22.6698 118.125 23.1445H116.536V23.1446ZM116.289 19.1772C114.321 19.1772 113.338 19.6535 113.338 20.7834C113.338 21.6194 113.847 22.0282 114.551 22.0282C115.453 22.0282 116.289 21.3408 116.289 20.4068V19.1772ZM125.183 23.3253C124.053 23.3253 123.219 22.849 122.678 21.915H122.643L122.542 23.1446H121.033C121.082 22.5062 121.099 21.7833 121.099 20.9979V11.5244H122.871V16.3448H122.905C123.43 15.4597 124.28 15.0172 125.445 15.0172C127.364 15.0172 128.708 16.6572 128.708 19.0488C128.708 21.5215 127.215 23.3253 125.183 23.3253ZM124.823 16.4073C123.805 16.4073 122.873 17.2923 122.873 18.5219V19.9153C122.873 21.0131 123.71 21.915 124.793 21.915C126.119 21.915 126.908 20.8341 126.908 19.113C126.906 17.5068 126.085 16.4073 124.823 16.4073ZM133.094 23.1446H131.326V11.5244H133.094V23.1446ZM142.73 19.5876H137.417C137.452 21.0959 138.448 21.9471 139.925 21.9471C140.712 21.9471 141.433 21.8154 142.071 21.5705L142.347 22.8C141.593 23.1277 140.708 23.2915 139.676 23.2915C137.183 23.2915 135.709 21.7174 135.709 19.2768C135.709 16.8346 137.219 14.9986 139.477 14.9986C141.509 14.9986 142.789 16.5069 142.789 18.7853C142.796 19.0961 142.781 19.3748 142.73 19.5876ZM141.107 18.3259C141.107 17.0964 140.483 16.2282 139.352 16.2282C138.335 16.2282 137.535 17.1132 137.416 18.3259H141.107ZM153.458 23.3253C151.131 23.3253 149.623 21.5874 149.623 19.2278C149.623 16.7687 151.163 15.0155 153.592 15.0155C155.884 15.0155 157.427 16.6707 157.427 19.0978C157.428 21.5874 155.836 23.3253 153.458 23.3253ZM153.526 16.3093C152.247 16.3093 151.428 17.5051 151.428 19.1772C151.428 20.8172 152.264 22.013 153.509 22.013C154.754 22.013 155.588 20.7344 155.588 19.1434C155.59 17.522 154.771 16.3093 153.526 16.3093ZM166.943 23.1446H165.175V18.5708C165.175 17.1622 164.634 16.4562 163.569 16.4562C162.52 16.4562 161.797 17.3581 161.797 18.407V23.1446H160.029V17.4561C160.029 16.7518 160.01 15.9968 159.963 15.1777H161.52L161.603 16.4073H161.652C162.124 15.556 163.094 15.0138 164.175 15.0138C165.845 15.0138 166.943 16.2924 166.943 18.3732V23.1446H166.943ZM178.524 16.5069H176.577V20.3747C176.577 21.3593 176.92 21.8508 177.607 21.8508C177.92 21.8508 178.183 21.8171 178.394 21.7681L178.444 23.1125C178.099 23.2444 177.638 23.3101 177.069 23.3101C175.673 23.3101 174.841 22.5399 174.841 20.5233V16.5069H173.679V15.1794H174.841V13.7201L176.577 13.1948V15.1777H178.524V16.5069ZM187.898 23.1446H186.127V18.6046C186.127 17.1791 185.586 16.4579 184.52 16.4579C183.603 16.4579 182.752 17.0812 182.752 18.3428V23.1446H180.98V11.5244H182.752V16.3093H182.786C183.343 15.4412 184.147 15.0138 185.179 15.0138C186.866 15.0138 187.898 16.3245 187.898 18.407V23.1446ZM196.943 19.5876H191.631C191.665 21.0959 192.661 21.9471 194.138 21.9471C194.926 21.9471 195.646 21.8154 196.284 21.5705L196.561 22.8C195.808 23.1277 194.921 23.2915 193.889 23.2915C191.396 23.2915 189.922 21.7174 189.922 19.2768C189.922 16.8346 191.432 14.9986 193.69 14.9986C195.722 14.9986 197.002 16.5069 197.002 18.7853C197.009 19.0961 196.992 19.3748 196.943 19.5876ZM195.32 18.3259C195.32 17.0964 194.698 16.2282 193.566 16.2282C192.548 16.2282 191.747 17.1132 191.631 18.3259H195.32Z" fill="white"/>
</g>
<defs>
<linearGradient id="paint0_linear_204_8136" x1="167.255" y1="68.1807" x2="167.255" y2="7.29973" gradientUnits="userSpaceOnUse">
<stop stop-color="#1A1A1A" stop-opacity="0.1"/>
<stop offset="0.123" stop-color="#212121" stop-opacity="0.151"/>
<stop offset="0.308" stop-color="#353535" stop-opacity="0.227"/>
<stop offset="0.532" stop-color="#575757" stop-opacity="0.318"/>
<stop offset="0.783" stop-color="#858585" stop-opacity="0.421"/>
<stop offset="1" stop-color="#B3B3B3" stop-opacity="0.51"/>
</linearGradient>
<clipPath id="clip0_204_8136">
<rect width="227.889" height="67.5463" fill="white" transform="translate(0.111328 0.453613)"/>
</clipPath>
</defs>
</svg>
