<svg width="16" height="20" viewBox="0 0 16 20" fill="none" xmlns="http://www.w3.org/2000/svg">
<g clip-path="url(#clip0_118_12974)">
<path d="M9.35212 0.319757L0.443861 9.22817C0.238008 9.43403 0.125 9.7085 0.125 10.0075C0.125 10.3005 0.238008 10.5752 0.443861 10.7807L9.34366 19.6808C9.54968 19.8867 9.82431 20 10.1173 20C10.4103 20 10.6851 19.8868 10.891 19.6808L11.5464 19.0254C11.7523 18.8195 11.8659 18.5447 11.8659 18.2517C11.8659 17.9587 11.7523 17.6841 11.5464 17.4781L4.07279 10.0044L11.555 2.52251C11.7607 2.31666 11.8742 2.04203 11.8742 1.74886C11.8742 1.45585 11.7607 1.18138 11.555 0.975364L10.8993 0.319757C10.4728 -0.106582 9.77862 -0.106582 9.35212 0.319757Z" fill="white"/>
</g>
<defs>
<clipPath id="clip0_118_12974">
<rect width="20" height="16" fill="white" transform="translate(0 20) rotate(-90)"/>
</clipPath>
</defs>
</svg>
