<svg width="126" height="22" viewBox="0 0 126 22" fill="none" xmlns="http://www.w3.org/2000/svg">
<path fill-rule="evenodd" clip-rule="evenodd" d="M7.70075 13.2002H13.341L11.254 8.57543C11.1411 8.23691 11.0283 7.8984 10.9154 7.50386C10.8026 7.16535 10.6337 6.714 10.5209 6.26266C10.4073 6.6572 10.2952 7.10855 10.1816 7.50386C10.0127 7.8984 9.89991 8.23691 9.78707 8.57543L7.70075 13.2002ZM16.8374 21.2085L14.5254 15.9635H6.45955L4.09075 21.2085H0.650391L10.4641 0.00292969L20.3338 21.2085H16.8374ZM42.7806 21.9976L33.7007 0.848816H37.1411L41.653 11.6781C41.9347 12.2983 42.1604 12.8617 42.33 13.4259C42.4989 13.9332 42.6685 14.4414 42.7814 14.9488C42.8942 14.4414 43.0631 13.9332 43.2327 13.3698C43.4024 12.8064 43.6273 12.2422 43.8529 11.6781L48.4209 0.848816H51.8612L42.7806 21.9976ZM85.3622 11.0571C85.3622 10.0415 85.1917 9.02599 84.7964 8.12408C84.4026 7.16535 83.8953 6.37549 83.1607 5.64244C82.4844 4.90939 81.6953 4.40123 80.7926 4.00669C79.8899 3.61215 78.9304 3.44251 77.9717 3.44251C76.9577 3.44251 75.999 3.61215 75.0963 4.00669C74.1936 4.3452 73.4045 4.90939 72.6707 5.64244C71.9945 6.37549 71.4303 7.16535 71.035 8.12408C70.6972 9.02599 70.5276 10.0415 70.5276 11.0571C70.5276 12.0726 70.698 13.0298 71.035 13.9893C71.4303 14.892 71.9937 15.7386 72.6707 16.4149C73.4045 17.1471 74.1936 17.7113 75.0963 18.1066C75.999 18.4459 76.9585 18.6708 77.9717 18.6708C78.9304 18.6708 79.8899 18.4459 80.7926 18.1066C81.6393 17.7113 82.4844 17.1479 83.1607 16.4149C83.8945 15.7386 84.4026 14.892 84.7964 13.9893C85.1917 13.0298 85.3622 12.0726 85.3622 11.0571ZM88.8017 11.0571C88.8017 12.5224 88.5192 13.8764 88.0126 15.1744C87.4342 16.4531 86.6317 17.6179 85.6431 18.614C84.5715 19.6296 83.3879 20.3618 82.0899 20.926C80.7783 21.4425 79.3821 21.7106 77.9725 21.7167C76.4511 21.7167 75.0971 21.4342 73.7423 20.926C72.4458 20.3618 71.2614 19.6296 70.2467 18.614C69.1751 17.5985 68.3845 16.4709 67.8771 15.1744C67.3113 13.8759 67.0234 12.4734 67.032 11.0571C67.032 9.59018 67.3129 8.23613 67.8771 6.9389C68.3845 5.64166 69.1751 4.51407 70.2467 3.49932C71.2622 2.48378 72.4458 1.6947 73.7423 1.18655C75.0963 0.622363 76.4504 0.397467 77.9725 0.397467C79.3826 0.397467 80.7934 0.623141 82.0899 1.18655C83.4439 1.69392 84.5715 2.48378 85.6431 3.49932C86.6586 4.51407 87.4469 5.64244 88.0126 6.9389C88.5333 8.24949 88.801 9.64683 88.8017 11.0571ZM107.132 21.2085V0.00292969L120.103 12.4664C120.442 12.8056 120.78 13.2002 121.174 13.5955C121.514 13.9893 121.908 14.4406 122.303 14.948V0.848816H125.348V21.9976L112.15 9.30848C111.813 8.96997 111.474 8.63223 111.135 8.23692C110.797 7.84238 110.515 7.44783 110.178 7.05329V21.2093H107.132V21.2085Z" fill="#170605"/>
</svg>
