<svg width="140" height="52" viewBox="0 0 140 52" fill="none" xmlns="http://www.w3.org/2000/svg">
<g clip-path="url(#clip0_118_13210)">
<path d="M18.5838 49.704C20.1708 48.3954 20.8013 45.7085 20.8013 42.9847V38.3077C20.8013 36.832 20.7805 35.3565 20.5298 34.2428C20.2793 33.1292 19.7885 32.3777 19.2979 31.6261C19.784 31.0471 20.2701 30.4678 20.5205 29.6048C20.7712 28.7416 20.8013 27.595 20.8013 26.4479V22.9403C20.8013 21.0614 20.8401 19.1179 20.1612 17.5515C19.4823 15.985 18.3641 14.8158 16.8101 14.1008C15.2559 13.3856 13.2863 13.4036 11.3885 13.4036H0.588013V50.8355H11.2793C14.1393 50.8355 16.9967 51.0125 18.5838 49.704ZM7.60425 20.2678H10.277C11.3143 20.2678 12.3455 20.4269 12.8744 20.8724C13.4035 21.3178 13.4512 22.1288 13.4512 22.9404V25.9471C13.4512 26.7789 13.1225 27.5781 12.5936 27.9679C12.0645 28.3575 11.1716 28.2855 10.2772 28.2855H7.60425V20.2678ZM7.60425 35.468H10.277C11.3143 35.468 12.3455 35.6271 12.8744 36.0726C13.4035 36.518 13.4512 37.329 13.4512 38.1406V41.1473C13.4512 41.9791 13.1225 42.7783 12.5936 43.1683C12.0645 43.5579 11.1716 43.4859 10.2772 43.4859H7.60425V35.468ZM39.3439 50.8355H46.5272V38.3077C46.5272 36.832 46.5062 35.3565 46.2557 34.2428C46.005 33.1292 45.5144 32.3777 45.0238 31.6261C45.5099 31.0471 45.996 30.4678 46.2465 29.6048C46.4969 28.7416 46.5272 27.595 46.5272 26.4479V22.9403C46.5272 21.0614 46.5659 19.1179 45.8871 17.5515C45.2084 15.9852 44.0902 14.8158 42.5358 14.1008C40.9818 13.3856 39.0122 13.4036 37.1144 13.4036H26.3141V50.8355H33.359L33.2846 35.5727L39.3274 35.578L39.3439 50.8355ZM38.6001 20.8722C39.129 21.3177 39.1769 22.1286 39.1769 22.9403V25.947C39.1769 26.7788 38.8482 27.5779 38.3193 27.9677C37.7903 28.3573 36.8973 28.2853 36.003 28.2853H33.3302V20.2677H36.003C37.0401 20.2678 38.071 20.4269 38.6001 20.8722ZM58.5548 13.0851C58.5548 11.9056 58.3665 10.6314 58.9863 9.69261C59.606 8.75379 60.6957 8.20005 61.7831 8.20114C62.8707 8.20222 63.9562 8.75815 64.5841 9.69442C65.2122 10.6305 65.0697 11.9043 65.0697 13.0851V28.4523H58.5548V13.0851ZM65.0697 50.8355L71.4859 50.8253V11.8597C71.4859 9.59738 71.6778 7.24818 70.9748 5.44637C70.2716 3.64456 69.0703 2.42534 67.4931 1.74444C65.9158 1.06355 63.9625 0.920625 62.0573 0.87383C60.152 0.827216 58.2945 0.87655 56.6325 1.52371C54.9704 2.17086 53.5039 3.41566 52.6576 5.18482C51.8111 6.9538 52.0398 9.19871 52.0398 11.3486V50.8356H58.5548V34.9671H65.0697V50.8355ZM78.7062 46.8047C79.5759 48.5786 81.0364 49.8239 82.6953 50.4711C84.3541 51.1182 86.2116 51.1677 88.1241 51.1298C90.0367 51.0921 92.0039 50.9671 93.6089 50.199C95.214 49.4309 96.4569 48.0198 97.1514 46.2087C97.8459 44.3976 97.5457 42.2345 97.5457 40.1351V13.2623H91.2697L91.115 38.9097C91.1079 40.0897 91.2692 41.3632 90.6431 42.2998C90.0175 43.2366 88.9312 43.7926 87.8444 43.7935C86.7576 43.7944 85.6704 43.2401 85.0435 42.3044C84.4167 41.3686 84.5689 40.0948 84.5689 38.9149V13.2775H78.021L77.949 40.5905C77.9431 42.7634 77.8363 45.0306 78.7062 46.8047ZM103.157 23.4414V50.8356H109.672L109.627 25.1727C109.625 23.9928 109.474 22.7192 110.101 21.7833C110.728 20.8473 111.815 20.2932 112.902 20.2943C113.989 20.2952 115.075 20.8512 115.701 21.7878C116.327 22.7244 116.172 23.9981 116.173 25.1779L116.187 50.8355H122.535L122.604 23.9527C122.609 21.8533 122.904 19.6902 122.209 17.8791C121.515 16.068 120.272 14.6569 118.667 13.8888C117.062 13.1206 115.094 12.9957 113.18 12.9565C111.266 12.9175 109.405 12.9641 107.779 13.6149C106.152 14.2657 104.76 15.5203 103.922 17.2833C103.084 19.0461 103.157 21.2876 103.157 23.4414ZM132.075 21.2529H133.075V18.8125H134.568C134.67 18.8125 134.773 18.8074 134.899 18.8341C135.025 18.8607 135.173 18.9073 135.276 19.0027C135.469 19.1943 135.506 19.5093 135.506 19.7545L135.54 20.4636C135.545 20.747 135.573 21.0151 135.691 21.2531H136.813V21.0697C136.748 21.0311 136.684 20.9924 136.642 20.8791C136.601 20.7655 136.575 20.5776 136.564 20.3885L136.515 19.5393C136.505 19.3834 136.519 19.226 136.456 19.0497C136.393 18.8734 136.283 18.6795 136.169 18.5529C136.055 18.4263 135.937 18.3666 135.81 18.3516C136.05 18.2691 136.259 18.1049 136.411 17.862C136.562 17.6192 136.656 17.2971 136.651 16.9517C136.646 16.6062 136.543 16.2371 136.358 15.9641C136.174 15.6911 135.908 15.5141 135.607 15.4085C135.307 15.303 134.976 15.3121 134.651 15.3121H132.076L132.075 21.2529ZM134.502 16.1576C134.752 16.1598 135.032 16.1526 135.293 16.3192C135.544 16.4879 135.656 16.793 135.644 17.0468C135.644 17.1792 135.631 17.3088 135.582 17.4351C135.534 17.5615 135.452 17.6845 135.328 17.7721C135.087 17.9364 134.748 17.9799 134.477 17.9667H133.066V16.1578L134.502 16.1576ZM134.396 13.2507C133.516 13.2521 132.652 13.4836 131.89 13.9222C131.128 14.363 130.496 14.9955 130.054 15.7566C129.616 16.5191 129.384 17.3831 129.383 18.2627C129.383 19.137 129.617 20.0116 130.054 20.7688C130.496 21.53 131.128 22.1625 131.89 22.6034C132.647 23.0406 133.522 23.2749 134.396 23.2749C135.271 23.2749 136.146 23.0406 136.903 22.6034C137.664 22.1626 138.297 21.5301 138.738 20.7688C139.177 20.0063 139.408 19.1424 139.41 18.2627C139.41 17.3883 139.175 16.5139 138.738 15.7566C138.297 14.9955 137.664 14.363 136.903 13.9222C136.14 13.4836 135.276 13.2521 134.396 13.2507ZM138.708 18.3162C138.708 19.0582 138.508 19.8003 138.137 20.4429C137.762 21.0888 137.224 21.6254 136.577 21.9993C135.933 22.3704 135.19 22.5692 134.446 22.5692C133.703 22.5692 132.96 22.3704 132.316 21.9993C131.669 21.6254 131.131 21.0888 130.756 20.4429C130.383 19.7961 130.186 19.0628 130.185 18.3162C130.185 17.574 130.384 16.8322 130.756 16.1896C131.131 15.5435 131.669 15.0069 132.316 14.633C132.96 14.2621 133.703 14.0633 134.446 14.0633C135.19 14.0633 135.933 14.2621 136.577 14.633C137.221 15.0039 137.765 15.5471 138.137 16.1896C138.51 16.8364 138.707 17.5696 138.708 18.3162Z" fill="#170605"/>
</g>
<defs>
<clipPath id="clip0_118_13210">
<rect width="138.89" height="50.2783" fill="white" transform="translate(0.55481 0.86084)"/>
</clipPath>
</defs>
</svg>
