<svg width="85" height="38" viewBox="0 0 85 38" fill="none" xmlns="http://www.w3.org/2000/svg">
<rect x="0.433333" y="0.433333" width="83.8579" height="37.1333" rx="8.23333" stroke="#8D8584" stroke-width="0.866667"/>
<path d="M46.25 19.3125H42.5V22.05C42.5 22.1081 42.4838 22.165 42.4533 22.2144C42.4227 22.2638 42.379 22.3037 42.327 22.3296C42.275 22.3556 42.2168 22.3665 42.159 22.3612C42.1011 22.3559 42.0459 22.3346 41.9995 22.2997L40.9375 21.5L39.8755 22.2997C39.8291 22.3346 39.7739 22.3559 39.716 22.3612C39.6582 22.3665 39.6 22.3556 39.548 22.3296C39.496 22.3037 39.4523 22.2638 39.4217 22.2144C39.3912 22.165 39.375 22.1081 39.375 22.05V19.3125H35.625C35.2936 19.3129 34.9758 19.4447 34.7415 19.679C34.5072 19.9133 34.3754 20.2311 34.375 20.5625V23.6647L35.2786 23.3631C36.2395 23.0443 37.2772 23.0416 38.2397 23.3555C38.2397 23.3555 42.1564 24.6387 42.1688 24.6433C42.8487 24.8857 43.4165 25.3682 43.7652 26.0001L47.2177 25.488C47.3102 25.4743 47.4052 25.4721 47.5 25.4671V20.5625C47.4997 20.2311 47.3679 19.9134 47.1335 19.679C46.8992 19.4447 46.5814 19.3129 46.25 19.3125V19.3125Z" fill="#170605"/>
<path d="M49.2651 27.8235C49.1256 27.4557 48.865 27.1464 48.5261 26.9466C48.1872 26.7469 47.7904 26.6687 47.4011 26.7248L42.8726 27.3961C42.8686 27.049 42.758 26.7115 42.5558 26.4293C42.3536 26.1471 42.0696 25.9339 41.7422 25.8185L37.8506 24.5432C37.1431 24.313 36.3806 24.3151 35.6744 24.5491L33.1169 25.4026C33.1202 25.4558 33.125 25.5087 33.125 25.5628V31.1878C33.124 31.3051 33.1148 31.4223 33.0974 31.5384L34.913 31.2343C35.1283 31.1983 35.3495 31.2315 35.5447 31.3293L37.4627 32.2883C37.9762 32.5468 38.5358 32.7008 39.1091 32.7416C39.6825 32.7823 40.2583 32.709 40.8031 32.5257L48.1977 30.0608C48.4172 29.9876 48.6197 29.8709 48.7931 29.7177C48.9665 29.5644 49.1072 29.3778 49.2069 29.169C49.3065 28.9601 49.3631 28.7333 49.3731 28.5021C49.3831 28.2709 49.3464 28.0401 49.2652 27.8234L49.2651 27.8235Z" fill="#170605"/>
<path d="M30.625 24.3125H30C29.3096 24.3125 28.75 24.8721 28.75 25.5625V31.1875C28.75 31.8779 29.3096 32.4375 30 32.4375H30.625C31.3153 32.4375 31.875 31.8779 31.875 31.1875V25.5625C31.875 24.8721 31.3153 24.3125 30.625 24.3125Z" fill="#170605"/>
<path d="M48.5745 15.875H42.1084C41.467 15.8749 40.8487 15.6354 40.3746 15.2033C39.9006 14.7713 39.6049 14.1778 39.5454 13.5391C39.486 12.9005 39.6671 12.2626 40.0533 11.7505C40.4395 11.2383 41.0029 10.8888 41.6333 10.7703L45.7531 9.99795C45.8539 9.97754 45.9482 9.93292 46.0279 9.86795C46.1076 9.80298 46.1703 9.7196 46.2105 9.625H35.625C35.2936 9.62536 34.9758 9.75717 34.7415 9.9915C34.5072 10.2258 34.3754 10.5436 34.375 10.875V16.1875C34.3754 16.5189 34.5072 16.8366 34.7415 17.071C34.9758 17.3053 35.2936 17.4371 35.625 17.4375H48.75C49.0814 17.4371 49.3991 17.3053 49.6335 17.071C49.8678 16.8366 49.9996 16.5189 50 16.1875V15.6844C49.535 15.809 49.0559 15.8731 48.5745 15.875V15.875Z" fill="#170605"/>
<path d="M51.8745 12.7502V7.1252C51.8747 7.03375 51.8799 6.94239 51.8902 6.85151L45.2158 5.36727C44.2259 5.13315 43.1853 5.25187 42.2736 5.70296L39.8383 6.81946C39.2676 7.10585 38.7659 7.51295 38.3682 8.01255L38.0801 8.37524H47.1067C47.2071 8.37528 47.3061 8.39953 47.3952 8.44592C47.4843 8.49231 47.5609 8.55948 47.6185 8.64175C47.6761 8.72402 47.7131 8.81897 47.7263 8.91855C47.7394 9.01813 47.7284 9.11942 47.6941 9.21383L47.3994 10.0247C47.2874 10.3305 47.098 10.6019 46.8498 10.8126C46.6015 11.0233 46.3029 11.166 45.983 11.2268L41.8639 11.9991C41.5391 12.0594 41.2485 12.239 41.0493 12.5026C40.8501 12.7661 40.7566 13.0947 40.7872 13.4236C40.8177 13.7526 40.9702 14.0583 41.2146 14.2806C41.459 14.5029 41.7777 14.6258 42.108 14.6253H48.574C49.1897 14.6261 49.7985 14.4962 50.3602 14.2439L51.9949 13.5144C51.9152 13.2675 51.8745 13.0096 51.8745 12.7502V12.7502Z" fill="#170605"/>
<path d="M53.125 12.75C53.1254 13.0814 53.2572 13.3991 53.4915 13.6335C53.7258 13.8678 54.0436 13.9996 54.375 14H55C55.3314 13.9996 55.6491 13.8678 55.8835 13.6335C56.1178 13.3991 56.2496 13.0814 56.25 12.75V7.12498C56.2496 6.79357 56.1178 6.47584 55.8835 6.2415C55.6491 6.00717 55.3314 5.87536 55 5.875H54.375C54.0436 5.87536 53.7259 6.00717 53.4916 6.2415C53.2572 6.47584 53.1254 6.79357 53.1251 7.12498" fill="#170605"/>
</svg>
