<svg width="150" height="68" viewBox="0 0 150 68" fill="none" xmlns="http://www.w3.org/2000/svg">
<path fill-rule="evenodd" clip-rule="evenodd" d="M20.0678 18.8969C16.8158 20.5576 14.3949 22.2867 12.5957 24.1544C9.68995 27.2679 8.0293 30.7962 8.0293 33.9789C8.0293 34.5322 8.09856 35.1556 8.16781 35.6396C8.8604 38.9609 9.96698 40.6208 11.4199 41.9359C14.3256 44.6339 17.7154 44.8409 17.8539 44.8409C18.2694 44.8409 18.6842 44.5646 18.6842 44.0798C18.6842 43.595 18.408 43.3872 18.0617 43.318C17.9232 43.2487 15.917 42.9032 14.0493 40.2052C13.219 39.1671 12.458 37.7142 12.1117 34.5315C11.4199 29.3425 15.2944 23.3233 21.1744 20.2105C25.4638 17.8581 31.2753 17.097 36.7405 17.9273C42.2749 18.8962 45.0429 20.2105 48.4327 23.6003C51.684 26.9216 53.8287 32.5946 53.8287 37.9905C53.8287 38.2668 53.8287 38.5446 53.7602 38.7523C53.6909 41.6573 52.9983 47.1241 49.4008 51.8282C45.1807 57.5012 38.1241 60.3384 28.5765 60.3384C24.5634 60.3384 20.7581 60.4077 18.2679 60.477C25.6708 56.6716 30.3749 45.8097 33.9732 37.6458C34.9413 35.2933 35.8409 33.2187 36.6712 31.6958C40.5458 24.3621 44.9729 24.0851 45.1114 24.0851C45.4569 24.0851 45.734 23.7388 45.734 23.4625C45.734 23.0478 45.3885 22.7707 45.1114 22.7707C44.6959 22.7707 39.2307 22.2175 33.4192 27.6827C31.2745 29.6888 29.4061 32.7331 27.8147 36.6077C25.0474 43.3872 22.7642 48.6454 20.8958 52.243C19.443 55.1487 17.6446 58.193 15.4306 59.2996C12.9397 60.6139 10.1032 60.4762 10.1032 60.4762C10.0339 60.4762 9.61835 60.4762 9.3421 60.7524C9.20358 60.891 9.06584 61.0979 9.06584 61.4442C9.06584 61.859 9.20436 62.1368 9.3421 62.2746C9.61835 62.4823 9.89539 62.4823 10.0339 62.4823C10.1032 62.4823 15.4306 62.6209 28.9905 62.6209C40.475 62.6209 48.9844 59.9229 54.2426 54.6647C59.1546 49.8905 60.1927 43.8713 60.1927 39.7204C60.1927 33.7019 57.7709 27.6134 53.6201 23.4618C48.8467 18.6884 44.418 16.7507 36.8774 15.9212C31.206 15.3679 24.9105 16.4752 20.0678 18.8969ZM78.0435 31.8343H78.1135C70.7106 31.8343 62.9622 38.6831 60.7483 47.0548C59.5724 51.5519 60.195 55.9106 62.4782 58.8163C64.3458 61.2372 67.1138 62.5524 70.2958 62.5524C77.6287 62.5524 85.4471 55.7028 87.6603 47.3311C88.8369 42.7654 88.2151 38.4761 85.9319 35.5011C84.0635 33.1486 81.2963 31.8343 78.0435 31.8343ZM67.7356 60.1307C66.836 59.7151 66.2135 58.8848 65.868 57.709C64.7606 54.3884 65.7295 49.061 68.2196 44.1491C71.6787 37.2302 77.6279 32.5953 80.8107 34.2552C81.6402 34.6708 82.1951 35.4318 82.6099 36.6077C83.648 39.9282 82.6783 45.2549 80.1889 50.2368C76.5921 57.2249 70.9176 61.7913 67.7356 60.1307ZM131.593 32.1798C127.166 32.3183 118.587 35.2925 114.298 46.086C112.013 51.8282 113.051 55.5643 114.366 57.7782C116.234 60.8217 119.346 62.2053 121.631 62.4823C130.278 63.4504 137.058 52.6577 137.267 52.3122C137.474 51.9667 137.405 51.3442 136.852 50.9987C136.228 50.6524 135.675 50.9286 135.467 51.2749C135.467 51.3442 129.587 60.5454 122.739 60.4069C120.041 60.3377 118.726 58.6078 118.518 54.8725V54.3884C118.518 52.1737 119.21 49.8913 119.556 49.0602C121.839 49.1987 133.531 49.6135 137.544 41.3118C138.582 39.0979 138.582 36.8847 137.405 35.0855C136.228 33.2179 134.014 32.1798 131.593 32.1798ZM130.071 34.3937C131.385 33.9097 132.492 34.0482 133.46 34.6708C134.013 35.0163 134.429 35.5703 134.498 36.2614C134.706 37.3687 134.359 39.3749 131.661 42.8339C128.064 47.3303 122.251 47.1925 120.384 47.054C123.291 39.1679 127.303 35.2925 130.071 34.3937Z" fill="#28539C"/>
<path fill-rule="evenodd" clip-rule="evenodd" d="M107.309 32.8018C107.1 33.148 106.962 33.5636 106.962 33.9091C106.962 34.3247 107.101 34.6702 107.309 35.0157C107.655 35.4312 108.208 35.5005 108.623 35.5005C108.692 35.5005 108.899 35.5005 109.038 35.5698C110.629 36.1231 111.183 38.4062 111.253 40.5509C111.321 41.7268 110.768 45.8091 110.144 47.192C106.408 55.3559 100.598 60.9596 96.3775 60.3379C95.548 60.1993 95.0632 59.853 94.7861 59.2998C93.8181 57.4321 95.0624 53.1428 98.0374 47.4698C98.8685 45.9476 102.812 38.1992 100.46 34.1169C99.6981 32.664 98.2452 31.9029 96.169 31.7652C90.2197 31.4197 87.9373 35.7083 87.7988 35.9161C87.6587 36.2616 87.6587 36.7456 88.0751 37.0927C88.6284 37.5074 89.1116 37.2312 89.3202 37.0234C89.3902 36.9542 92.3644 33.3566 95.2009 33.9792C95.4772 34.0484 95.6157 34.1177 95.6857 34.3939C96.6538 36.6771 92.9862 44.2185 91.8111 46.6395C90.703 48.9911 87.7988 55.91 90.2882 59.7153C91.3964 61.5145 93.4025 62.4141 96.2382 62.4833C106.478 62.7596 113.05 46.8472 113.95 42.5586C113.95 42.3509 115.333 36.5394 113.258 33.5644C112.566 32.5263 111.597 31.973 110.421 31.7652C108.415 31.4882 107.586 32.3185 107.309 32.8018ZM139.479 54.8034H139.757C140.172 54.8034 140.586 54.8034 140.586 55.2874C140.586 55.5637 140.31 55.8407 139.963 55.8407H139.478V54.8034H139.479ZM139.203 57.2243H139.479V56.0477H139.895L140.725 57.2243H141.07L140.24 56.0477C140.449 55.9785 140.863 55.7715 140.863 55.2867C140.863 54.9411 140.725 54.8026 140.517 54.6641C140.379 54.5248 140.102 54.5248 139.757 54.5248H139.202V57.2243H139.203ZM139.964 53.696C138.787 53.696 137.888 54.6649 137.888 55.91C137.888 57.1559 138.787 58.1247 139.964 58.1247C141.07 58.1247 141.97 57.1559 141.97 55.91C141.971 54.6649 141.07 53.696 139.964 53.696ZM139.964 53.903C140.932 53.903 141.762 54.8026 141.762 55.9092C141.762 57.0166 140.933 57.9154 139.964 57.9154C138.926 57.9154 138.165 57.0166 138.165 55.9092C138.166 54.8034 138.926 53.903 139.964 53.903Z" fill="#28539C"/>
<path fill-rule="evenodd" clip-rule="evenodd" d="M69.9492 20.0031C69.9492 20.0031 74.9996 21.94 80.9489 25.1913C90.5649 30.588 98.5219 30.5188 103.019 24.154C105.993 20.0031 108.346 15.1597 112.359 13.5683C112.359 13.5683 111.735 13.0843 111.391 12.6687C110.56 11.8392 109.385 10.9396 108.138 10.8696C104.263 10.524 101.151 15.6437 100.045 15.0212C98.5219 14.1909 103.226 10.1778 98.1756 6.3732C92.3649 1.94533 80.1894 13.1528 72.9242 11.5614C72.9242 11.5614 76.2455 15.5745 84.1317 16.197C88.0755 16.4741 88.0062 17.3736 88.0062 17.7192C88.0763 21.6638 69.9492 20.0031 69.9492 20.0031Z" fill="#C8AE65"/>
</svg>
