<svg width="28" height="28" viewBox="0 0 28 28" fill="none" xmlns="http://www.w3.org/2000/svg">
<path d="M27.9999 10.9421H0V5.30993C0 5.04333 0.216179 4.82715 0.48278 4.82715H27.5172C27.7838 4.82715 28 5.04333 28 5.30993L27.9999 10.9421Z" fill="#FF4B55"/>
<path d="M27.5172 23.1724H0.48278C0.216179 23.1724 0 22.9562 0 22.6896V17.0575H27.9999V22.6896C27.9999 22.9563 27.7838 23.1724 27.5172 23.1724Z" fill="#464655"/>
<path d="M27.9999 10.9424H0V17.057H27.9999V10.9424Z" fill="#F5F5F5"/>
<path d="M15.5419 13.0465C15.5419 12.8071 15.3073 12.638 15.0803 12.7138L14.6535 12.856L14.5498 12.2302C14.4879 11.8569 14.168 11.5859 13.7894 11.5859H13.3902L12.9727 12.0998H13.5256L13.3708 12.8639L12.9206 12.7138C12.6935 12.6381 12.459 12.8072 12.459 13.0465V15.6428L13.0804 15.0214L12.7876 15.8997H12.459V16.4136H15.5419V15.8997H15.2134L14.9206 15.0214L15.542 15.6428V13.0465H15.5419ZM13.7436 15.8996H13.3294L13.6142 15.139L13.7436 15.3042V15.8996ZM14.2573 15.8996V15.3042L14.3867 15.139L14.6715 15.8996H14.2573ZM14.0005 14.9684C14.0005 14.9684 13.2056 14.4304 13.2378 13.4269C13.2378 13.4269 13.7276 13.3467 14.0005 12.9131C14.2734 13.3466 14.7632 13.4269 14.7632 13.4269C14.7953 14.4305 14.0005 14.9684 14.0005 14.9684Z" fill="#F0C727"/>
</svg>
