<svg width="150" height="76" viewBox="0 0 150 76" fill="none" xmlns="http://www.w3.org/2000/svg">
<path d="M76.5885 10.2218C74.3654 9.00441 71.999 9.04245 69.9194 10.3316C68.1992 11.3982 67.302 12.9113 67.0195 15.2307H79.5674C79.5383 13.0367 78.4833 11.261 76.5885 10.2218Z" fill="#AA1A8D"/>
<path d="M73.226 2.87012C65.7102 2.87012 59.6172 8.96348 59.6172 16.4783C59.6172 23.9948 65.7102 30.0882 73.226 30.0882C80.7429 30.0882 86.8356 23.9948 86.8356 16.4783C86.8359 8.96348 80.7429 2.87012 73.226 2.87012ZM82.6942 17.5853H66.9941C67.3156 20.3293 68.5747 22.1285 70.8412 23.0843C73.8409 24.349 76.7605 23.8185 79.7659 21.4614L79.838 21.4042L79.8965 21.4763C80.1264 21.762 80.3602 22.0617 80.5977 22.3673C80.8325 22.6679 81.0716 22.9748 81.3147 23.2791L81.3683 23.3459L81.3064 23.4058C79.3098 25.3108 76.7672 26.2411 73.5502 26.2411C73.3649 26.2411 73.1774 26.2385 72.9886 26.2325C70.1364 26.1412 67.6116 24.9929 65.8815 23.0003C64.1455 21 63.3551 18.3727 63.6584 15.6019C64.1197 11.3811 66.4196 8.51071 70.308 7.29891C72.9694 6.47143 75.851 6.7843 78.2115 8.16113C80.4674 9.4771 82.0049 11.5723 82.5417 14.062C82.754 15.0466 82.8546 16.1132 82.8582 17.4196C82.8582 17.5108 82.7845 17.5853 82.6942 17.5853Z" fill="#AA1A8D"/>
<path d="M103.031 41.6141C103.024 40.9871 102.842 40.2714 102.488 39.4859C101.489 37.2571 98.6191 36.1042 95.495 36.6787C93.4134 37.0646 91.6721 37.9255 90.036 39.3844V37.0633H86.9219V55.7068H90.0569V55.6132C90.0569 53.6679 90.0446 51.6739 90.0324 49.7471C90.0201 47.8438 90.0082 45.8782 90.0082 43.9835C90.0082 42.2217 90.6558 41.1323 92.1755 40.3418C92.7632 40.0362 93.384 39.8077 94.1318 39.6235C95.4577 39.2924 97.3035 39.1089 98.5506 40.0852C99.443 40.7827 99.8951 41.975 99.8951 43.6279C99.8951 45.0795 99.8908 46.5069 99.8861 47.9281C99.8815 49.4316 99.8779 50.9262 99.8779 52.4363V55.7072H103.076V55.4423V55.0642C103.075 54.0615 103.075 53.0584 103.075 52.0559C103.075 48.6339 103.075 45.0947 103.031 41.6141Z" fill="#AA1A8D"/>
<path d="M38.5507 45.255C37.9263 44.9996 37.2579 44.8128 36.6126 44.6329C36.4059 44.5743 36.1989 44.5171 35.9919 44.4562C35.4438 44.2972 34.8948 44.1437 34.3445 43.9902C33.3854 43.722 32.3945 43.4449 31.4301 43.1416C30.5133 42.8532 30.0265 42.2761 29.9852 41.4278C29.9389 40.5037 30.3394 39.8145 31.2085 39.323C32.2007 38.7588 33.3401 38.5474 34.8118 38.6701C36.8064 38.8319 38.4522 39.5621 39.8462 40.9055L39.9239 40.9806L39.9874 40.8933C40.4709 40.214 40.9088 39.5988 41.3388 38.9962L41.3828 38.9344L41.3302 38.8785C38.4145 35.7498 32.2325 35.1492 28.8468 37.6594C27.4283 38.7128 26.6908 40.2272 26.8234 41.8167C26.9573 43.4082 27.9396 44.7837 29.5198 45.5887C30.1763 45.9244 30.8933 46.1459 31.571 46.344C32.3347 46.5686 33.1148 46.7813 33.8699 46.988C34.868 47.2618 35.9003 47.5463 36.9037 47.8535C38.1528 48.2381 38.7895 48.9981 38.7978 50.1097C38.8077 51.3248 38.009 52.2975 36.7661 52.5856C35.5378 52.8726 34.2291 52.9666 32.9753 52.8607C31.2634 52.7182 29.6419 51.9307 28.0186 50.4544L27.9436 50.3862L26.3666 52.4678L26.3184 52.5307L26.3743 52.5895C28.2306 54.4992 31.3984 55.5621 34.3921 55.5621C36.1232 55.5621 37.7973 55.2069 39.1242 54.4529C41.0441 53.3634 41.9863 51.7492 41.9268 49.654C41.8669 47.6303 40.7312 46.1496 38.5507 45.255Z" fill="#AA1A8D"/>
<path d="M57.2678 45.2679C56.6388 45.0063 55.9654 44.8181 55.3142 44.6365C55.1118 44.58 54.9097 44.5227 54.7103 44.4642C54.1878 44.3121 53.6533 44.1699 53.1374 44.0323C52.084 43.7531 50.9946 43.4634 49.971 43.0741C49.2476 42.8003 48.7654 42.2539 48.6477 41.5756C48.5293 40.893 48.8108 40.1839 49.4011 39.6802C49.7775 39.3591 50.263 39.0985 50.7353 38.9668C53.3272 38.2452 55.7547 38.727 57.9399 40.3949C58.0665 40.4911 58.1919 40.5897 58.3285 40.6969L58.639 40.9386L58.6959 40.8586C59.1768 40.1789 59.6127 39.5631 60.0364 38.9635L60.0827 38.8974L60.0241 38.8425C56.8065 35.7551 51.0214 35.1648 47.6396 37.5814C46.1309 38.6589 45.3348 40.2854 45.5101 41.9311C45.6854 43.5798 46.8115 45.0053 48.522 45.7455C49.2222 46.0484 49.9792 46.2521 50.7111 46.4489C51.0531 46.5405 51.4047 46.6354 51.747 46.739C52.1816 46.8696 52.6274 46.9923 53.058 47.1114C54.0359 47.3806 55.0473 47.6581 55.9823 48.0513C56.8637 48.4201 57.4349 49.1358 57.5103 49.9675C57.5843 50.7834 57.1633 51.5732 56.3841 52.0826C55.6681 52.5489 54.6759 52.868 53.6609 52.9577C51.0958 53.1878 48.824 52.3703 46.7053 50.4633L46.6313 50.3968L44.9941 52.5039L45.0487 52.5624C46.8274 54.4909 50.0315 55.5648 53.0593 55.5648C54.9015 55.5648 56.6775 55.1666 58.0279 54.3226C59.8161 53.205 60.6826 51.6149 60.6026 49.5965C60.5259 47.6164 59.4034 46.1602 57.2678 45.2679Z" fill="#AA1A8D"/>
<path d="M123.078 51.542C122.732 51.2609 122.375 50.9712 122.023 50.6705L121.955 50.613L121.659 50.9225C121.558 51.0297 121.478 51.1137 121.396 51.1964C119.992 52.5944 118.044 53.2439 116.046 52.9833C114.093 52.7253 112.42 51.6237 111.457 49.9634C110.428 48.1821 110.168 46.1977 110.685 44.0662C111.3 41.5384 112.776 39.9608 115.073 39.3738C117.711 38.7008 119.795 39.2402 121.622 41.0645C121.68 41.1293 121.743 41.1875 121.812 41.25C121.864 41.2963 121.919 41.3463 121.977 41.4048L122.039 41.4676L122.105 41.4078C122.436 41.1098 122.778 40.8188 123.109 40.5363C123.446 40.2479 123.764 39.9764 124.069 39.6999L124.134 39.6417L124.082 39.5732C122.398 37.4109 120.125 36.6711 118.514 36.4313C116.527 36.134 114.365 36.425 112.577 37.23C108.289 39.1595 106.159 44.096 107.512 48.9669C108.672 53.1474 112.333 55.7575 116.941 55.7575C117.169 55.7575 117.402 55.7505 117.636 55.7376C120.288 55.5905 122.465 54.506 124.107 52.513L124.166 52.4426L124.097 52.3824C123.765 52.1003 123.43 51.8284 123.078 51.542Z" fill="#AA1A8D"/>
<path d="M145.612 43.3569C145.077 40.8685 143.538 38.7733 141.283 37.4573C138.923 36.0792 136.043 35.7663 133.378 36.5931C129.488 37.8043 127.19 40.6747 126.729 44.8958C126.426 47.6666 127.216 50.2936 128.952 52.2939C130.682 54.2872 133.206 55.4361 136.059 55.5277C136.247 55.5334 136.435 55.5357 136.62 55.5357C139.839 55.5357 142.381 54.6057 144.377 52.7007L144.439 52.6405L144.386 52.5737C144.136 52.2634 143.893 51.9516 143.654 51.6436C143.42 51.3457 143.192 51.051 142.967 50.7712L142.908 50.6988L142.836 50.7563C139.833 53.1147 136.916 53.6475 133.913 52.3789C131.646 51.4244 130.387 49.6239 130.064 46.8798H145.764C145.854 46.8798 145.929 46.8057 145.929 46.7141C145.926 45.4147 145.825 44.3481 145.612 43.3569ZM130.092 44.5257C130.374 42.2063 131.271 40.6932 132.993 39.6259C135.072 38.3387 137.439 38.304 139.661 39.5175C141.556 40.5559 142.612 42.332 142.641 44.526H130.092V44.5257Z" fill="#AA1A8D"/>
<path d="M78.2626 37.4573C75.9019 36.0792 73.0202 35.7663 70.3592 36.5931C66.4698 37.8043 64.1702 40.6747 63.7099 44.8958C63.4069 47.6666 64.197 50.2949 65.933 52.2952C67.6641 54.2882 70.1865 55.4361 73.0391 55.5277C73.2276 55.5334 73.4154 55.5357 73.6 55.5357C76.8193 55.5357 79.361 54.6057 81.3576 52.7007L81.4198 52.6405L81.3665 52.5737C81.1228 52.2707 80.8846 51.9638 80.6492 51.6618C80.4104 51.3576 80.1769 51.0569 79.947 50.7712L79.8881 50.6988L79.8164 50.7563C76.8117 53.1147 73.896 53.6475 70.8926 52.3789C68.6258 51.4231 67.3671 49.6239 67.0456 46.8798H82.7443C82.8353 46.8798 82.91 46.8057 82.91 46.7141C82.9057 45.4068 82.8052 44.3402 82.5919 43.3569C82.0561 40.8685 80.5185 38.7733 78.2626 37.4573ZM67.072 44.5257C67.3535 42.2076 68.2504 40.6932 69.9722 39.6259C72.0515 38.3387 74.4205 38.304 76.6404 39.5175C78.5351 40.5559 79.5912 42.332 79.6203 44.526H67.072V44.5257Z" fill="#AA1A8D"/>
<path d="M18.6888 37.4573C16.3281 36.0792 13.4451 35.7663 10.7851 36.5931C6.89568 37.8043 4.59611 40.6747 4.13574 44.8958C3.83246 47.6666 4.6229 50.2949 6.3589 52.2952C8.08994 54.2882 10.6124 55.4361 13.465 55.5277C13.6535 55.5334 13.841 55.5357 14.0259 55.5357C17.2452 55.5357 19.7868 54.6057 21.7835 52.7007L21.8456 52.6405L21.7921 52.5737C21.5483 52.2707 21.3099 51.9638 21.075 51.6618C20.8363 51.3576 20.6024 51.0569 20.3726 50.7712L20.314 50.6988L20.2423 50.7563C17.2376 53.1147 14.3219 53.6475 11.3185 52.3789C9.0517 51.4231 7.79294 49.6239 7.47147 46.8798H23.1702C23.2615 46.8798 23.3359 46.8057 23.3359 46.7141C23.3319 45.4068 23.2311 44.3402 23.0181 43.3569C22.4823 40.8685 20.9447 38.7733 18.6888 37.4573ZM7.49826 44.5257C7.77972 42.2076 8.67665 40.6932 10.3984 39.6259C12.4777 38.3387 14.8454 38.304 17.0659 39.5175C18.9613 40.5559 20.017 42.332 20.0461 44.526H7.49826V44.5257Z" fill="#AA1A8D"/>
<path d="M35.0308 69.965C34.8115 71.0306 33.8712 73.13 30.9099 73.13C27.9641 73.13 26.3184 71.3596 26.3184 68.8054C26.3184 66.361 27.8228 64.4805 30.9099 64.4805C33.6989 64.4805 34.7801 66.2201 34.9683 67.3949H33.8087C33.4482 66.0005 32.3512 65.4518 30.9099 65.4518C28.5749 65.4518 27.4782 66.9252 27.4782 68.8054C27.4782 70.8265 28.7003 72.1587 30.9099 72.1587C32.6178 72.1587 33.5736 71.234 33.8712 69.965H35.0308Z" fill="#AA1A8D"/>
<path d="M42.773 64.4805C45.907 64.4805 47.3956 66.5333 47.3956 68.8054C47.3956 71.0775 45.907 73.13 42.773 73.13C39.639 73.13 38.1504 71.0775 38.1504 68.8054C38.1504 66.5333 39.6393 64.4805 42.773 64.4805ZM42.773 72.158C44.9667 72.158 46.2361 70.7637 46.2361 68.8051C46.2361 66.8462 44.9667 65.4518 42.773 65.4518C40.5793 65.4518 39.3099 66.8462 39.3099 68.8051C39.3099 70.764 40.5793 72.158 42.773 72.158Z" fill="#AA1A8D"/>
<path d="M57.0792 67.1438C56.7815 65.8279 55.9666 65.4522 54.2746 65.4522C53.0522 65.4522 51.9241 65.7184 51.9241 66.8468C51.9241 67.6928 52.4721 67.8652 54.9483 68.1946C57.4396 68.5233 58.4738 68.9619 58.4738 70.5444C58.4738 72.158 57.1575 73.13 54.6036 73.13C52.0177 73.13 50.4824 72.2834 50.4824 70.3251H51.5477C51.7518 71.6884 52.5194 72.158 54.6036 72.158C56.2176 72.158 57.3143 71.8293 57.3143 70.6076C57.3143 69.793 56.7345 69.4322 54.1959 69.1815C51.6575 68.9308 50.7642 68.3355 50.7642 66.8935C50.7642 65.4836 51.9082 64.4805 54.2746 64.4805C56.9224 64.4805 58.0039 65.4369 58.1448 67.1442H57.0792V67.1438Z" fill="#AA1A8D"/>
<path d="M74.5676 67.7082C74.5676 66.2193 73.8155 65.452 72.1387 65.452C70.3524 65.452 69.3652 66.4862 69.3652 68.0691V72.8792H68.2057V67.3633C68.2057 66.3291 67.4691 65.452 65.8866 65.452C64.2253 65.452 63.0033 66.4078 63.0033 68.288V72.8792H61.8438V64.7307H63.0033V66.2355H63.0347C63.5205 65.3733 64.398 64.48 66.263 64.48C68.0962 64.48 68.9422 65.4517 69.177 66.2666C69.5689 65.4517 70.744 64.48 72.3735 64.48C74.6615 64.48 75.7271 65.6395 75.7271 67.3163V72.8789H74.5679V67.7082H74.5676Z" fill="#AA1A8D"/>
<path d="M88.1702 70.2778C87.6999 71.7195 86.4772 73.1297 83.7821 73.1297C80.4444 73.1297 79.3477 70.7951 79.3477 68.8054C79.3477 66.5333 80.7423 64.4805 83.7821 64.4805C85.8822 64.4805 88.3733 65.3893 88.3733 69.0872H80.5075C80.5075 70.7795 81.7137 72.158 83.7821 72.158C85.7251 72.158 86.6025 71.5157 87.01 70.2778H88.1702ZM87.2137 68.2094C86.8847 66.2042 85.4122 65.4515 83.8601 65.4515C82.3715 65.4515 80.7734 66.2191 80.5072 68.2094H87.2137Z" fill="#AA1A8D"/>
<path d="M92.6848 62.1611H93.844V64.7312H96.1482V65.6087H93.844V70.9992C93.844 71.7043 94.0636 72.0331 95.0042 72.0331C95.5678 72.0331 95.9286 71.9858 96.1482 71.9391V72.9105C95.7093 72.9733 95.2552 73.0048 94.8785 73.0048C93.0767 73.0048 92.6848 72.2996 92.6848 70.9837V65.609H90.9141V64.7316H92.6848V62.1611Z" fill="#AA1A8D"/>
<path d="M99.502 61.5972H100.662V63.3209H99.502V61.5972ZM99.502 64.7308H100.662V72.8793H99.502V64.7308Z" fill="#AA1A8D"/>
<path d="M112.819 69.965C112.6 71.0306 111.66 73.13 108.698 73.13C105.753 73.13 104.107 71.3596 104.107 68.8054C104.107 66.361 105.612 64.4805 108.698 64.4805C111.488 64.4805 112.569 66.2201 112.757 67.3949H111.597C111.237 66.0005 110.14 65.4518 108.698 65.4518C106.363 65.4518 105.267 66.9252 105.267 68.8054C105.267 70.8265 106.489 72.1587 108.698 72.1587C110.406 72.1587 111.362 71.234 111.66 69.965H112.819Z" fill="#AA1A8D"/>
<path d="M122.286 67.1438C121.989 65.8279 121.174 65.4522 119.481 65.4522C118.259 65.4522 117.13 65.7184 117.13 66.8468C117.13 67.6928 117.679 67.8652 120.155 68.1946C122.646 68.5233 123.68 68.9619 123.68 70.5444C123.68 72.158 122.364 73.13 119.811 73.13C117.225 73.13 115.689 72.2834 115.689 70.3251H116.755C116.959 71.6884 117.726 72.158 119.811 72.158C121.424 72.158 122.521 71.8293 122.521 70.6076C122.521 69.793 121.941 69.4322 119.403 69.1815C116.864 68.9308 115.971 68.3355 115.971 66.8935C115.971 65.4836 117.115 64.4805 119.481 64.4805C122.129 64.4805 123.21 65.4369 123.351 67.1442H122.286V67.1438Z" fill="#AA1A8D"/>
</svg>
