<svg width="43" height="44" viewBox="0 0 43 44" fill="none" xmlns="http://www.w3.org/2000/svg">
<path d="M10.9938 8.39746C11.8155 8.39746 12.2865 9.33336 11.797 9.99324L1.80314 23.4654C1.229 24.2394 0 23.8333 0 22.8696V9.39746C0 8.84518 0.447715 8.39746 1 8.39746H10.9938Z" fill="#B81B34"/>
<path d="M14.9926 22.6826C14.5034 23.0926 14.5182 23.8497 15.0231 24.2401L37.9619 41.9791C38.7162 42.5624 38.3037 43.7701 37.3502 43.7701H19.9074C19.5482 43.7701 19.2165 43.5774 19.0386 43.2652L8.39055 24.58C8.18777 24.2241 8.22247 23.7806 8.47812 23.4606L26.9227 0.375787C27.1124 0.138286 27.3999 0 27.7039 0H39.3111C40.245 0 40.6692 1.16663 39.9533 1.76647L14.9926 22.6826Z" fill="#B81B34"/>
</svg>
