<svg width="85" height="38" viewBox="0 0 85 38" fill="none" xmlns="http://www.w3.org/2000/svg">
<rect x="0.433333" y="0.433333" width="83.8579" height="37.1333" rx="8.23333" stroke="#8D8584" stroke-width="0.866667"/>
<g clip-path="url(#clip0_204_8189)">
<path d="M50.3711 20.2799C50.5332 19.7626 50.6722 19.2453 50.8343 18.7049C51.035 18.0255 51.2203 17.3615 51.4288 16.6898C51.5755 16.2111 51.8148 16.0258 52.3089 16.0258C52.6563 16.0258 53.0038 16.0258 53.3435 16.0258C53.7913 16.0258 54.0538 16.2111 54.1773 16.6435C54.5093 17.7398 54.8258 18.8516 55.1424 19.9479C55.1733 20.0483 55.2119 20.1641 55.2891 20.2644C55.3431 20.0946 55.3894 19.9325 55.4512 19.7626C55.7369 18.7821 56.0302 17.7861 56.3313 16.8056C56.5012 16.2266 56.7946 16.0104 57.3813 16.0104C57.7597 16.0104 58.1302 16.0104 58.4931 16.0104C58.8097 16.0104 58.9409 16.1571 58.8714 16.4582C58.7711 16.8442 58.6398 17.238 58.524 17.6086C57.9604 19.3689 57.3813 21.1446 56.8255 22.8972C56.6633 23.3758 56.3622 23.5766 55.8758 23.592C55.6056 23.592 55.3277 23.592 55.0574 23.592C54.571 23.592 54.2468 23.3604 54.1078 22.8972C53.7218 21.6464 53.3126 20.388 52.9266 19.1372C52.9111 19.0678 52.8802 19.006 52.8416 18.8747C52.7953 18.9905 52.7876 19.0446 52.7567 19.1064C52.3552 20.3571 51.9615 21.631 51.56 22.8817C51.4133 23.3604 51.0968 23.5766 50.5949 23.5766C50.3093 23.5766 50.0313 23.5766 49.7457 23.5766C49.2824 23.5766 48.9813 23.345 48.8347 22.9126C48.217 20.9979 47.6071 19.0909 46.9894 17.1762C46.9354 16.9755 46.8582 16.7902 46.8041 16.5817C46.7733 16.4814 46.7578 16.381 46.7578 16.2806C46.7578 16.0799 46.8582 15.9795 47.0589 15.9795C47.5222 15.9795 47.9699 15.9641 48.4255 15.9795C48.8424 15.995 49.1435 16.242 49.2747 16.6435C49.6067 17.7707 49.9387 18.8902 50.2861 20.0174C50.3016 20.0869 50.3324 20.1486 50.3402 20.2181C50.3324 20.2799 50.3479 20.2799 50.3711 20.2799Z" fill="#006E9C"/>
<path d="M43.8854 23.0203C43.7696 23.0898 43.6692 23.1516 43.5689 23.2056C42.8509 23.6534 42.0402 23.8001 41.2064 23.7692C40.6582 23.7383 40.1409 23.6534 39.6314 23.4218C38.7203 23.0049 38.2185 22.2251 38.2494 21.2986C38.2803 20.2641 38.813 19.5847 39.7626 19.2064C40.2645 19.0056 40.7972 18.9207 41.3453 18.9207C42.0556 18.9207 42.7737 18.9207 43.4762 18.9207C43.6615 18.9207 43.7079 18.8666 43.6924 18.6891C43.592 17.8089 43.2292 17.4615 42.3336 17.4615C41.9707 17.4615 41.6233 17.5078 41.3067 17.6777C41.1909 17.7472 41.0751 17.8398 40.9748 17.9402C40.7586 18.1872 40.4961 18.303 40.1795 18.303C39.8784 18.303 39.5773 18.303 39.2685 18.303C38.9056 18.303 38.7512 18.1177 38.7821 17.7549C38.8362 17.0446 39.2145 16.5891 39.8476 16.2957C40.3648 16.0641 40.913 15.9791 41.4766 15.9174C42.2564 15.8633 43.0362 15.8325 43.8005 16.0332C44.6343 16.2339 45.3137 16.6508 45.7152 17.4461C45.9314 17.8784 46.0163 18.3262 46.0163 18.8049C46.0163 20.2486 46.0163 21.6924 46.0163 23.1439C46.0163 23.4913 45.8696 23.6225 45.5376 23.6225C45.1593 23.6225 44.7887 23.6225 44.4259 23.6225C44.0476 23.6225 43.924 23.5067 43.9086 23.1207C43.9009 23.1052 43.9009 23.0744 43.8854 23.0203ZM42.5189 20.4957C42.1715 20.5111 41.8086 20.4957 41.4689 20.5111C41.1215 20.5266 40.8358 20.681 40.6737 21.013C40.442 21.4994 40.7277 22.0398 41.2913 22.1556C42.1406 22.3255 42.9049 22.0552 43.6306 21.6229C43.677 21.592 43.7001 21.5071 43.7001 21.4376C43.7156 21.1905 43.7001 20.9358 43.7001 20.6887C43.7001 20.542 43.6461 20.5034 43.5148 20.5034C43.1751 20.4957 42.8509 20.4957 42.5189 20.4957Z" fill="#006E9C"/>
<path d="M70.2272 23.0591C69.9956 23.0282 69.7949 23.0128 69.6096 22.9742C68.9611 22.8584 68.4438 22.5264 68.0346 22.0091C67.5868 21.4301 67.3166 20.7815 67.1004 20.1021C66.7221 18.9054 66.367 17.7088 66.0195 16.5121C65.9346 16.2264 66.0658 16.0488 66.367 16.0488C66.7993 16.0488 67.2471 16.0488 67.6795 16.0488C68.0269 16.0488 68.2585 16.2187 68.3589 16.5661C68.6909 17.6315 69.0074 18.697 69.3394 19.7702C69.4706 20.2025 69.6405 20.6194 69.9339 20.9823C70.0883 21.1676 70.2813 21.3143 70.5284 21.3606C70.675 21.3915 70.7445 21.3606 70.7909 21.1985C71.1769 19.7856 71.5706 18.3727 71.9567 16.9599C72.003 16.8132 72.0416 16.6588 72.0879 16.5121C72.1728 16.211 72.389 16.0488 72.7056 16.0488C73.1379 16.0488 73.5703 16.0488 74.0026 16.0488C74.3346 16.0488 74.4659 16.2187 74.3809 16.5275C73.7633 18.7742 73.1534 21.0441 72.5203 23.2907C72.3736 23.808 72.142 24.3176 71.9026 24.7885C71.4394 25.6687 70.675 26.1319 69.6791 26.1165C69.0769 26.1165 68.467 26.047 67.8647 25.9698C67.5636 25.9389 67.4324 25.769 67.4324 25.4679C67.4324 25.2363 67.4324 25.0202 67.4324 24.7885C67.4324 24.5183 67.5945 24.3562 67.8647 24.3562C68.1504 24.3716 68.4592 24.4025 68.7449 24.4411C69.1618 24.5106 69.5247 24.3948 69.7949 24.0782C69.9956 23.8003 70.1269 23.4529 70.2272 23.0591Z" fill="#006E9C"/>
<path d="M32.4509 19.8162C32.4509 18.7199 32.42 17.639 32.4663 16.5427C32.4818 16.1103 32.5821 15.6625 32.7134 15.2456C32.9991 14.3809 33.6785 13.9331 34.5277 13.7324C35.4619 13.5008 36.4193 13.5162 37.3689 13.6011C37.616 13.6166 37.8553 13.6552 38.0869 13.7015C38.388 13.7556 38.5193 13.9177 38.5193 14.2188C38.5193 14.435 38.5193 14.6357 38.5193 14.8519C38.5038 15.153 38.3571 15.3151 38.0406 15.3151C37.8244 15.3151 37.6082 15.2997 37.3921 15.2611C36.813 15.1453 36.2417 15.1916 35.6781 15.3306C35.1299 15.4618 34.8674 15.7938 34.798 16.4269C34.7671 16.6122 34.7671 16.8129 34.7516 17.0059C34.7362 17.1758 34.798 17.2375 34.9832 17.2375C35.6935 17.2221 36.4116 17.2375 37.1141 17.2375C37.4924 17.2375 37.616 17.3688 37.6314 17.7394C37.6314 17.971 37.6314 18.2026 37.6314 18.4342C37.6314 18.7353 37.4693 18.8975 37.1527 18.8975C36.4347 18.8975 35.6935 18.8975 34.9755 18.8975C34.8057 18.8975 34.7439 18.9515 34.7439 19.1291C34.7439 20.457 34.7439 21.785 34.7439 23.1206C34.7439 23.5221 34.6127 23.6533 34.2112 23.6533C33.7943 23.6533 33.3619 23.6533 32.945 23.6533C32.559 23.6533 32.4277 23.5221 32.4277 23.1361C32.4355 22.0089 32.4355 20.9125 32.4509 19.8162Z" fill="#006E9C"/>
<path d="M62.199 16.8895C62.4151 16.7428 62.5773 16.627 62.7317 16.5266C63.4806 16.0402 64.3144 15.8936 65.1945 15.8936C65.4416 15.8936 65.596 16.0557 65.6115 16.3105C65.6269 16.6579 65.6269 17.0208 65.6115 17.3605C65.596 17.6307 65.4493 17.7774 65.1791 17.7774C64.8626 17.7774 64.5306 17.7774 64.214 17.7465C63.5809 17.6925 63.0637 17.9163 62.585 18.341C62.2993 18.6035 62.1681 18.8737 62.1835 19.2752C62.2144 20.5414 62.199 21.8152 62.199 23.0969C62.199 23.4983 62.0677 23.6296 61.6508 23.6296C61.203 23.6296 60.7706 23.6296 60.3229 23.6296C60.0218 23.6296 59.8596 23.4675 59.8596 23.1663C59.8596 20.9428 59.8596 18.727 59.8596 16.5035C59.8596 16.2024 60.0218 16.0402 60.3229 16.0402C60.8015 16.0402 61.2725 16.0402 61.7512 16.0402C62.0368 16.0402 62.1835 16.2024 62.199 16.488C62.199 16.6038 62.199 16.7197 62.199 16.8895Z" fill="#006E9C"/>
<path d="M28.8307 19.762C28.8307 24.734 24.8082 28.7565 19.8362 28.7565C18.8866 28.7565 17.9755 28.6098 17.1263 28.3395C15.8446 27.9381 14.6788 27.2432 13.706 26.3322C11.9303 24.7032 10.834 22.3561 10.834 19.7543C10.834 14.7822 14.8564 10.7598 19.8285 10.7598C20.9094 10.7598 21.9362 10.9451 22.8858 11.2925C24.1288 11.7403 25.2483 12.4583 26.1593 13.3693C27.8116 15.0138 28.8307 17.2682 28.8307 19.762Z" fill="#FFD200"/>
<path d="M24.0061 23.5838L22.794 22.9816C22.794 22.9816 20.7326 26.7415 17.1116 28.3474C15.83 27.9459 14.6642 27.2511 13.6914 26.34C14.4866 26.2242 15.7682 25.8228 17.1116 24.4948C19.3197 22.333 19.8216 21.1364 19.8216 21.1364L18.8719 20.5033C18.5399 20.2871 18.6094 19.793 18.9723 19.6694L23.126 18.2257C23.4116 18.1253 23.7205 18.3106 23.7436 18.6117L24.3613 23.3136C24.423 23.522 24.2068 23.6841 24.0061 23.5838Z" fill="#006E9C"/>
<path d="M25.2562 18.372C25.1558 18.6345 24.7775 18.5882 24.7389 18.318L24.4687 16.7353L22.4227 17.3684C22.1911 17.4379 21.9904 17.2062 22.0907 16.9901C22.3609 16.411 22.7547 15.4459 23.0712 14.2106C23.3569 13.0294 23.1562 11.9871 22.9091 11.3154C24.1521 11.7632 25.2716 12.4812 26.1826 13.3923C26.337 15.2606 25.6885 17.268 25.2562 18.372Z" fill="#006E9C"/>
</g>
<defs>
<clipPath id="clip0_204_8189">
<rect width="64.3897" height="21" fill="white" transform="translate(10 9)"/>
</clipPath>
</defs>
</svg>
