<svg width="130" height="35" viewBox="0 0 130 35" fill="none" xmlns="http://www.w3.org/2000/svg">
<mask id="mask0_118_13261" style="mask-type:alpha" maskUnits="userSpaceOnUse" x="0" y="0" width="130" height="35">
<path fill-rule="evenodd" clip-rule="evenodd" d="M0.5 0.556152H129.455V34.3276H0.5V0.556152Z" fill="white"/>
</mask>
<g mask="url(#mask0_118_13261)">
<path fill-rule="evenodd" clip-rule="evenodd" d="M129.429 9.91513C129.456 8.41182 130.336 0.9798 119.469 0.787183C115.054 0.707915 0.50065 0.787183 0.50065 0.787183C0.50065 0.787183 0.539443 23.7747 0.50065 26.0555C0.464467 28.3356 1.92461 34.3592 8.57178 34.4781C15.2169 34.5948 114.973 34.4453 116.729 34.4781C118.481 34.5092 129.429 34.4781 129.429 34.4781V9.91513Z" fill="#FF0000"/>
</g>
<path fill-rule="evenodd" clip-rule="evenodd" d="M42.0605 25.3161V9.09766H54.3989V12.9624H47.1908V15.4805H52.9556V19.2374H47.1908V25.3161H42.0605Z" fill="#FEFEFE"/>
<path fill-rule="evenodd" clip-rule="evenodd" d="M56.5156 25.2908V9.09814H64.2592C65.3437 9.09814 66.2545 9.1557 66.9911 9.2693C67.7235 9.38518 68.3291 9.56441 68.8004 9.81055C69.2823 10.0537 69.6865 10.3654 70.0157 10.7474C70.3494 11.1207 70.5981 11.5209 70.7571 11.944C70.9235 12.3686 71.0063 12.8959 71.0106 13.5288C71.0106 14.3137 70.8806 14.9713 70.6251 15.5025C70.3795 16.0328 70.0245 16.4716 69.5684 16.8169C69.2462 17.0621 68.838 17.2479 68.3437 17.3786C69.3616 17.7593 70.0523 18.1819 70.4181 18.6505C70.7821 19.1097 70.9778 19.8887 71.0106 20.9891L71.0833 23.4593C71.0999 23.8198 71.1353 24.0308 71.1931 24.0947C71.2681 24.1884 71.3978 24.2434 71.5874 24.2563V25.2908H66.3234C66.177 24.8667 66.0922 23.5939 66.0717 22.574L66.0394 21.4216C66.0323 20.8897 65.9442 20.4787 65.7748 20.1921C65.6158 19.897 65.3735 19.6746 65.045 19.5234C64.7166 19.3722 64.2238 19.297 63.5579 19.297H61.5396V25.2908H56.5156ZM61.5396 15.868H64.0203C64.8201 15.868 65.3838 15.7329 65.7117 15.459C66.0394 15.1846 66.2032 14.8193 66.2032 14.3584C66.2032 13.8843 66.0477 13.518 65.7309 13.2595C65.4186 12.9936 64.8701 12.8614 64.0842 12.8598H61.5396V15.868Z" fill="#FEFEFE"/>
<path fill-rule="evenodd" clip-rule="evenodd" d="M73.699 25.3067V9.09766H86.7199V12.9177H78.7762V15.196H85.5185V18.8706H78.7762V21.4188H87.0418V25.3067H73.699Z" fill="#FEFEFE"/>
<path fill-rule="evenodd" clip-rule="evenodd" d="M102.933 13.955H98.0739C97.9601 13.5099 97.7414 13.1777 97.4191 12.9583C97.1038 12.7319 96.6483 12.6198 96.0561 12.619C95.4722 12.619 95.0279 12.7349 94.7237 12.9674C94.4919 13.1456 94.3773 13.3756 94.3773 13.6586C94.3773 13.9002 94.4627 14.0928 94.6371 14.242C94.8807 14.4543 95.4563 14.6694 96.3656 14.8885L98.3556 15.3661C100.194 15.8062 101.484 16.4269 102.222 17.233C102.966 18.0383 103.338 18.9718 103.341 20.0336C103.341 20.8798 103.146 21.6548 102.758 22.3559C102.378 23.0493 101.91 23.5974 101.353 24.0001C100.793 24.4027 100.07 24.7208 99.1806 24.9553C98.2925 25.1941 97.3565 25.3151 96.3782 25.3151C95.3048 25.3151 94.2925 25.1782 93.3461 24.901C92.3992 24.6256 91.6216 24.2298 91.0029 23.714C90.3983 23.196 89.9338 22.599 89.6187 21.9207C89.3958 21.4392 89.2411 20.8465 89.1562 20.1397H94.0656C94.183 20.6266 94.4273 21.0007 94.8113 21.263C95.1867 21.5256 95.7708 21.6548 96.5595 21.6548C97.2477 21.6548 97.7414 21.5438 98.0426 21.3158C98.2668 21.1464 98.3736 20.9091 98.3758 20.6049C98.3758 20.2944 98.2703 20.044 98.0648 19.8536C97.8626 19.6608 97.3024 19.4565 96.3866 19.2372L94.605 18.8024C93.6733 18.5831 92.7973 18.2784 91.9819 17.8909C91.165 17.5003 90.5503 17.0002 90.1337 16.3835C89.7184 15.7698 89.5097 15.0241 89.5097 14.1468C89.5097 13.2852 89.697 12.5175 90.0678 11.8448C90.4435 11.1735 90.9398 10.632 91.5621 10.221C92.1944 9.81132 92.8909 9.52126 93.6581 9.3501C94.4306 9.18248 95.2281 9.09766 96.045 9.09766C97.0164 9.09766 97.9113 9.19661 98.7202 9.39403C99.5285 9.58538 100.173 9.83985 100.653 10.1572C101.131 10.4682 101.524 10.8297 101.824 11.2407C102.125 11.6428 102.359 12.0561 102.523 12.4817C102.694 12.8992 102.83 13.389 102.933 13.955Z" fill="#FEFEFE"/>
<path fill-rule="evenodd" clip-rule="evenodd" d="M105.453 25.3161V9.09766H110.726V14.5853H115.671V9.09766H120.957V25.3161H115.671V19.0339H110.726V25.3161H105.453Z" fill="#FEFEFE"/>
<path fill-rule="evenodd" clip-rule="evenodd" d="M22.2359 20.336C22.2359 19.946 22.0777 18.0176 24.948 18.0176H32.895V21.4332C32.895 22.0234 32.4249 23.5764 30.6681 23.5764H24.2848C23.8218 23.5764 22.7769 23.6529 22.2359 26.1759V20.336Z" fill="#FEFEFE"/>
<path fill-rule="evenodd" clip-rule="evenodd" d="M21.3681 20.336C21.3681 19.946 21.5251 18.0176 18.6561 18.0176H10.707V21.4332C10.707 22.0234 11.1794 23.5764 12.9344 23.5764H19.3192C19.783 23.5764 20.8238 23.6529 21.3681 26.1759V20.336Z" fill="#FEFEFE"/>
<path fill-rule="evenodd" clip-rule="evenodd" d="M22.2833 11.7779C22.2833 11.328 22.1 9.09766 25.4159 9.09766H34.6069V13.0457C34.6069 13.729 34.0614 15.5254 32.0305 15.5254H24.6515C24.114 15.5254 22.9093 15.6143 22.2812 18.5321C22.2812 18.5321 22.2833 12.2293 22.2833 11.7779Z" fill="#FEFEFE"/>
<path fill-rule="evenodd" clip-rule="evenodd" d="M21.3213 11.7779C21.3213 11.328 21.5058 9.09766 18.1866 9.09766H8.99609V13.0457C8.99609 13.729 9.54466 15.5254 11.5718 15.5254H18.9523C19.4875 15.5254 20.6922 15.6143 21.3213 18.5321V11.7779Z" fill="#FEFEFE"/>
</svg>
