<svg width="150" height="32" viewBox="0 0 150 32" fill="none" xmlns="http://www.w3.org/2000/svg">
<g clip-path="url(#clip0_118_13204)">
<path d="M14.6313 0.80467C14.6478 0.937093 14.3002 1.05296 13.6712 1.13573C10.2448 1.59921 7.46391 2.85722 5.29549 4.92632C2.167 7.93894 0.511719 11.9613 0.511719 16.5464C0.528272 19.1949 1.04141 21.446 2.167 23.6145C4.28576 27.6699 8.53984 30.5004 13.5885 31.2288C15.0451 31.444 18.3557 31.3777 20.0441 31.0963C22.6429 30.666 26.3507 29.3086 27.2942 28.4148C27.6584 28.0672 27.6584 28.0341 27.6584 23.2172C27.6584 18.0031 27.7246 17.4734 28.5191 16.9271C28.7177 16.7782 29.1647 16.6623 29.4792 16.6623C30.3896 16.6623 30.671 16.3809 30.6048 15.5036L30.5551 14.7587L24.7782 14.709C21.451 14.6925 18.9185 14.7422 18.8357 14.8249C18.7529 14.9077 18.6867 15.2553 18.6702 15.5863C18.6536 16.3643 19.0178 16.6623 20.0275 16.6623C21.1034 16.6623 21.898 17.1092 22.1463 17.821C22.3615 18.4334 22.4608 26.4947 22.2621 27.0078C22.0138 27.6534 18.8523 28.5803 16.899 28.5803C15.6741 28.5803 13.3567 28.0837 13.0257 27.7527C12.9263 27.6534 12.7608 27.5871 12.6615 27.5871C12.5456 27.5871 12.0159 27.2892 11.4862 26.9416C9.26817 25.4518 7.7122 23.1179 7.06664 20.2708C6.81835 19.228 6.78524 18.45 6.8349 15.8015C6.91766 12.2261 7.09975 11.1998 8.10947 9.04798C8.83779 7.49201 10.791 5.57189 12.5953 4.66148C13.4395 4.24766 15.5251 3.75107 16.4852 3.75107C17.6936 3.75107 19.3157 4.16489 20.5241 4.77735C21.5504 5.32359 23.2388 6.89611 23.7188 7.78996C23.8347 8.00515 24.2319 8.76658 24.5961 9.4618C24.9602 10.1736 25.4072 10.8357 25.5893 10.9681C26.0858 11.3157 26.9797 11.2661 27.1287 10.8853C27.1949 10.7033 27.1949 8.53484 27.1121 6.05192C27.0128 2.4103 26.9466 1.48334 26.748 1.26815C26.6155 1.11917 26.4997 0.903987 26.4997 0.80467C26.4997 0.6888 26.2514 0.606036 25.9203 0.606036C25.5727 0.606036 25.341 0.6888 25.341 0.80467C25.341 0.92054 25.0761 1.30125 24.7616 1.63231C24.2816 2.162 24.0995 2.26132 23.5036 2.26132C23.1229 2.26132 22.4277 2.14545 21.9642 2.01303C20.0441 1.46678 19.233 1.2847 18.1405 1.15228C17.3625 1.06952 16.9983 0.953645 17.0314 0.80467C17.048 0.655695 16.7335 0.606036 15.8231 0.606036C14.9458 0.606036 14.5982 0.655695 14.6313 0.80467ZM109.016 0.771564C109.131 0.953645 108.436 1.26815 107.923 1.26815C107.393 1.26815 105.556 2.24477 104.844 2.89033C103.189 4.41319 102.146 6.73058 102.146 8.88245C102.146 9.69354 102.61 11.4481 103.073 12.3585C103.686 13.5669 105.755 15.3381 108.684 17.1423C114.627 20.8005 115.885 22.042 115.885 24.2435C115.885 25.965 115.256 27.1237 113.932 27.9348C111.2 29.59 107.211 28.2989 104.96 25.0215C104.679 24.6076 104.116 23.5648 103.702 22.7041L102.941 21.1315H102.063C101.087 21.1315 100.987 21.2309 101.103 22.1247C101.236 23.3827 101.666 26.3953 101.848 27.3389C101.947 27.8851 102.08 28.9279 102.146 29.6397C102.279 31.1295 102.527 31.444 103.47 31.3612C103.901 31.3281 104.132 31.1791 104.43 30.7322C104.646 30.4177 104.91 30.1032 105.043 30.0204C105.175 29.9542 105.937 30.1197 106.814 30.4011C109.016 31.1295 109.942 31.295 111.912 31.295C115.024 31.3115 117.176 30.5004 119.013 28.6134C120.636 26.9747 121.347 25.2698 121.347 23.002C121.347 19.1452 119.742 17.2416 112.872 13.0207C108.9 10.5708 108.022 9.82596 107.426 8.43552C106.135 5.42291 109.297 2.85722 112.806 4.08213C115.339 4.97598 117.027 6.78024 117.904 9.52801C118.351 10.9019 118.6 11.1998 119.311 11.1998C119.924 11.1998 120.602 10.6536 120.454 10.2729C120.404 10.1405 120.205 8.48518 120.023 6.59816C119.841 4.71114 119.609 2.64203 119.527 2.01303C119.444 1.36747 119.378 0.80467 119.361 0.721906C119.361 0.655694 118.947 0.606036 118.451 0.606036C117.606 0.606036 117.54 0.639142 117.54 1.0033C117.54 1.54955 116.928 2.26132 116.464 2.26132C116.249 2.26132 115.455 2.04613 114.693 1.78129C113.932 1.51644 113.038 1.2516 112.69 1.20194C112.343 1.13573 112.012 0.970198 111.962 0.837776C111.896 0.655694 111.532 0.606036 110.389 0.606036C109.446 0.606036 108.949 0.672247 109.016 0.771564ZM136.742 0.854328C136.742 1.0033 136.51 1.11917 136.129 1.18539C132.007 1.8806 129.028 6.68092 130.22 10.6867C130.6 12.0109 131.08 12.8055 132.156 13.9476C133.116 14.9904 133.679 15.4043 136.51 17.1589C141.558 20.2874 142.998 21.4957 143.429 22.9524C143.743 23.9952 143.76 24.4752 143.512 25.6174C143.197 27.0575 141.575 28.4148 139.887 28.63C138.215 28.8452 136.013 28.1831 134.54 27.0409C133.58 26.296 132.355 24.5745 131.494 22.7537L130.7 21.115L129.789 21.1646L128.879 21.2143L128.929 22.2902C128.962 22.8861 129.094 23.8793 129.227 24.4918C129.359 25.1208 129.458 25.9319 129.458 26.3126C129.458 26.6933 129.541 27.2726 129.624 27.5871C129.723 27.9017 129.856 28.779 129.938 29.5238C130.021 30.2853 130.17 31.0136 130.286 31.146C130.402 31.295 130.766 31.3943 131.147 31.3943C131.709 31.3943 131.825 31.3281 132.123 30.815C132.703 29.8549 132.885 29.8218 134.788 30.4508C135.732 30.7653 136.824 31.0798 137.238 31.1626C138.297 31.3446 141.31 31.3115 142.336 31.0963C143.826 30.7818 145.597 29.8218 146.723 28.6962C147.766 27.6534 148.825 25.9319 148.825 25.2698C148.825 24.8063 149.14 24.2435 149.338 24.3593C149.421 24.4256 149.487 23.8959 149.487 23.0517C149.487 22.0254 149.438 21.6447 149.289 21.6778C149.173 21.6943 148.991 21.3633 148.875 20.8833C148.246 18.4003 146.425 16.5795 141.707 13.6828C137.006 10.8191 135.93 9.97494 135.318 8.63416C134.457 6.81335 135.086 5.09185 136.94 4.14834C138.297 3.45312 140.218 3.70142 142.121 4.7939C143.925 5.83673 145.25 7.69065 145.846 10.008C145.912 10.3225 146.11 10.7033 146.276 10.8853C146.607 11.2495 147.468 11.2992 147.915 10.9847C148.196 10.7695 148.196 10.6371 148.014 8.61761C147.915 7.44236 147.749 5.91949 147.666 5.24083C147.584 4.56216 147.468 3.46968 147.418 2.84067C147.219 0.539825 147.253 0.606036 146.243 0.606036C145.448 0.606036 145.349 0.639142 145.349 0.953645C145.349 1.13573 145.217 1.51644 145.068 1.78129C144.703 2.39374 144.29 2.39374 142.502 1.78129C141.74 1.51644 140.847 1.2516 140.499 1.20194C140.151 1.13573 139.82 0.970198 139.771 0.837776C139.638 0.490166 136.742 0.490166 136.742 0.854328ZM34.8092 1.79784C34.4947 2.11234 34.5609 3.05585 34.9085 3.22138C35.0575 3.30415 35.6699 3.46968 36.2658 3.58555C37.6066 3.83384 37.8383 3.96626 38.2025 4.62837C38.4674 5.10841 38.517 6.00226 38.5998 14.2621C38.6991 23.7634 38.6825 23.5648 39.444 25.6008C39.7585 26.4616 40.7185 27.8851 41.4965 28.6796C43.4001 30.5832 46.4955 31.5102 50.4185 31.3446C53.067 31.2288 53.8946 31.0798 55.3843 30.4839C58.248 29.3417 59.9529 27.3885 60.7971 24.3097C61.1282 23.1344 61.1613 22.4227 61.2772 14.5104C61.3434 9.82596 61.4592 5.73741 61.5255 5.43946C61.7075 4.52906 62.5186 3.86694 63.7435 3.6021C64.3394 3.46968 64.9519 3.30415 65.1174 3.22138C65.4485 3.05585 65.5147 2.11234 65.2002 1.79784C64.9188 1.51644 54.7884 1.51644 54.507 1.79784C54.2422 2.06269 54.2588 3.0062 54.5236 3.20483C54.6229 3.30415 55.1857 3.46968 55.7485 3.58555C57.2879 3.90005 57.9004 4.49595 58.1156 5.90294C58.3804 7.60788 58.3308 20.7343 58.0494 22.5882C57.8176 24.0945 57.3045 25.4518 56.6589 26.1802C56.2451 26.6602 55.1361 27.4878 54.5567 27.7361C53.1001 28.3817 50.6833 28.5803 48.9287 28.1831C47.4721 27.852 46.7603 27.4878 45.9492 26.6767C45.1381 25.8822 44.8236 25.2366 44.3602 23.5483C44.0788 22.4889 44.0457 21.6943 44.0457 13.7821C44.0457 5.68775 44.0622 5.12496 44.3602 4.57872C44.6912 3.93315 45.3864 3.61865 46.81 3.46968C47.8528 3.35381 48.0514 3.15517 47.9852 2.31098L47.9356 1.68197L41.48 1.63231C36.5803 1.59921 34.9582 1.64886 34.8092 1.79784ZM69.4874 1.71508C69.4212 1.76473 69.3715 2.14545 69.3715 2.52616C69.3715 3.3207 69.2391 3.23794 71.0764 3.58555C71.6227 3.70142 72.2186 3.94971 72.4834 4.16489L72.9304 4.54561V16.1491C72.9304 27.6037 72.9304 27.7527 72.5993 28.0837C72.3013 28.3817 71.6061 28.5969 69.8184 28.9941C69.3715 29.0769 69.3549 29.1266 69.4046 29.8714L69.4543 30.6494L81.124 30.6991C87.5465 30.7156 92.9593 30.6991 93.1579 30.6494C93.3896 30.5998 93.5717 30.4011 93.6379 30.1032C93.6876 29.8549 93.8366 29.3252 93.9524 28.9114C94.2504 27.9017 94.6146 26.5609 94.9456 25.2698C95.0946 24.6739 95.2932 24.0283 95.376 23.8131C95.4587 23.5979 95.525 23.2503 95.525 23.0186C95.525 22.6213 95.5084 22.6047 94.4159 22.6544L93.2903 22.7041L92.6282 23.9455C91.8502 25.4187 90.5757 26.7595 89.5659 27.2064C88.3079 27.7527 86.1064 28.001 82.5972 28.001C79.6177 28.001 79.3032 27.9679 78.9887 27.6865C78.6411 27.372 78.6411 27.2726 78.6742 22.224L78.7238 17.0761L82.4648 17.0264C87.5796 16.9768 87.7617 17.043 88.49 19.5921C88.8376 20.7674 88.9204 20.8998 89.3673 21.0322C89.6487 21.115 90.0625 21.1315 90.2943 21.0653L90.7246 20.966L90.6915 15.5367L90.6419 10.1239L90.0791 10.0743C89.0031 9.97494 88.7714 10.1239 88.5728 11.1005C88.3079 12.3585 87.7451 13.3848 87.1658 13.6828C86.7851 13.8649 85.7919 13.9476 82.9448 14.0138C80.8923 14.0635 79.088 14.0304 78.9225 13.9642C78.6576 13.8483 78.6411 13.4841 78.6742 9.08109L78.7238 4.33042H83.2759C89.0528 4.33042 89.5494 4.44629 90.3439 5.98571C90.5426 6.34987 90.824 7.1113 90.9895 7.67409L91.2709 8.71692H92.2475C92.8931 8.71692 93.2076 8.65071 93.2241 8.50174C93.3234 7.57478 93.1413 1.96337 93.0089 1.79784C92.8765 1.64886 90.3108 1.59921 81.2068 1.59921C74.8174 1.59921 69.537 1.64886 69.4874 1.71508Z" fill="#170605"/>
</g>
<defs>
<clipPath id="clip0_118_13204">
<rect width="150" height="31.02" fill="white" transform="translate(0 0.490234)"/>
</clipPath>
</defs>
</svg>
