<svg width="150" height="52" viewBox="0 0 150 52" fill="none" xmlns="http://www.w3.org/2000/svg">
<g clip-path="url(#clip0_118_13241)">
<path d="M0 34.7002V0.732422H6.25862V17.5792L29.7296 0.732422H38.206L18.3814 14.4956L39.0815 34.7002H30.8265L13.9941 17.5119L6.25862 22.9334V34.7002H0Z" fill="#170605"/>
<path d="M51.6276 0.732422H45.369V34.7002H51.6276V0.732422Z" fill="#170605"/>
<path d="M62.3887 34.7002V0.732422H68.6473V17.5792L92.1231 0.732422H100.604L80.7701 14.4956L101.475 34.7002H93.2151L76.3876 17.5119L68.6473 22.9334V34.7002H62.3887Z" fill="#170605"/>
<path d="M111.24 18.2284C111.24 22.3174 112.767 25.5453 115.82 27.9122C118.873 30.279 122.721 31.4544 127.365 31.4383C132.076 31.4383 135.947 30.2485 138.978 27.8689C142.009 25.4892 143.532 22.1122 143.548 17.7377C143.604 15.1934 142.922 12.6874 141.585 10.5218C140.212 8.37749 138.221 6.70011 135.875 5.71114C133.235 4.5351 130.371 3.94431 127.481 3.97932C123.055 3.97932 119.24 5.07614 116.036 7.26978C112.832 9.46343 111.242 13.1099 111.264 18.2091M104.813 18.1418C104.797 12.5134 106.901 8.11325 111.125 4.94144C115.348 1.76964 120.783 0.166098 127.428 0.13082C131.473 0.0698676 135.488 0.834287 139.228 2.37738C142.734 3.87829 145.392 5.97252 147.204 8.66005C149.053 11.3336 150.023 14.5165 149.98 17.7666C150.023 21.0767 149.012 24.3147 147.094 27.0126C145.019 29.8388 142.155 31.9893 138.863 33.1942C135.204 34.6067 131.311 35.3151 127.389 35.282C123.293 35.3491 119.228 34.561 115.454 32.9681C111.946 31.4191 109.29 29.3088 107.488 26.6373C105.743 24.1534 104.798 21.1963 104.779 18.161" fill="#170605"/>
<path d="M49.6412 44.0762L47.4235 49.0552L45.2924 44.0762H43.6279L42.002 51.7395H43.753L44.8114 46.8519L47.0242 51.7395H47.8228L50.0646 46.7797L51.1373 51.7395H52.9028L51.3249 44.0762H49.6412Z" fill="#170605"/>
<path d="M67.8643 44.0762H66.1758V51.7395H71.6743V50.2049H67.8643V44.0762Z" fill="#170605"/>
<path d="M59.9211 44.0757H58.2325V51.739H59.9211V44.0757Z" fill="#170605"/>
<path d="M94.548 48.7949L90.9593 44.0757H89.4006V51.739H91.0651V46.8707L94.7885 51.739H96.2173V44.0757H94.548V48.7949Z" fill="#170605"/>
<path d="M79.5541 44.0137L76.2637 51.7395H77.9763L78.6882 50.0269H81.9354L82.6281 51.7395H84.3792L81.1128 44.0137H79.5541ZM79.2944 48.5357L80.3094 46.0486L81.3293 48.5357H79.2944Z" fill="#170605"/>
<path d="M105.353 43.9508C104.823 43.934 104.296 44.0241 103.802 44.2157C103.308 44.4073 102.857 44.6965 102.477 45.066C102.098 45.4355 101.796 45.8778 101.591 46.3664C101.386 46.855 101.281 47.38 101.283 47.9099C101.279 48.4379 101.382 48.9613 101.585 49.4485C101.789 49.9357 102.089 50.3767 102.467 50.7448C102.846 51.113 103.295 51.4007 103.788 51.5906C104.28 51.7805 104.806 51.8687 105.334 51.8498C105.865 51.8679 106.394 51.7789 106.89 51.588C107.385 51.397 107.838 51.1082 108.219 50.7387C108.601 50.3692 108.904 49.9265 109.111 49.4372C109.318 48.9479 109.424 48.4219 109.423 47.8907C109.427 47.3612 109.323 46.8365 109.118 46.3483C108.913 45.86 108.611 45.4184 108.231 45.0501C107.85 44.6819 107.399 44.3946 106.905 44.2056C106.41 44.0166 105.882 43.93 105.353 43.9508ZM107.667 47.9292C107.682 48.2413 107.633 48.5533 107.524 48.8459C107.414 49.1385 107.245 49.4056 107.029 49.6308C106.812 49.856 106.552 50.0346 106.264 50.1556C105.975 50.2766 105.666 50.3375 105.353 50.3345C105.042 50.3334 104.733 50.2697 104.447 50.1474C104.16 50.025 103.901 49.8464 103.685 49.6221C103.469 49.3978 103.3 49.1324 103.188 48.8416C103.076 48.5508 103.024 48.2405 103.034 47.9292C103.019 47.6181 103.067 47.3071 103.175 47.0151C103.284 46.7232 103.451 46.4565 103.666 46.2313C103.881 46.0062 104.14 45.8273 104.427 45.7057C104.714 45.584 105.022 45.5222 105.334 45.5239C105.647 45.523 105.956 45.5852 106.245 45.7068C106.533 45.8283 106.793 46.0066 107.011 46.2311C107.229 46.4556 107.399 46.7216 107.512 47.0134C107.625 47.3051 107.677 47.6166 107.667 47.9292Z" fill="#170605"/>
</g>
<defs>
<clipPath id="clip0_118_13241">
<rect width="150" height="51.7382" fill="white" transform="translate(0 0.130859)"/>
</clipPath>
</defs>
</svg>
