<svg width="134" height="42" viewBox="0 0 134 42" fill="none" xmlns="http://www.w3.org/2000/svg">
<g clip-path="url(#clip0_118_13207)">
<path d="M0.335938 29.3918V1.35616H5.2605V29.3917H0.335938V29.3919V29.3918ZM17.8671 9.05294C11.5527 9.05294 7.1833 13.9078 7.1833 19.4646C7.1833 25.6662 11.9369 29.9388 17.9161 29.9388C23.5908 29.9388 28.5152 25.7452 28.5152 19.4512C28.5152 14.1588 24.4345 9.05303 17.8671 9.05303V9.05294ZM17.809 13.8039C21.1135 13.8039 23.5456 16.3759 23.5456 19.4824C23.5456 22.7763 20.8639 25.1789 17.898 25.1789C14.3937 25.1789 12.1882 22.4014 12.1882 19.4914C12.1883 16.3017 14.6784 13.8038 17.809 13.8038V13.8039ZM40.8885 9.05294C34.5744 9.05294 30.2048 13.9078 30.2048 19.4646C30.2048 25.6662 34.9584 29.9388 40.9376 29.9388C46.6123 29.9388 51.5366 25.7452 51.5366 19.4512C51.5366 15.745 49.9316 14.1006 49.9316 14.1006L51.2967 13.6324V9.63557H44.3021C44.3021 9.63557 42.7856 9.05294 40.8885 9.05294ZM40.8306 13.8039C44.1349 13.8039 46.5672 16.3759 46.5672 19.4824C46.5672 22.7763 43.8855 25.1789 40.9197 25.1789C37.4153 25.1789 35.2099 22.4014 35.2099 19.4914C35.21 16.3017 37.7 13.8038 40.8306 13.8038V13.8039ZM46.5324 30.7623C46.5324 34.0559 43.8509 36.4766 40.885 36.4766C37.3805 36.4766 35.1662 33.6721 35.1662 30.7623H30.1701C30.1701 36.9639 34.9235 41.2362 40.9029 41.2362C46.5775 41.2362 51.5019 37.0558 51.5019 30.7623H46.5324ZM53.5092 29.3918V9.63557H58.434V29.3918H53.5092ZM63.216 29.3918V14.0608H60.5752V9.63557H63.216V3.56879H68.1408V9.63557H70.853V14.0608H68.1408V29.3918H63.216ZM59.2225 4.02445C59.2225 5.82551 57.7624 7.28563 55.9614 7.28563C54.1601 7.28563 52.7001 5.82542 52.7001 4.02445C52.7001 2.2233 54.1603 0.763184 55.9614 0.763184C57.7625 0.763184 59.2225 2.2233 59.2225 4.02445ZM81.9248 9.03963C75.5807 9.03963 71.4909 13.8968 71.4909 19.6431C71.4909 25.5812 75.5944 29.9522 82.0275 29.9522C88.0284 29.9522 90.9804 26.2048 90.9804 26.2048L87.6883 22.9082C87.6883 22.9082 85.2026 25.5894 82.0899 25.5894C79.4951 25.5894 77.4205 24.141 76.6966 21.4853H92.042V20.1293C92.0422 14.7182 88.9102 9.03963 81.9248 9.03963ZM81.7688 13.3756C84.0374 13.3756 86.3576 14.5893 86.8765 17.4885H76.5629C76.9712 15.4505 78.7543 13.3756 81.7688 13.3756ZM104.36 29.9548C97.9984 29.9548 93.6633 25.109 93.6633 19.3959C93.6633 13.4998 98.5626 9.03594 104.34 9.03594C109.925 9.03594 112.784 12.9785 112.784 12.9785L109.348 16.3985C109.348 16.3985 107.358 13.8272 104.316 13.8272C100.945 13.8272 98.6404 16.4061 98.6404 19.4715C98.6404 22.7081 101.092 25.1916 104.279 25.1916C107.369 25.1916 109.343 22.6245 109.343 22.6245L112.813 26.0425C112.813 26.0425 109.982 29.9549 104.36 29.9549H104.36V29.9547V29.9548ZM114.605 29.4061V1.28489H119.53V11.6168C119.53 11.6168 121.415 9.03594 125.517 9.03594C130.674 9.03594 133.662 12.8693 133.662 17.7722V29.406H128.737V18.5165C128.737 15.2227 126.686 13.856 124.415 13.856C121.826 13.856 119.53 15.3291 119.53 18.7712V29.4061H114.605Z" fill="#170605"/>
</g>
<defs>
<clipPath id="clip0_118_13207">
<rect width="133.326" height="40.4778" fill="white" transform="translate(0.335938 0.760742)"/>
</clipPath>
</defs>
</svg>
