<svg width="124" height="60" viewBox="0 0 124 60" fill="none" xmlns="http://www.w3.org/2000/svg">
<g clip-path="url(#clip0_118_13196)">
<path d="M25.6689 49.8085C39.4204 49.8085 50.5682 38.6606 50.5682 24.9091C50.5682 11.1576 39.4204 0.00976562 25.6689 0.00976562C11.9173 0.00976562 0.769531 11.1576 0.769531 24.9091C0.769531 38.6606 11.9173 49.8085 25.6689 49.8085Z" fill="#B50A3E"/>
<path d="M43.3734 23.7761C43.3734 36.257 33.3815 46.3749 22.1821 46.3749C10.9826 46.3749 1.9043 36.257 1.9043 23.7761C1.9043 11.2951 13.3037 1.17725 24.5031 1.17725C35.7026 1.17725 43.3734 11.2951 43.3734 23.7761Z" fill="url(#paint0_linear_118_13196)"/>
<path opacity="0.8" d="M31.6903 24.0716V26.3543H44.7036C44.4196 31.1032 42.3802 35.371 39.22 38.533C35.8083 41.9438 31.1055 44.0489 25.9009 44.0489C20.6954 44.0489 15.9935 41.9438 12.5808 38.533C9.1709 35.1194 7.06442 30.418 7.06442 25.2134C7.06442 20.0079 9.17136 15.306 12.5808 11.8933C15.9935 8.48249 20.6954 6.37692 25.9009 6.37692L26.9336 6.376V4.09375H25.9009C14.2367 4.09512 4.78216 13.5487 4.78125 25.2138C4.78216 36.8785 14.2367 46.3321 25.9009 46.333C37.5651 46.3321 47.0196 36.8785 47.0205 25.2138V24.072H31.6903V24.0716ZM14.7909 17.3198C14.7909 18.1469 15.1195 18.9401 15.7044 19.525C16.2892 20.1098 17.0825 20.4384 17.9096 20.4384C18.7367 20.4384 19.5299 20.1098 20.1148 19.525C20.6996 18.9401 21.0282 18.1469 21.0282 17.3198C21.0282 16.4927 20.6996 15.6994 20.1148 15.1146C19.5299 14.5297 18.7367 14.2011 17.9096 14.2011C17.0825 14.2011 16.2892 14.5297 15.7044 15.1146C15.1195 15.6994 14.7909 16.4927 14.7909 17.3198ZM24.6614 14.2801V36.2822H31.7478V33.9995H26.9441L26.945 14.2801H24.6614Z" fill="#4D4D4D"/>
<path d="M31.3116 23.8162V26.0989H44.3249C44.0409 30.8474 42.0016 35.1152 38.8414 38.2772C35.4296 41.688 30.7268 43.7936 25.5222 43.7936C20.3167 43.7936 15.6148 41.688 12.2022 38.2772C8.7927 34.8641 6.68575 30.1621 6.68575 24.958C6.68575 19.7525 8.7927 15.0506 12.2022 11.6379C15.6148 8.22712 20.3167 6.12155 25.5222 6.12155L26.5549 6.12063V3.83838H25.5222C13.858 3.83929 4.4035 13.2929 4.40259 24.958C4.4035 36.6222 13.858 46.0758 25.5222 46.0767C37.1864 46.0758 46.6409 36.6222 46.6419 24.958V23.8162H31.3116ZM14.4127 17.0639C14.4127 17.4735 14.4934 17.879 14.6501 18.2574C14.8068 18.6358 15.0366 18.9796 15.3262 19.2692C15.6157 19.5588 15.9595 19.7885 16.3379 19.9452C16.7163 20.1019 17.1218 20.1826 17.5314 20.1826C17.9409 20.1826 18.3464 20.1019 18.7248 19.9452C19.1032 19.7885 19.447 19.5588 19.7366 19.2692C20.0262 18.9796 20.2559 18.6358 20.4126 18.2574C20.5693 17.879 20.65 17.4735 20.65 17.0639C20.65 16.2368 20.3214 15.4436 19.7366 14.8587C19.1517 14.2739 18.3585 13.9453 17.5314 13.9453C16.7043 13.9453 15.911 14.2739 15.3262 14.8587C14.7413 15.4436 14.4127 16.2368 14.4127 17.0639ZM24.2827 14.0247V36.0269H31.3692V33.7437H26.5654L26.5663 14.0247H24.2827Z" fill="url(#paint1_linear_118_13196)"/>
<path d="M113.596 38.3859C109.768 40.5129 105.565 41.3187 101.238 41.3187C89.8831 41.3187 85.3432 34.8924 85.3432 24.8321C85.3432 14.7717 90.225 8.229 101.238 8.229C105.898 8.229 110.178 9.31238 113.655 13.4738L108.981 17.7493C107.213 15.3547 104.525 14.2147 101.238 14.2147C94.7288 14.2147 92.5054 18.9819 92.5054 24.8321C92.5054 30.6822 94.1015 35.1367 101.238 35.1367C104.067 35.1367 105.664 34.8194 106.871 34.1104V28.5004H100.886V22.7087H113.596V38.3859H113.596ZM61.5957 8.93847V40.8964H84.2708V34.5048H69.0529V8.95445L61.5957 8.93847ZM61.735 59.7913V50.2035H63.2155V58.4851H67.2267V59.7913H61.735ZM68.3037 51.8041V50.3496H69.7838V51.8041H68.3037ZM68.3448 59.7913V52.9642H69.7427V59.7913H68.3448ZM73.17 54.1357V59.7913H71.772V54.1357H70.9767V53.0852H71.772V52.0347C71.772 51.0517 72.3751 50.1359 73.6776 50.1359H75.3111V51.3074H73.9379C73.417 51.3074 73.17 51.6037 73.17 52.1018V53.0847H75.3678V54.1352H73.17V54.1357ZM77.5135 56.7749C77.5135 57.946 78.144 58.6869 79.2821 58.6869C80.0637 58.6869 80.4746 58.4715 80.9682 57.9871L81.8593 58.8084C81.1462 59.5087 80.4746 59.8721 79.2543 59.8721C77.5135 59.8721 76.1284 58.97 76.1284 56.3709C76.1284 54.1626 77.2939 52.8834 79.0762 52.8834C80.9408 52.8834 82.0237 54.2297 82.0237 56.1687V56.7749H77.5135ZM80.4468 54.8899C80.2276 54.3781 79.7341 54.0279 79.0762 54.0279C78.4184 54.0279 77.9107 54.3781 77.6916 54.8899C77.5541 55.1999 77.5272 55.4017 77.513 55.8189H80.639C80.6253 55.4017 80.5842 55.1994 80.4468 54.8899ZM87.0584 59.8721C85.9203 59.8721 84.9606 59.6836 84.1384 58.8892L85.0569 57.9871C85.6189 58.5523 86.3732 58.7006 87.0589 58.7006C87.9085 58.7006 88.5805 58.4043 88.5805 57.7579C88.5805 57.3 88.3203 57.0041 87.6483 56.9498L86.5375 56.8558C85.235 56.748 84.4812 56.1687 84.4812 54.9702C84.4812 53.6371 85.6468 52.8834 87.0995 52.8834C88.1413 52.8834 89.0325 53.0989 89.6772 53.6508L88.7997 54.5265C88.3609 54.1626 87.7442 54.0279 87.0858 54.0279C86.2494 54.0279 85.8244 54.3918 85.8244 54.9031C85.8244 55.3072 86.0435 55.6167 86.7845 55.6843L87.8811 55.7783C89.1836 55.8861 89.9511 56.4919 89.9511 57.7045C89.9511 59.1316 88.7175 59.8721 87.0584 59.8721ZM100.766 51.9863C99.3791 51.2759 97.8903 51.4288 97.8903 51.4288C97.2366 51.4786 96.7937 51.6576 96.4513 52.0214C95.971 52.5332 95.8615 53.0719 95.8615 54.9976C95.8615 56.9233 95.971 57.4753 96.4513 57.9871C96.7937 58.3505 97.3151 58.5664 97.8903 58.5664C97.8903 58.5664 99.139 58.6586 99.974 58.3427V55.8459H97.8903V54.6073H101.455V56.0751L101.433 59.5078C99.5946 59.9908 97.9497 59.8758 97.8903 59.8726C96.9152 59.8242 95.9984 59.5092 95.3269 58.8495C94.3672 57.9072 94.3809 56.843 94.3809 54.9981C94.3809 53.1532 94.3677 52.0895 95.3269 51.1467C95.9989 50.487 96.8485 50.1231 97.8903 50.1231C97.8903 50.1231 99.9315 49.946 101.589 50.9718L100.766 51.9863ZM108.262 59.064C107.809 59.522 107.124 59.8721 106.178 59.8721C105.232 59.8721 104.56 59.522 104.108 59.064C103.45 58.3906 103.285 57.5292 103.285 56.3709C103.285 55.2264 103.45 54.3644 104.108 53.6915C104.56 53.2336 105.232 52.8834 106.178 52.8834C107.124 52.8834 107.809 53.2336 108.262 53.6915C108.919 54.3649 109.084 55.2264 109.084 56.3709C109.084 57.5292 108.92 58.3906 108.262 59.064ZM107.206 54.4991C106.946 54.243 106.589 54.1087 106.178 54.1087C105.767 54.1087 105.424 54.2434 105.163 54.4991C104.738 54.9164 104.683 55.6304 104.683 56.3709C104.683 57.1119 104.738 57.8255 105.163 58.2432C105.424 58.4993 105.767 58.6472 106.178 58.6472C106.589 58.6472 106.946 58.4993 107.206 58.2432C107.632 57.8255 107.686 57.1119 107.686 56.3709C107.685 55.6304 107.631 54.9164 107.206 54.4991ZM115.4 59.064C114.948 59.522 114.262 59.8721 113.316 59.8721C112.37 59.8721 111.698 59.522 111.246 59.064C110.589 58.3906 110.424 57.5292 110.424 56.3709C110.424 55.2264 110.588 54.3644 111.246 53.6915C111.698 53.2336 112.37 52.8834 113.316 52.8834C114.262 52.8834 114.948 53.2336 115.4 53.6915C116.058 54.3649 116.223 55.2264 116.223 56.3709C116.223 57.5292 116.058 58.3906 115.4 59.064ZM114.344 54.4991C114.084 54.243 113.727 54.1087 113.316 54.1087C112.905 54.1087 112.562 54.2434 112.302 54.4991C111.876 54.9164 111.821 55.6304 111.821 56.3709C111.821 57.1119 111.876 57.8255 112.302 58.2432C112.562 58.4993 112.904 58.6472 113.316 58.6472C113.728 58.6472 114.084 58.4993 114.344 58.2432C114.769 57.8255 114.824 57.1119 114.824 56.3709C114.824 55.6304 114.769 54.9164 114.344 54.4991ZM121.859 59.7913V59.064C121.338 59.6831 120.776 59.8721 120.023 59.8721C119.323 59.8721 118.706 59.6434 118.322 59.2663C117.623 58.5797 117.541 57.4082 117.541 56.3709C117.541 55.3341 117.623 54.1759 118.322 53.4892C118.706 53.1121 119.309 52.8834 120.008 52.8834C120.748 52.8834 121.325 53.0582 121.831 53.6508V50.2035H123.23V59.7913H121.859ZM120.392 54.1087C119.131 54.1087 118.939 55.1592 118.939 56.3709C118.939 57.583 119.131 58.6468 120.392 58.6468C121.654 58.6468 121.831 57.583 121.831 56.3709C121.832 55.1588 121.654 54.1087 120.392 54.1087ZM83.9494 51.3142V50.0976H82.6459V51.3142C82.6459 51.3142 82.6925 52.2616 82.2871 52.9368L83.0427 53.6403C83.9772 52.998 83.9494 51.3142 83.9494 51.3142Z" fill="#6E6E70"/>
</g>
<defs>
<linearGradient id="paint0_linear_118_13196" x1="22.6391" y1="1.17725" x2="22.6391" y2="46.3754" gradientUnits="userSpaceOnUse">
<stop offset="0.06" stop-color="#E3838D"/>
<stop offset="0.385" stop-color="#CE3D61"/>
<stop offset="0.632" stop-color="#B50A3E"/>
</linearGradient>
<linearGradient id="paint1_linear_118_13196" x1="25.5222" y1="3.83838" x2="25.5222" y2="46.0767" gradientUnits="userSpaceOnUse">
<stop offset="0.082" stop-color="white"/>
<stop offset="0.35" stop-color="#FCFCFC"/>
<stop offset="0.527" stop-color="#F3F3F3"/>
<stop offset="0.679" stop-color="#E4E4E4"/>
<stop offset="0.815" stop-color="#CFCFCF"/>
<stop offset="0.941" stop-color="#B4B4B4"/>
<stop offset="0.945" stop-color="#B3B3B3"/>
</linearGradient>
<clipPath id="clip0_118_13196">
<rect width="122.711" height="59.981" fill="white" transform="translate(0.644531 0.00976562)"/>
</clipPath>
</defs>
</svg>
