<svg width="170" height="54" viewBox="0 0 170 54" fill="none" xmlns="http://www.w3.org/2000/svg">
<g clip-path="url(#clip0_1401_10759)">
<path d="M0 33.5519C0.0438395 33.5165 0.113252 33.4891 0.128474 33.4441C1.41504 29.596 1.99044 29.2836 6.27575 30.1123C6.13266 31.7307 5.87876 33.3485 5.86841 34.9681C5.85136 37.6588 7.27128 39.0422 9.94001 39.0592C14.0122 39.0848 18.0844 39.0659 22.3411 39.0659V24.513H28.1359V43.7665C27.242 43.7665 26.4085 43.7665 25.5755 43.7665C20.1351 43.7683 14.6911 43.6356 9.25684 43.814C4.71214 43.9638 1.40652 42.5426 0 37.9553C0 36.4873 0 35.0199 0 33.5519H0Z" fill="#170605"/>
<path d="M123.832 53.5372C123.343 52.7012 122.615 51.9164 122.421 51.0177C122.145 49.7408 122.549 48.3386 124.031 48.1316C124.985 47.9982 126.362 48.3148 126.986 48.9657C127.978 50.0014 127.824 51.4701 126.892 52.6744C126.626 53.0184 126.216 53.2529 125.872 53.5372H123.831H123.832Z" fill="#170605"/>
<path d="M117.368 53.5376C116.801 52.754 115.966 52.0428 115.728 51.1703C115.389 49.9227 115.764 48.4888 117.189 48.1831C118.127 47.9816 119.792 48.2379 120.135 48.8462C120.67 49.7967 120.443 51.2245 120.362 52.438C120.336 52.824 119.743 53.1723 119.409 53.5382H117.368V53.5376Z" fill="#170605"/>
<path d="M165.954 43.6812C135.907 43.7044 105.861 43.7062 75.8141 43.7823C72.83 43.7896 70.1887 43.2672 67.962 40.8079C65.7012 43.7385 62.563 43.8 59.3323 43.7744C52.0762 43.7165 44.8196 43.7604 37.5629 43.7628C36.9485 43.7628 36.3348 43.7628 35.6035 43.7628V14.1291H41.3757V38.9411H50.8408V27.5227H56.6459V38.7968C57.0721 38.9411 57.1738 39.0008 57.2791 39.0075C62.9527 39.388 63.8569 38.5471 63.8544 32.8985C63.8538 31.1571 63.8544 29.4157 63.8544 27.5605H69.7046C69.7046 30.1762 69.7168 32.7548 69.7009 35.3328C69.6882 37.3519 70.7945 38.7115 72.8556 38.9466C73.9656 39.0732 75.1023 38.9691 76.4151 38.9691V24.4868H82.2951V38.9441H102.243C102.243 36.4294 102.443 33.8989 102.179 31.4171C101.973 29.4772 100.361 28.3965 98.5017 28.1657C96.3201 27.8953 94.1001 27.9319 91.8959 27.8509C91.1659 27.8241 90.4334 27.8466 89.5919 27.8466C89.3569 25.5731 89.2479 23.5041 90.5625 21.4789C93.8504 16.4136 98.3136 12.9235 104.106 10.801C104.835 12.5606 105.514 14.2022 106.242 15.9637C102.174 17.467 98.5133 19.3868 95.6192 22.9865C97.2425 23.1241 98.6107 23.2124 99.9728 23.361C105.592 23.9735 108.223 26.8992 108.239 32.5295C108.245 34.6089 108.24 36.6882 108.24 39.0208C110.101 39.0208 111.833 39.0208 113.564 39.0208C115.296 39.0208 117.072 39.0208 118.999 39.0208V24.5069H124.868V38.8924H144.38" fill="#170605"/>
<path d="M17.5475 18.4851C19.2426 18.5119 20.5456 19.9573 20.4878 21.7462C20.433 23.4523 19.1111 24.7578 17.4622 24.734C15.7635 24.7097 14.4379 23.2557 14.5086 21.4917C14.5761 19.7923 15.9236 18.4589 17.5475 18.4851Z" fill="#170605"/>
<path d="M10.5 24.7842C8.76344 24.7891 7.45191 23.4094 7.48905 21.6156C7.52437 19.8973 8.80972 18.6028 10.4835 18.5998C12.1969 18.5968 13.5718 20.0282 13.5255 21.7684C13.4811 23.4514 12.1482 24.7793 10.5 24.7842Z" fill="#170605"/>
<path d="M138.933 8.39746C139.755 8.39746 140.226 9.33336 139.736 9.99324L129.743 23.4654C129.168 24.2394 127.939 23.8333 127.939 22.8696V9.39746C127.939 8.84518 128.387 8.39746 128.939 8.39746H138.933Z" fill="#B81B34"/>
<path d="M142.93 22.6826C142.441 23.0926 142.456 23.8497 142.961 24.2401L165.899 41.9791C166.654 42.5624 166.241 43.7701 165.288 43.7701H147.845C147.486 43.7701 147.154 43.5774 146.976 43.2652L136.328 24.58C136.125 24.2241 136.16 23.7806 136.416 23.4606L154.86 0.375787C155.05 0.138286 155.337 0 155.641 0H167.249C168.182 0 168.607 1.16663 167.891 1.76647L142.93 22.6826Z" fill="#B81B34"/>
</g>
<defs>
<clipPath id="clip0_1401_10759">
<rect width="170" height="53.5372" fill="white"/>
</clipPath>
</defs>
</svg>
