<svg width="150" height="38" viewBox="0 0 150 38" fill="none" xmlns="http://www.w3.org/2000/svg">
<path fill-rule="evenodd" clip-rule="evenodd" d="M21.5399 27.7761V30.8678H2.20508V9.60542H5.6859V27.7761H21.5399ZM18.8334 17.3375L22.6994 9.99139H19.0263L16.126 17.3375H18.8334ZM50.444 13.0956C49.1904 11.1229 47.3593 9.46456 45.203 8.33464C43.0466 7.20393 40.565 6.60162 38.0841 6.60162C35.6033 6.60162 33.1208 7.20393 30.9653 8.33464C28.8089 9.46456 26.9771 11.1229 25.7234 13.0956C24.4698 15.0675 23.7927 17.3546 23.7927 19.6417C23.7927 21.928 24.4698 24.2151 25.7234 26.187C26.9771 28.1597 28.8081 29.818 30.9653 30.9479C33.1216 32.0786 35.6033 32.681 38.0841 32.681C40.565 32.681 43.0466 32.0794 45.203 30.9479C47.3593 29.818 49.1904 28.1597 50.444 26.187C51.6985 24.2151 52.3747 21.9272 52.3747 19.6417C52.3747 17.3554 51.6985 15.0683 50.444 13.0956ZM47.4356 24.8485C46.5002 26.3956 45.1314 27.7006 43.5159 28.5916C41.9003 29.4818 40.0389 29.9565 38.1767 29.9565C36.3145 29.9565 34.4531 29.4818 32.8376 28.5916C31.2229 27.7006 29.854 26.3963 28.9179 24.8485C27.9817 23.3007 27.479 21.5109 27.479 19.7211C27.479 17.9304 27.9817 16.1406 28.9179 14.5936C29.854 13.0466 31.2221 11.7415 32.8376 10.8513C34.4531 9.96027 36.3153 9.48558 38.1767 9.48558C40.0381 9.48558 41.9003 9.96027 43.5159 10.8513C45.1314 11.7415 46.4994 13.0458 47.4356 14.5936C48.372 16.1404 48.8696 17.9129 48.8752 19.7211C48.8693 21.5292 48.3717 23.3016 47.4356 24.8485ZM76.6463 18.7748C76.0168 20.1599 74.8262 20.9607 73.8947 21.4447C72.9632 21.9295 72.2916 22.0976 71.6154 22.0735L78.3825 30.8686H74.5157L67.9711 22.3638H59.4344V30.8686H55.9544V9.60542H69.8746C71.2815 9.60542 72.7087 9.88245 73.9678 10.5906C75.2269 11.2987 76.3164 12.375 76.8284 13.8979C77.3397 15.42 77.2743 17.3896 76.6463 18.7748ZM72.7531 18.6293C73.4861 18.0098 73.9204 16.9912 73.8822 15.9811C73.8449 14.9702 73.3352 13.9695 72.6076 13.3586C71.8792 12.7485 70.9485 12.6979 70.0683 12.6979H59.4344V19.2705H70.0683C71.0084 19.2705 72.02 19.2495 72.7531 18.6293ZM96.75 18.6907V21.5895H84.9558V27.7761H100.81V30.8678H81.475V9.60542H100.81V12.6979H84.9558V18.6907H96.75ZM96.943 6.31836H91.7221L89.5961 9.02489L96.943 6.31836ZM107.627 25.4555L104.87 30.8678H101.39L112.216 9.60464H115.697L126.525 30.8678H123.044L120.289 25.4555H107.627ZM113.956 13.0224L109.003 22.7498H118.91L113.956 13.0224ZM147.598 27.7761V30.8678H128.265V9.60542H131.744V27.7761H147.598ZM146.092 13.8722L146.061 13.3648C146.057 13.2715 146.064 13.1781 146.026 13.0722C145.988 12.9633 145.93 12.8625 145.854 12.775C145.801 12.7091 145.724 12.666 145.64 12.6543C145.791 12.602 145.918 12.4984 145.999 12.3618C146.09 12.2162 146.146 12.024 146.144 11.8178C146.141 11.6116 146.078 11.3906 145.969 11.2272C145.731 10.8793 145.313 10.8202 144.948 10.8373H143.408V14.3897H144.005V12.9306H144.899C144.996 12.9306 145.159 12.9174 145.321 13.0442C145.537 13.2987 145.441 13.6333 145.479 13.9173C145.482 14.087 145.499 14.2473 145.569 14.3897H146.24V14.28C146.118 14.2294 146.107 14.052 146.092 13.8722ZM145.353 12.3073C145.168 12.4256 144.977 12.4263 144.844 12.424H144.001V11.3423C144.369 11.347 144.739 11.3268 145.104 11.3563C145.188 11.3654 145.269 11.3959 145.338 11.445C145.407 11.494 145.462 11.56 145.498 11.6365C145.575 11.8715 145.578 12.1236 145.353 12.3073Z" fill="#170605"/>
<path fill-rule="evenodd" clip-rule="evenodd" d="M147.392 11.1023C147.131 10.6494 146.748 10.2665 146.295 10.0051C145.842 9.74359 145.319 9.60352 144.796 9.60352C144.273 9.60352 143.75 9.74359 143.297 10.0051C142.844 10.2665 142.461 10.6494 142.2 11.1023C141.938 11.5552 141.797 12.0781 141.797 12.6011C141.797 13.124 141.938 13.647 142.2 14.0991C142.461 14.5512 142.844 14.9349 143.297 15.1963C143.75 15.4578 144.273 15.5979 144.796 15.5979C145.319 15.5979 145.842 15.4578 146.295 15.1963C146.748 14.9349 147.131 14.552 147.392 14.0991C147.654 13.6462 147.795 13.124 147.795 12.6011C147.795 12.0781 147.654 11.5552 147.392 11.1023ZM147.033 13.9045C146.808 14.2906 146.487 14.6113 146.1 14.8353C145.713 15.0579 145.273 15.1754 144.826 15.1761C144.379 15.1758 143.94 15.0582 143.553 14.8351C143.166 14.6119 142.844 14.2911 142.619 13.9045C142.396 13.5179 142.279 13.0794 142.279 12.633C142.279 12.1866 142.396 11.7481 142.619 11.3614C142.958 10.7766 143.514 10.35 144.167 10.1755C144.82 10.001 145.515 10.0928 146.1 10.4307C146.485 10.6525 146.81 10.977 147.033 11.3614C147.256 11.7483 147.373 12.1867 147.374 12.633C147.374 13.0766 147.256 13.5201 147.033 13.9045Z" fill="#170605"/>
</svg>
