<svg width="85" height="38" viewBox="0 0 85 38" fill="none" xmlns="http://www.w3.org/2000/svg">
<rect x="0.433333" y="0.433333" width="83.8579" height="37.1333" rx="8.23333" stroke="#8D8584" stroke-width="0.866667"/>
<g clip-path="url(#clip0_204_8181)">
<path d="M58.3105 31.8603V31.9303H58.3758C58.3881 31.9305 58.4001 31.9274 58.4108 31.9214C58.4151 31.9184 58.4185 31.9144 58.4208 31.9097C58.4231 31.905 58.4242 31.8998 58.4239 31.8946C58.4241 31.8895 58.4231 31.8844 58.4208 31.8799C58.4185 31.8753 58.415 31.8714 58.4108 31.8686C58.4003 31.8622 58.3881 31.8591 58.3758 31.8596H58.3105V31.8603ZM58.3765 31.8108C58.4045 31.8091 58.4322 31.8171 58.4549 31.8336C58.464 31.841 58.4712 31.8505 58.476 31.8613C58.4808 31.872 58.483 31.8837 58.4824 31.8955C58.4828 31.9056 58.481 31.9157 58.4772 31.9251C58.4734 31.9345 58.4677 31.943 58.4603 31.9499C58.4428 31.9652 58.4208 31.9743 58.3977 31.976L58.4852 32.0758H58.4178L58.3373 31.9767H58.3112V32.0758H58.2549V31.811H58.3774L58.3765 31.8108ZM58.359 32.1671C58.3886 32.1674 58.4178 32.1614 58.4449 32.1496C58.471 32.1384 58.4948 32.1223 58.5149 32.1022C58.5351 32.0821 58.5512 32.0583 58.5623 32.0322C58.5853 31.9767 58.5853 31.9144 58.5623 31.8589C58.551 31.8328 58.5349 31.8091 58.5149 31.7889C58.4948 31.7688 58.471 31.7528 58.4449 31.7415C58.4177 31.7303 58.3885 31.7247 58.359 31.7251C58.329 31.7248 58.2993 31.7304 58.2715 31.7415C58.2448 31.7525 58.2205 31.7686 58.1999 31.7889C58.169 31.8207 58.148 31.8608 58.1397 31.9044C58.1314 31.948 58.1361 31.993 58.1532 32.0339C58.1639 32.0602 58.1798 32.084 58.1999 32.1039C58.2205 32.1242 58.2448 32.1403 58.2715 32.1514C58.2991 32.1632 58.3289 32.1691 58.359 32.1689M58.359 31.6614C58.4359 31.6613 58.5098 31.6914 58.5646 31.7454C58.5911 31.7712 58.6121 31.8021 58.6266 31.8362C58.6415 31.8712 58.6492 31.9088 58.6492 31.9469C58.6492 31.9849 58.6415 32.0226 58.6266 32.0576C58.6118 32.0914 58.5908 32.1222 58.5646 32.1484C58.5378 32.1741 58.5065 32.1949 58.4724 32.2096C58.4365 32.2249 58.398 32.2326 58.359 32.2324C58.3196 32.2327 58.2805 32.2249 58.2442 32.2096C58.2097 32.1952 58.1781 32.1744 58.1513 32.1484C58.1251 32.1213 58.1044 32.0895 58.0902 32.0546C58.0752 32.0196 58.0675 31.9819 58.0675 31.9439C58.0675 31.9058 58.0752 31.8682 58.0902 31.8332C58.1046 31.7991 58.1257 31.7683 58.1521 31.7424C58.1787 31.7159 58.2103 31.695 58.2451 31.6811C58.2814 31.6658 58.3205 31.6581 58.3599 31.6584M31.563 30.6388C31.563 30.134 31.8938 29.7192 32.4343 29.7192C32.9509 29.7192 33.2995 30.1161 33.2995 30.6388C33.2995 31.1616 32.9509 31.5585 32.4343 31.5585C31.8938 31.5585 31.563 31.1437 31.563 30.6388M33.8884 30.6388V29.2021H33.2638V29.5521C33.0657 29.2934 32.7653 29.1312 32.3566 29.1312C31.5516 29.1312 30.9199 29.7626 30.9199 30.6395C30.9199 31.5165 31.5513 32.1479 32.3566 32.1479C32.7651 32.1479 33.0657 31.9855 33.2638 31.727V32.0758H33.8877V30.6388H33.8884ZM54.992 30.6388C54.992 30.134 55.3227 29.7192 55.8635 29.7192C56.3806 29.7192 56.7287 30.1161 56.7287 30.6388C56.7287 31.1616 56.3806 31.5585 55.8635 31.5585C55.3229 31.5585 54.992 31.1437 54.992 30.6388ZM57.3181 30.6388V28.0488H56.693V29.5521C56.4949 29.2934 56.1944 29.1312 55.7858 29.1312C54.9808 29.1312 54.349 29.7626 54.349 30.6395C54.349 31.5165 54.9805 32.1479 55.7858 32.1479C56.1944 32.1479 56.4949 31.9855 56.693 31.727V32.0758H57.3181V30.6388ZM41.6402 29.6896C42.0427 29.6896 42.3012 29.942 42.3672 30.3863H40.8769C40.9435 29.9716 41.1954 29.6896 41.6404 29.6896M41.6528 29.1296C40.811 29.1296 40.2222 29.7421 40.2222 30.638C40.2222 31.5513 40.8347 32.1463 41.6946 32.1463C42.1272 32.1463 42.5234 32.0383 42.872 31.7438L42.566 31.2809C42.3252 31.4734 42.0186 31.5814 41.7303 31.5814C41.3278 31.5814 40.9614 31.395 40.8713 30.8779H43.004C43.0101 30.8002 43.0164 30.7218 43.0164 30.6378C43.0101 29.7423 42.4564 29.1295 41.6525 29.1295M49.1932 30.6378C49.1932 30.1329 49.524 29.7182 50.0645 29.7182C50.5811 29.7182 50.9297 30.1151 50.9297 30.6378C50.9297 31.1605 50.5811 31.5574 50.0645 31.5574C49.524 31.5574 49.193 31.1427 49.193 30.6378M51.5184 30.6378V29.2021H50.8942V29.5521C50.6954 29.2934 50.3956 29.1312 49.987 29.1312C49.182 29.1312 48.5503 29.7626 48.5503 30.6395C48.5503 31.5165 49.1816 32.1479 49.987 32.1479C50.3956 32.1479 50.6954 31.9855 50.8942 31.727V32.0758H51.5186V30.6388L51.5184 30.6378ZM45.6661 30.6378C45.6661 31.5091 46.2726 32.1461 47.1984 32.1461C47.631 32.1461 47.9192 32.0499 48.2309 31.8036L47.9309 31.2988C47.6964 31.4673 47.4502 31.5574 47.1784 31.5574C46.6798 31.5513 46.3132 31.1908 46.3132 30.6378C46.3132 30.0848 46.6798 29.7245 47.1784 29.7182C47.4495 29.7182 47.6957 29.8083 47.9309 29.9768L48.2309 29.4719C47.9187 29.2257 47.6305 29.1295 47.1984 29.1295C46.2726 29.1295 45.6661 29.7663 45.6661 30.6378M53.7178 29.1295C53.3575 29.1295 53.1228 29.298 52.9606 29.5503V29.2021H52.3416V32.0742H52.9669V30.4642C52.9669 29.9889 53.1711 29.7248 53.5794 29.7248C53.7131 29.7229 53.8458 29.7474 53.97 29.7971L54.1625 29.2084C54.0243 29.154 53.844 29.13 53.7175 29.13M36.9763 29.4305C36.6758 29.2324 36.2618 29.13 35.805 29.13C35.0774 29.13 34.6089 29.4788 34.6089 30.0494C34.6089 30.5177 34.9577 30.8067 35.5999 30.8968L35.895 30.9388C36.2374 30.9869 36.3991 31.077 36.3991 31.2393C36.3991 31.4613 36.1716 31.588 35.7444 31.588C35.3118 31.588 34.9997 31.4498 34.7891 31.2876L34.4956 31.7746C34.8381 32.0269 35.2707 32.1473 35.7392 32.1473C36.5687 32.1473 37.0494 31.7567 37.0494 31.2099C37.0494 30.705 36.6711 30.4409 36.046 30.3508L35.7516 30.3081C35.4813 30.2731 35.2646 30.2187 35.2646 30.0262C35.2646 29.8162 35.4688 29.6898 35.8115 29.6898C36.1781 29.6898 36.533 29.8281 36.7069 29.936L36.9773 29.4312L36.9763 29.4305ZM45.0352 29.1305C44.6749 29.1305 44.4402 29.299 44.2787 29.5514V29.2021H43.6597V32.0742H44.2843V30.4642C44.2843 29.9889 44.4885 29.7248 44.8968 29.7248C45.0305 29.7229 45.1632 29.7474 45.2874 29.7971L45.4799 29.2084C45.3416 29.154 45.1614 29.13 45.0348 29.13M39.7054 29.2021H38.6841V28.3308H38.0527V29.2021H37.4701V29.7729H38.0527V31.0832C38.0527 31.7496 38.3114 32.1465 39.0502 32.1465C39.3213 32.1465 39.6335 32.0625 39.8316 31.9244L39.6512 31.3896C39.4648 31.4976 39.2605 31.552 39.0981 31.552C38.7859 31.552 38.6841 31.3595 38.6841 31.0713V29.7735H39.7054V29.2021ZM30.3676 32.0749V30.2724C30.3676 29.5936 29.935 29.1368 29.2376 29.1307C28.871 29.1246 28.4928 29.2387 28.228 29.6417C28.0299 29.3232 27.7177 29.1307 27.2788 29.1307C26.9721 29.1307 26.6723 29.2208 26.4376 29.5572V29.2021H25.8125V32.0742H26.4425V30.4817C26.4425 29.9831 26.719 29.7182 27.146 29.7182C27.5607 29.7182 27.7706 29.9885 27.7706 30.4754V32.0738H28.402V30.4813C28.402 29.9828 28.6902 29.7178 29.1048 29.7178C29.5313 29.7178 29.7348 29.9882 29.7348 30.475V32.0735L30.3676 32.0749Z" fill="#231F20"/>
<path d="M58.6655 22.5216V22.1016H58.5561L58.4296 22.3898L58.3038 22.1016H58.194V22.5216H58.2717V22.2052L58.39 22.4782H58.4705L58.5888 22.2045V22.5216H58.6658H58.6655ZM57.9716 22.5216V22.1735H58.1116V22.1026H57.7539V22.1735H57.8939V22.5216H57.9709H57.9716Z" fill="#F79410"/>
<path d="M46.2346 24.3225H36.7695V7.3125H46.2348L46.2346 24.3225Z" fill="#FF5F00"/>
<path d="M37.37 15.818C37.37 12.3675 38.9856 9.29381 41.5014 7.31299C39.5971 5.81139 37.2417 4.99643 34.8166 5.00001C28.8426 5.00001 24 9.84331 24 15.818C24 21.7927 28.8426 26.636 34.8166 26.636C37.2418 26.6396 39.5972 25.8246 41.5016 24.323C38.986 22.3425 37.37 19.2686 37.37 15.818Z" fill="#EB001B"/>
<path d="M59.0044 15.818C59.0044 21.7927 54.1618 26.636 48.1878 26.636C45.7624 26.6395 43.4067 25.8246 41.502 24.323C44.0185 22.3422 45.6341 19.2686 45.6341 15.818C45.6341 12.3673 44.0185 9.29381 41.502 7.31299C43.4066 5.81144 45.7623 4.99649 48.1877 5.00001C54.1616 5.00001 59.0042 9.84331 59.0042 15.818" fill="#F79E1B"/>
</g>
<defs>
<clipPath id="clip0_204_8181">
<rect width="35" height="27.23" fill="white" transform="translate(24 5)"/>
</clipPath>
</defs>
</svg>
