<svg width="200" height="12" viewBox="0 0 200 12" fill="none" xmlns="http://www.w3.org/2000/svg">
<g clip-path="url(#clip0_118_13213)">
<path fill-rule="evenodd" clip-rule="evenodd" d="M194.513 0.448242C194.053 0.448242 193.822 0.677699 193.822 1.13765C193.822 1.48287 194.053 1.82705 194.513 1.82705C194.858 1.82705 195.203 1.48287 195.203 1.13765C195.203 0.677699 194.858 0.448242 194.513 0.448242ZM194.513 0.562971C194.743 0.562971 195.088 0.793462 195.088 1.13765C195.088 1.48287 194.743 1.71336 194.513 1.71336C194.168 1.71336 193.822 1.48287 193.822 1.13765C193.822 0.793462 194.168 0.562971 194.513 0.562971ZM194.283 1.13765H194.514L194.744 1.48287H194.859L194.628 1.13765C194.628 1.13765 194.743 1.02291 194.743 0.907149C194.743 0.79242 194.743 0.676659 194.513 0.676659H194.167V1.48183H194.282V1.13765H194.283ZM194.283 1.02292V0.793461H194.514C194.628 0.793461 194.628 0.793461 194.628 0.90819C194.628 1.02292 194.514 1.02292 194.398 1.02292H194.283Z" fill="white"/>
<path fill-rule="evenodd" clip-rule="evenodd" d="M7.12305 0.332031H9.88377L14.8305 10.455L19.6615 0.332031H22.4223V12.4106H20.4667V2.40232L15.6357 12.4106H13.9096L9.07964 2.40232V12.4106H7.12305V0.332031ZM37.7215 1.82764L40.3675 7.46588H35.0765L37.7215 1.82764ZM30.5897 12.4106H32.7758L34.5008 8.72893H40.9422L42.6683 12.4106H44.969L38.8729 0.332031H36.5721L30.5897 12.4106ZM57.6223 7.46485V12.4106H55.552V7.46485L49.5706 0.332031H51.9861L56.7024 6.08397L61.1892 0.332031H63.49L57.6223 7.46485ZM73.3825 6.89017H78.0987C79.8238 6.89017 81.4352 7.35012 81.4352 8.95942C81.4352 10.2256 80.2848 11.0307 78.5597 11.0307H73.3835V6.89017H73.3825ZM71.4269 12.4106H78.7892C81.8951 12.4106 83.5055 10.6845 83.5055 8.95839C83.5055 7.46485 82.4708 6.31343 80.5142 6.08294C82.0098 5.62299 82.815 4.58733 82.815 3.32222C82.815 2.17183 82.1256 1.25193 81.09 0.791979C80.1701 0.332031 78.3292 0.332031 76.9494 0.332031H71.4269V12.4106ZM73.3825 1.71292H77.523C79.3639 1.71292 80.8595 1.94237 80.8595 3.66847C80.8595 4.93359 79.8238 5.50826 77.523 5.50826H73.3825V1.71292ZM92.7086 0.332031H103.292V1.71292H94.7788V5.50826H102.717V6.89017H94.7788V11.0297H103.407V12.4106H92.7086V0.332031ZM112.494 0.332031H114.449V11.0297H122.618V12.4106H112.494V0.332031ZM130.555 0.332031H132.624V11.0297H140.792V12.4106H130.555V0.332031ZM149.19 0.332031H151.259V12.4106H149.19V0.332031ZM160.808 0.332031H162.994L171.162 10.1098V0.332031H173.116V12.4106H170.932L162.764 2.74754V12.4106H160.808V0.332031ZM182.549 0.332031H193.247V1.71292H184.621V5.50826H192.671V6.89017H184.621V11.0297H193.247V12.4106H182.549V0.332031Z" fill="#170605"/>
</g>
<defs>
<clipPath id="clip0_118_13213">
<rect width="200" height="12" fill="white"/>
</clipPath>
</defs>
</svg>
