<svg width="85" height="38" viewBox="0 0 85 38" fill="none" xmlns="http://www.w3.org/2000/svg">
<rect x="0.433333" y="0.433333" width="83.8579" height="37.1333" rx="8.23333" stroke="#8D8584" stroke-width="0.866667"/>
<path d="M52.6531 15.2793H51.5251V13.4829C51.5251 12.3131 51.076 10.7778 49.0916 10.7778C47.6189 10.7778 46.7938 11.6238 46.0418 12.5429V8.50089H45.2585V15.2793H44.5691V16H52.6531C52.8307 16 52.862 15.8642 52.862 15.6449C52.862 15.4256 52.8307 15.2793 52.6531 15.2793ZM48.8931 9.09622H48.1098V10.0153H48.8931V9.09622ZM46.0418 13.5873C46.7102 12.7309 47.6502 11.4984 49.0916 11.4984C50.1987 11.4984 50.7418 12.1564 50.7418 13.4829V15.2793H46.0418V13.5873ZM56.5797 9.09622H55.7963V10.0153H56.5797V9.09622ZM56.047 10.7778C54.2192 10.7778 53.7179 11.5924 53.7179 13.3889C53.7179 14.2244 53.8223 14.8511 54.1252 15.2793H52.6526C52.475 15.2793 52.4437 15.4256 52.4437 15.6449C52.4437 15.8642 52.475 16 52.6526 16H58.1881V10.7778H56.047ZM54.5012 13.3889C54.5012 11.8327 54.8146 11.4984 56.047 11.4984H57.4048V15.2793H56.047C54.8146 15.2793 54.5012 14.9451 54.5012 13.3889ZM62.0259 15.2793H60.7725V8.50089H59.9892V16H62.0259C62.2034 16 62.2348 15.8642 62.2348 15.6449C62.2348 15.4256 62.2034 15.2793 62.0259 15.2793ZM68.3136 15.2793H67.1856V12.8771C67.1856 11.5298 66.2247 10.7778 64.6476 10.7778C64 10.7778 63.2898 10.9031 62.7154 11.0389L62.7989 11.6864C63.718 11.5611 64.2507 11.4984 64.6685 11.4984C65.8278 11.4984 66.4023 11.958 66.4023 12.8771V15.2793H62.026C61.8485 15.2793 61.8172 15.4256 61.8172 15.6449C61.8172 15.8642 61.8485 16 62.026 16H68.3136C68.4912 16 68.5225 15.8642 68.5225 15.6449C68.5225 15.4256 68.4912 15.2793 68.3136 15.2793ZM71.5781 10.7778C70.7635 10.7778 70.0428 10.9344 69.7399 11.0598C69.625 11.5402 69.4475 12.5533 69.4475 13.5769C69.4475 14.2349 69.5101 14.8407 69.5833 15.2793H68.309C68.1315 15.2793 68.1001 15.4256 68.1001 15.6449C68.1001 15.8642 68.1315 16 68.309 16H74.2101V13.4411C74.2101 11.488 73.3224 10.7778 71.5781 10.7778ZM70.377 15.2793C70.3039 14.872 70.2308 14.2349 70.2308 13.5769C70.2308 12.8876 70.3144 12.146 70.4188 11.6133C70.753 11.5402 71.1813 11.4984 71.5781 11.4984C72.9673 11.4984 73.4268 11.9789 73.4268 13.4411V15.2793H70.377ZM41.4312 20.0962H40.6479V21.0153H41.4312V20.0962ZM42.8308 20.0962H42.0474V21.0153H42.8308V20.0962ZM44.8988 26.2793H43.7812V21.7778H41.6401C39.8123 21.7778 39.311 22.5924 39.311 24.3889C39.311 26.1853 39.8123 27 41.6401 27H44.8988C45.0868 27 45.1077 26.8642 45.1077 26.6449C45.1077 26.4256 45.0868 26.2793 44.8988 26.2793ZM41.6401 26.2793C40.4077 26.2793 40.0943 25.9451 40.0943 24.3889C40.0943 22.8327 40.4077 22.4984 41.6401 22.4984H42.9979V26.2793H41.6401ZM47.9297 26.2793H46.8122V21.7778H46.0288V26.2793H44.9008C44.7233 26.2793 44.6919 26.4256 44.6919 26.6449C44.6919 26.8642 44.7233 27 44.9008 27H47.9297C48.1177 27 48.1386 26.8642 48.1386 26.6449C48.1386 26.4256 48.1177 26.2793 47.9297 26.2793ZM45.3186 28.5458H46.1019V27.6267H45.3186V28.5458ZM46.7182 28.5458H47.5015V27.6267H46.7182V28.5458ZM49.0581 20.0962V21.0153H49.8415V20.0962H49.0581ZM49.0581 26.2793H47.9301C47.7526 26.2793 47.7212 26.4256 47.7212 26.6449C47.7212 26.8642 47.7526 27 47.9301 27H49.8415V21.7778H49.0581V26.2793ZM53.4411 21.7778C51.6133 21.7778 51.112 22.5924 51.112 24.3889C51.112 26.1853 51.6133 27 53.4411 27H54.7989V27.282C54.7989 28.3578 54.3289 28.8487 53.4098 28.8487C53.0547 28.8487 52.5638 28.786 52.0207 28.6711L51.8536 29.3709C52.3653 29.4858 52.9502 29.5693 53.4098 29.5693C54.8616 29.5693 55.5822 28.6607 55.5822 27.282V21.7778H53.4411ZM53.4411 26.2793C52.2087 26.2793 51.8953 25.9451 51.8953 24.3889C51.8953 22.8327 52.2087 22.4984 53.4411 22.4984H54.7989V26.2793H53.4411ZM60.7099 20.0962H59.9265V21.0153H60.7099V20.0962ZM62.1094 20.0962H61.3261V21.0153H62.1094V20.0962ZM62.5272 26.2793H61.3992V21.7778H60.6159V22.8013H58.3703V21.7778H57.587V27.4387C57.587 28.3264 57.1379 28.8591 56.459 28.8591C56.3337 28.8591 56.1665 28.8487 55.9681 28.8278L55.8741 29.538C56.0621 29.5589 56.2814 29.5798 56.459 29.5798C57.587 29.5798 58.3703 28.7233 58.3703 27.4387V23.522H60.6159V27H62.5272C62.7048 27 62.7361 26.8642 62.7361 26.6449C62.7361 26.4256 62.7048 26.2793 62.5272 26.2793ZM69.3774 26.2793H68.2494V24.6604C68.2494 23.6369 67.8525 22.2687 66.1083 22.2687H64.0298L64.3849 21.5793C64.6147 21.1407 64.834 20.7647 65.4503 19.8456L64.7923 19.4487C64.1865 20.3573 63.9358 20.7856 63.6956 21.2451L63.2465 22.1016L63.8209 22.9789H66.1083C67.0065 22.9789 67.466 23.5324 67.466 24.6604V26.2793H62.5258C62.3483 26.2793 62.3169 26.4256 62.3169 26.6449C62.3169 26.8642 62.3483 27 62.5258 27H69.3774C69.5549 27 69.5863 26.8642 69.5863 26.6449C69.5863 26.4256 69.5549 26.2793 69.3774 26.2793ZM70.6333 19.5009V26.2793H69.38C69.2024 26.2793 69.1711 26.4256 69.1711 26.6449C69.1711 26.8642 69.2024 27 69.38 27H71.4167V19.5009H70.6333ZM73.2182 27H74.0015V19.5009H73.2182V27Z" fill="#170605"/>
<g clip-path="url(#clip0_204_8204)">
<path d="M26.8281 18.5799V16.222C26.8281 15.0636 25.9064 14.1169 24.7578 14.0756V12.6283C24.7578 11.8744 24.1445 11.2611 23.3906 11.2611H19.6266L19.1406 9.91001C19.0166 9.56548 18.7658 9.29017 18.4342 9.13481C18.1027 8.97942 17.7305 8.96286 17.3865 9.0881L10.5563 11.5741C10.2126 11.6991 9.9384 11.9507 9.78418 12.2823C9.62996 12.614 9.6143 12.9857 9.74012 13.3291L10.0145 14.0782C8.89207 14.1476 8 15.0824 8 16.222V26.847C8 28.0316 8.96379 28.9954 10.1484 28.9954H24.6797C25.8643 28.9954 26.8281 28.0316 26.8281 26.847V24.4109C27.4898 24.3159 28 23.7455 28 23.0579V19.9329C28 19.2454 27.4898 18.675 26.8281 18.5799V18.5799ZM26.8281 23.0579C26.8281 23.1656 26.7405 23.2533 26.6328 23.2533H23.5078C22.5386 23.2533 21.75 22.4647 21.75 21.4954C21.75 20.5262 22.5386 19.7376 23.5078 19.7376H26.6328C26.7405 19.7376 26.8281 19.8252 26.8281 19.9329V23.0579ZM10.8405 12.926C10.8162 12.8598 10.834 12.8039 10.8468 12.7765C10.8595 12.749 10.8908 12.6994 10.9571 12.6753L17.7873 10.1893C17.8536 10.1652 17.9095 10.1831 17.937 10.196C17.9645 10.2088 18.014 10.2403 18.0379 10.3067L18.3813 11.2611H18.1172C17.3633 11.2611 16.75 11.8744 16.75 12.6283V14.0736H11.2609L10.8405 12.926ZM23.5859 12.6283V14.0736H17.9219V12.6283C17.9219 12.5206 18.0095 12.4329 18.1172 12.4329H23.3906C23.4983 12.4329 23.5859 12.5206 23.5859 12.6283V12.6283ZM24.6797 27.8236H10.1484C9.60996 27.8236 9.17188 27.3855 9.17188 26.847V16.222C9.17188 15.6835 9.60996 15.2454 10.1484 15.2454H24.6797C25.2182 15.2454 25.6562 15.6835 25.6562 16.222V18.5658H23.5078C21.8924 18.5658 20.5781 19.88 20.5781 21.4954C20.5781 23.1109 21.8924 24.4251 23.5078 24.4251H25.6562V26.847C25.6562 27.3855 25.2182 27.8236 24.6797 27.8236Z" fill="#170605"/>
<path d="M23.5078 22.0811C23.8314 22.0811 24.0938 21.8187 24.0938 21.4951C24.0938 21.1715 23.8314 20.9092 23.5078 20.9092C23.1842 20.9092 22.9219 21.1715 22.9219 21.4951C22.9219 21.8187 23.1842 22.0811 23.5078 22.0811Z" fill="#170605"/>
</g>
<defs>
<clipPath id="clip0_204_8204">
<rect width="20" height="20" fill="white" transform="translate(8 9)"/>
</clipPath>
</defs>
</svg>
