<svg width="150" height="28" viewBox="0 0 150 28" fill="none" xmlns="http://www.w3.org/2000/svg">
<g clip-path="url(#clip0_118_13257)">
<path d="M15.286 10.4121C15.286 13.8341 13.6311 16.1518 9.43994 16.1518H8.11561V5.25347C8.58642 5.22686 9.02611 5.22686 9.43994 5.22686C13.4084 5.22648 15.286 7.10221 15.286 10.4121ZM10.9839 20.8969C18.4831 20.8969 23.2245 17.0334 23.2245 10.303C23.2242 2.90768 18.1518 0.259766 9.88114 0.259766C6.68257 0.259766 2.82278 0.479801 0.0665283 0.81079V27.1887H8.11598V20.8969H10.9839ZM118.834 10.4121C118.834 13.8341 117.181 16.1518 112.989 16.1518H111.669V5.25347C112.136 5.22686 112.576 5.22686 112.989 5.22686C116.958 5.22648 118.834 7.10221 118.834 10.4121ZM114.537 20.8969C122.03 20.8969 126.774 17.0334 126.774 10.303C126.774 2.90768 121.702 0.259766 113.431 0.259766C110.233 0.259766 106.371 0.479801 103.615 0.81079V27.1887H111.668V20.8969H114.537ZM137.249 7.54266C137.249 6.1085 138.684 5.44539 140.998 5.44539C143.535 5.44539 146.294 5.99754 148.167 6.7731L147.506 1.03232C145.41 0.590755 143.535 0.259766 140.117 0.259766C133.61 0.259766 129.201 2.82671 129.201 8.20689C129.201 17.475 141.774 15.6004 141.774 19.9043C141.774 21.5582 140.559 22.4406 137.58 22.4406C134.938 22.4406 130.855 21.5582 128.429 20.3448L129.314 26.4166C131.737 27.2993 135.046 27.7394 137.693 27.7394C144.418 27.7394 149.933 25.5315 149.933 18.9088C149.933 10.083 137.249 11.7368 137.249 7.54266ZM97.5517 0.81079H89.5023V27.1887H97.5517V0.81079ZM64.909 0.81079H56.8588V27.1887H64.909V0.81079ZM78.914 21.8895V0.81079H70.8638V27.1887H85.4217L86.6336 21.8895H78.914ZM50.9043 0.81079H42.8541V11.2952H34.4729V0.81079H26.4212V27.1887H34.4726V16.8134H42.8538V27.1887H50.904L50.9043 0.81079Z" fill="#1978BE"/>
</g>
<defs>
<clipPath id="clip0_118_13257">
<rect width="150" height="27.48" fill="white" transform="translate(0 0.259766)"/>
</clipPath>
</defs>
</svg>
