<svg width="229" height="68" viewBox="0 0 229 68" fill="none" xmlns="http://www.w3.org/2000/svg">
<g clip-path="url(#clip0_204_8126)">
<path d="M220.766 67.7067H9.18209C4.52725 67.7067 0.71875 63.8982 0.71875 59.2434V8.46334C0.71875 3.8085 4.52725 0 9.18209 0H220.766C225.42 0 229.229 3.8085 229.229 8.46334V59.2434C229.229 63.8982 225.42 67.7067 220.766 67.7067Z" fill="black"/>
<path d="M220.766 1.35413C222.651 1.35413 224.459 2.10314 225.793 3.43637C227.126 4.76961 227.875 6.57786 227.875 8.46334V59.2434C227.875 61.1289 227.126 62.9371 225.793 64.2704C224.459 65.6036 222.651 66.3526 220.766 66.3526H9.18209C7.29661 66.3526 5.48836 65.6036 4.15512 64.2704C2.82189 62.9371 2.07288 61.1289 2.07288 59.2434V8.46334C2.07288 6.57786 2.82189 4.76961 4.15512 3.43637C5.48836 2.10314 7.29661 1.35413 9.18209 1.35413H220.766ZM220.766 0H9.18209C4.52725 0 0.71875 3.8085 0.71875 8.46334V59.2434C0.71875 63.8982 4.52725 67.7067 9.18209 67.7067H220.766C225.42 67.7067 229.229 63.8982 229.229 59.2434V8.46334C229.229 3.8085 225.42 0 220.766 0Z" fill="#A6A6A6"/>
<path d="M80.9861 17.333C80.9861 18.7549 80.5629 19.889 79.7166 20.7184C78.7687 21.717 77.533 22.2248 75.9927 22.2248C74.5201 22.2248 73.2675 21.717 72.2519 20.7014C71.2363 19.6858 70.7285 18.4163 70.7285 16.9268C70.7285 15.4372 71.2363 14.1677 72.2519 13.1521C73.2675 12.1365 74.5201 11.6118 75.9927 11.6118C76.7375 11.6118 77.4484 11.7472 78.1086 12.0011C78.7687 12.272 79.3103 12.6443 79.7335 13.1183L78.8025 14.0493C78.4979 13.6769 78.0916 13.3722 77.5838 13.1691C77.0821 12.9508 76.5398 12.8412 75.9927 12.8475C74.8925 12.8475 73.9446 13.2368 73.1829 13.9985C72.4212 14.7771 72.0488 15.7419 72.0488 16.9099C72.0488 18.0778 72.4212 19.0426 73.1829 19.8213C73.9446 20.583 74.8756 20.9723 75.9927 20.9723C77.0083 20.9723 77.8377 20.6845 78.5148 20.1259C79.1919 19.5674 79.5812 18.7718 79.6827 17.7901H75.9927V16.5713H80.9184C80.9522 16.8422 80.9861 17.0961 80.9861 17.333ZM88.7893 11.8488V13.1014H84.1683V16.3174H88.3323V17.5362H84.1683V20.7522H88.7893V22.0048H82.8649V11.8488H88.7893ZM94.2905 13.1014V22.0048H92.9871V13.1014H90.1434V11.8488H97.1172V13.1014H94.2905ZM103.482 22.0048H102.178V11.8488H103.482V22.0048ZM109.271 13.1014V22.0048H107.967V13.1014H105.124V11.8488H112.097V13.1014H109.271ZM126.807 16.9268C126.807 18.4333 126.299 19.6858 125.3 20.7014C124.285 21.717 123.049 22.2248 121.576 22.2248C120.104 22.2248 118.868 21.717 117.852 20.7014C116.854 19.6858 116.346 18.4333 116.346 16.9268C116.346 15.4203 116.854 14.1677 117.852 13.1521C118.851 12.1365 120.087 11.6118 121.576 11.6118C123.049 11.6118 124.285 12.1196 125.3 13.1521C126.316 14.1847 126.807 15.4372 126.807 16.9268ZM117.7 16.9268C117.7 18.0947 118.072 19.0765 118.8 19.8382C119.545 20.5999 120.476 20.9892 121.576 20.9892C122.677 20.9892 123.607 20.5999 124.335 19.8382C125.08 19.0765 125.452 18.1117 125.452 16.9268C125.452 15.7419 125.08 14.7771 124.335 14.0154C123.591 13.2537 122.677 12.8644 121.576 12.8644C120.476 12.8644 119.545 13.2537 118.8 14.0154C118.072 14.7771 117.7 15.7589 117.7 16.9268ZM129.938 22.0048H128.635V11.8488H130.226L135.168 19.7536H135.219L135.168 17.7901V11.8488H136.472V22.0048H135.118L129.955 13.7277H129.904L129.955 15.6911V22.0048H129.938Z" fill="white" stroke="white" stroke-width="0.338534" stroke-miterlimit="10"/>
<path d="M116.059 36.8159C112.081 36.8159 108.831 39.8458 108.831 44.0097C108.831 48.1568 112.081 51.2036 116.059 51.2036C120.037 51.2036 123.287 48.1568 123.287 44.0097C123.287 39.8458 120.037 36.8159 116.059 36.8159ZM116.059 48.3768C113.875 48.3768 111.996 46.5826 111.996 44.0097C111.996 41.42 113.875 39.6426 116.059 39.6426C118.242 39.6426 120.121 41.42 120.121 44.0097C120.121 46.5826 118.225 48.3768 116.059 48.3768ZM100.283 36.8159C96.3054 36.8159 93.0555 39.8458 93.0555 44.0097C93.0555 48.1568 96.3054 51.2036 100.283 51.2036C104.261 51.2036 107.511 48.1568 107.511 44.0097C107.511 39.8458 104.261 36.8159 100.283 36.8159ZM100.283 48.3768C98.0996 48.3768 96.2207 46.5826 96.2207 44.0097C96.2207 41.42 98.0996 39.6426 100.283 39.6426C102.467 39.6426 104.346 41.42 104.346 44.0097C104.346 46.5826 102.467 48.3768 100.283 48.3768ZM81.5284 39.0333V42.0801H88.8407C88.6207 43.7897 88.0452 45.0592 87.1819 45.9225C86.1155 46.9888 84.4567 48.1568 81.5453 48.1568C77.0428 48.1568 73.5221 44.5345 73.5221 40.032C73.5221 35.5295 77.0428 31.9072 81.5453 31.9072C83.9658 31.9072 85.7431 32.855 87.0465 34.0907L89.1962 31.941C87.3681 30.1976 84.9476 28.8604 81.5284 28.8604C75.3671 28.8604 70.1875 33.8707 70.1875 40.0489C70.1875 46.2102 75.3671 51.2374 81.5284 51.2374C84.8629 51.2374 87.3681 50.1541 89.3316 48.106C91.3458 46.0917 91.9721 43.248 91.9721 40.9629C91.9721 40.252 91.9214 39.5919 91.8029 39.0502H81.5284V39.0333ZM158.223 41.403C157.631 39.795 155.803 36.8159 152.062 36.8159C148.355 36.8159 145.274 39.7273 145.274 44.0097C145.274 48.0383 148.321 51.2036 152.417 51.2036C155.718 51.2036 157.631 49.1893 158.409 48.0214L155.955 46.3795C155.143 47.5813 154.025 48.3768 152.417 48.3768C150.809 48.3768 149.658 47.649 148.93 46.1933L158.562 42.2155L158.223 41.403ZM148.406 43.8066C148.321 41.0306 150.555 39.6088 152.163 39.6088C153.416 39.6088 154.482 40.2351 154.838 41.1322L148.406 43.8066ZM140.586 50.7804H143.751V29.6221H140.586V50.7804ZM135.406 38.4239H135.288C134.577 37.5776 133.222 36.8159 131.496 36.8159C127.891 36.8159 124.59 39.9812 124.59 44.0436C124.59 48.0721 127.891 51.2205 131.496 51.2205C133.206 51.2205 134.577 50.4588 135.288 49.5786H135.389V50.6111C135.389 53.3702 133.916 54.8428 131.547 54.8428C129.617 54.8428 128.415 53.4548 127.924 52.2869L125.165 53.4379C125.961 55.3506 128.06 57.6865 131.547 57.6865C135.254 57.6865 138.385 55.503 138.385 50.188V37.256H135.389V38.4239H135.406ZM131.767 48.3768C129.583 48.3768 127.755 46.5487 127.755 44.0436C127.755 41.5046 129.583 39.6596 131.767 39.6596C133.916 39.6596 135.609 41.5215 135.609 44.0436C135.626 46.5487 133.933 48.3768 131.767 48.3768ZM173.051 29.6221H165.485V50.7804H168.65V42.7572H173.068C176.572 42.7572 180.008 40.2182 180.008 36.1896C179.991 32.1611 176.538 29.6221 173.051 29.6221ZM173.119 39.8119H168.633V32.5504H173.119C175.488 32.5504 176.826 34.5139 176.826 36.1727C176.826 37.8315 175.488 39.8119 173.119 39.8119ZM192.652 36.782C190.367 36.782 187.997 37.7976 187.015 40.015L189.825 41.183C190.418 40.015 191.535 39.6257 192.703 39.6257C194.328 39.6257 196.004 40.6075 196.02 42.3509V42.571C195.445 42.2494 194.226 41.7585 192.72 41.7585C189.69 41.7585 186.626 43.4173 186.626 46.5149C186.626 49.3416 189.097 51.1697 191.873 51.1697C193.989 51.1697 195.174 50.2218 195.902 49.1047H196.004V50.7296H199.05V42.6217C199.067 38.8809 196.257 36.782 192.652 36.782ZM192.263 48.3768C191.23 48.3768 189.791 47.8521 189.791 46.5826C189.791 44.9576 191.586 44.3313 193.143 44.3313C194.531 44.3313 195.191 44.636 196.02 45.0423C195.903 45.9584 195.458 46.801 194.767 47.4141C194.076 48.0272 193.186 48.3692 192.263 48.3768ZM210.171 37.2391L206.549 46.4133H206.447L202.69 37.2391H199.287L204.924 50.0695L201.708 57.1956H205.009L213.692 37.2391H210.171ZM181.734 50.7804H184.9V29.6221H181.734V50.7804Z" fill="white"/>
<path d="M35.7906 32.8716L17.7637 51.9987V52.0157C17.9587 52.7402 18.3186 53.4099 18.8152 53.9725C19.3117 54.535 19.9316 54.9752 20.6263 55.2587C21.3211 55.5421 22.0719 55.6612 22.8203 55.6066C23.5687 55.552 24.2943 55.3253 24.9406 54.944L24.9914 54.9101L45.2695 43.2138L35.7906 32.8716Z" fill="#EA4335"/>
<path d="M54.021 29.6218L54.0041 29.6049L45.253 24.5269L35.3848 33.3118L45.2869 43.2139L54.0041 38.1867C54.7752 37.7693 55.4194 37.1517 55.8689 36.3989C56.3184 35.6461 56.5566 34.786 56.5583 33.9093C56.56 33.0325 56.3253 32.1715 55.8787 31.4169C55.4322 30.6624 54.7904 30.0422 54.021 29.6218Z" fill="#FBBC04"/>
<path d="M17.765 15.708C17.6634 16.1142 17.5957 16.5205 17.5957 16.9606V50.7632C17.5957 51.2033 17.6465 51.6095 17.765 52.0157L36.4012 33.3795L17.765 15.708Z" fill="#4285F4"/>
<path d="M35.926 33.8532L45.2526 24.5266L24.9914 12.7795C24.3437 12.3922 23.6151 12.1601 22.8628 12.1013C22.1104 12.0425 21.3546 12.1586 20.6546 12.4406C19.9546 12.7226 19.3294 13.1627 18.8278 13.7266C18.3263 14.2905 17.9621 14.9628 17.7637 15.6909L35.926 33.8532Z" fill="#34A853"/>
</g>
<defs>
<clipPath id="clip0_204_8126">
<rect width="228.694" height="67.7285" fill="white" transform="translate(0.306641)"/>
</clipPath>
</defs>
</svg>
