<svg width="150" height="22" viewBox="0 0 150 22" fill="none" xmlns="http://www.w3.org/2000/svg">
<g clip-path="url(#clip0_118_13253)">
<path d="M50.9911 8.68674H37.9226V1.08472H31.169V20.9664H37.9226V12.9785H50.9913V20.9665H57.7443V1.08487H50.9913L50.9911 8.68674ZM69.022 12.9777L73.7249 5.25752L78.2837 12.9777H69.022ZM71.1052 1.08415L58.9931 20.9658H64.1561L66.6332 16.898H80.5971L83.0004 20.9658H91.2447L79.1355 1.08415H71.1053M118.033 9.70092C119.642 7.59388 119.424 4.50713 116.335 2.7395C113.457 1.08719 107.963 0.479195 104.53 0.479195C99.0381 0.479195 95.5027 0.852364 92.4953 1.36648V20.9665H99.2467V4.34083C101.679 3.85901 104.148 3.84829 105.071 3.89131C107.751 4.00996 109.26 4.42702 110.465 5.282C111.711 6.17089 112.05 8.13553 110.434 9.49913C109.223 10.5158 106.767 11.3146 101.274 10.4765L100.499 11.7502L110.883 20.9664H120.077L110.84 12.9783C113.059 12.6906 116.425 11.8033 118.033 9.70078M16.3686 7.95488C12.4692 7.19681 9.1554 6.72586 9.1554 5.46062C9.1554 4.06008 11.8351 3.69908 15.6321 4.10166C19.2228 4.48178 22.6089 5.42136 25.7672 6.76512L28.166 2.83033C25.6134 1.8583 20.3526 0.613194 15.5759 0.471517C10.3428 0.31999 1.50746 0.789348 1.12575 6.08107C0.777206 10.9246 7.67938 12.082 12.2052 13.1348C16.6194 14.1621 20.7574 14.5339 20.7574 16.0622C20.7574 17.1365 19.299 17.9752 15.4412 17.686C10.7977 17.3389 6.8467 16.0699 2.90583 14.1113L0.286987 18.4116C4.6581 20.1201 10.3906 21.4922 15.5552 21.5776C21.6955 21.68 28.6284 20.6896 28.7856 15.4303C28.9139 11.0415 24.3674 9.50855 16.3686 7.95488ZM139.853 9.53781C138.687 10.4936 136.982 10.8322 134.292 10.8245C132.308 10.8175 130.255 10.4528 128.582 10.0734V4.34097C131.012 3.85915 133.525 3.85234 134.448 3.89073C137.143 4.0046 138.715 4.46106 139.883 5.28215C141.099 6.13554 141.505 8.1842 139.853 9.53781ZM145.756 2.73936C143.006 1.11196 137.859 0.479485 133.907 0.479485C128.413 0.479485 124.836 0.852653 121.829 1.36605V20.9667H128.582V13.7858C130.669 14.1345 133.285 14.3369 135.548 14.3199C141.074 14.273 145.18 12.9747 147.05 10.9399C149.713 8.04484 148.819 4.5487 145.756 2.7395" fill="#E6000D"/>
</g>
<defs>
<clipPath id="clip0_118_13253">
<rect width="150" height="21.36" fill="white" transform="translate(0 0.319824)"/>
</clipPath>
</defs>
</svg>
