<svg width="223" height="256" viewBox="0 0 223 256" fill="none" xmlns="http://www.w3.org/2000/svg">
<path d="M94.6951 254.259C90.5173 301.248 100.355 351.786 101.973 372.36C103.59 392.935 106.42 462.34 106.375 466.338C106.285 470.336 128.073 478.288 135.08 467.012C137.416 437.588 141.01 380.851 140.112 376.448C139.213 372.046 145.053 325.372 144.604 322.766C144.11 320.161 140.786 265.625 139.707 255.517C138.629 245.41 94.74 254.259 94.74 254.259H94.6951Z" fill="#424C67"/>
<path d="M113.116 263.421C113.61 281.929 112.083 286.96 115.901 295.002C119.674 303.043 126.503 308.613 128.749 312.431C130.995 316.295 142.899 382.6 146.134 394.46C149.368 406.319 151.12 488.483 152.333 493.739C153.591 498.994 183.015 503.756 185.755 491.762C188.541 479.768 189.933 442.347 188.496 417.101C187.058 391.854 181.173 376.087 181.128 371.999C181.039 367.911 188.181 311.668 190.023 293.384C191.865 275.101 183.24 251.337 183.24 251.337L113.071 263.376L113.116 263.421Z" fill="#424C67"/>
<path d="M91.8639 127.039C83.6431 140.471 77.9379 153.409 76.5453 154.442C75.1527 155.475 33.7342 172.546 33.285 172.635C32.8358 172.725 45.7285 184.989 63.7424 186.382C81.7563 187.774 89.9772 175.061 92.8522 172.546C95.7722 170.03 108.575 154.936 110.417 152.555C112.259 150.174 114.685 134.901 110.731 129.824C106.778 124.748 91.819 127.039 91.819 127.039H91.8639Z" fill="url(#paint0_linear_118_12689)"/>
<path d="M119.674 88.001C112.262 89.2139 107.096 92.4483 98.8753 107.767C90.6545 123.085 84.6798 137.146 84.6798 137.146C84.6798 137.146 86.5216 150.174 111.903 152.015C137.284 153.857 119.629 88.0459 119.629 88.0459L119.674 88.001Z" fill="#B81B34"/>
<path d="M173.311 90.6029C159.52 81.6634 142.584 82.5169 138.541 83.3255C134.498 84.1341 113.16 88.0423 110.195 92.0404C107.275 96.0835 98.2459 110.324 98.8748 127.664C99.5037 145.004 103.681 173.754 103.097 181.885C102.514 189.971 92.9899 260.41 93.7536 264.498C94.5173 268.586 105.658 275.414 132.252 278.783C158.846 282.152 189.528 278.424 189.708 269.978C187.552 242.89 190.651 201.112 192.897 191.993C195.144 182.874 203.409 123.531 202.152 115.131C200.894 106.73 173.266 90.6029 173.266 90.6029H173.311Z" fill="#B81B34"/>
<path d="M125.783 85.5288C128.568 92.8511 129.826 106.508 130.05 108.664C130.275 110.82 140.068 115.627 150.804 109.293C161.541 102.959 163.338 92.9859 163.697 89.5269C164.101 86.0678 159.924 74.1634 160.508 69.8059C161.092 65.4484 163.742 50.1299 163.742 50.1299C163.742 50.1299 171.154 37.6863 157.767 42.8524C144.381 47.9736 125.693 85.5288 125.693 85.5288H125.783Z" fill="url(#paint1_linear_118_12689)"/>
<path d="M158.484 48.4214C155.25 63.4704 153.138 73.8924 151.297 76.5428C149.455 79.1483 129.824 89.3008 126.949 89.211C124.074 89.1661 119.716 88.7617 117.829 87.1895C115.898 85.6172 113.696 73.3084 112.933 66.2107C112.169 59.1129 113.112 53.3629 112.484 51.9253C111.855 50.4878 111.226 47.7475 111.046 46.2202C110.821 44.6928 112.034 29.1496 115.493 24.9269C118.952 20.7042 131.62 17.5147 144.513 21.9171C153.049 24.7922 156.418 35.3939 157.676 42.267C158.349 45.8159 158.484 48.3765 158.484 48.3765V48.4214Z" fill="url(#paint2_linear_118_12689)"/>
<g style="mix-blend-mode:multiply">
<path d="M158.486 48.4239C155.252 63.473 153.14 73.895 151.298 76.5454C149.457 79.1509 129.826 89.3034 126.951 89.2135C129.286 88.1803 139.708 83.149 141.505 79.4204C143.257 75.6919 146.761 55.1174 145.863 40.1133C145.863 40.1133 151.703 40.832 157.722 42.3145C158.396 45.8634 158.531 48.4239 158.531 48.4239H158.486Z" fill="#F5D9CB"/>
</g>
<path d="M126.771 28.3006C139.259 30.5018 142.853 29.7381 142.853 29.7381C142.853 29.7381 141.46 40.4746 142.404 43.4395C143.302 46.4044 148.289 50.8517 148.423 52.8732C148.558 54.9396 149.412 61.1389 149.412 61.1389L152.781 60.4651C152.781 60.4651 155.297 51.0314 158.037 50.3126C160.822 49.5939 160.283 55.6584 160.283 55.6584L161.496 63.5647L160.508 69.8539L160.642 73.1782L167.246 65.0921C167.246 65.0921 170.48 56.2424 171.783 41.7773C173.086 27.3123 172.637 16.4411 157.228 13.6559C142.763 5.92921 133.464 6.91751 123.491 10.6461C113.519 14.3746 111.003 31.4452 111.093 31.8495C111.183 32.2987 111.407 39.8008 111.407 39.8008L113.878 27.9861L116.753 26.2342L126.771 28.3006Z" fill="#696362"/>
<g style="mix-blend-mode:multiply">
<path d="M144.202 39.6635C147.751 40.9214 152.738 42.2241 159.386 42.8081L170.886 43.7964C170.886 43.7964 174.57 32.7006 172.818 22.5481C171.515 14.8214 162.845 8.03813 152.558 4.71387C153.681 5.25294 162.845 9.83503 162.755 18.5051C162.621 27.2649 157.185 37.7319 144.158 39.6635H144.202Z" fill="#FCF5E8"/>
</g>
<path d="M144.56 39.7996C144.56 39.7996 124.3 57.2295 117.337 50.1767C112.441 45.2352 100.267 40.5183 94.9209 42.0906L89.5751 43.6629C89.5751 43.6629 88.452 43.4383 88.5868 42.1355C88.7216 40.8328 109.251 27.8053 109.251 27.8053C109.251 27.8053 117.382 19.1352 144.56 39.7547V39.7996Z" fill="#725E6D"/>
<path d="M153.5 63.8786C154.039 66.3942 157.722 66.5739 159.16 64.2829C160.552 61.9918 164.55 53.9507 163.382 50.1323C162.215 46.3139 158.486 47.6166 157.228 49.6831C155.97 51.7495 153.544 63.8786 153.544 63.8786H153.5Z" fill="url(#paint3_linear_118_12689)"/>
<path d="M126.954 89.215C126.954 89.215 123.899 94.9201 122.237 100.131C120.575 105.342 121.967 117.471 121.967 117.471L133.243 112.799C133.243 112.799 140.071 118.01 140.385 118.28C140.7 118.549 153.009 113.922 158.669 109.475C164.329 105.028 170.259 97.0764 170.528 93.0783C170.798 89.0802 164.554 80.5899 164.554 80.5899L161.948 79.377L162.757 86.3399C162.757 86.3399 146.764 108.217 134.95 110.598C128.391 106.151 128.256 95.1447 128.256 95.1447L126.954 89.215Z" fill="white"/>
<path d="M129.781 111.628L119.583 146.892L128.972 149.003L138.226 113.649L134.004 111.493L129.781 111.628Z" fill="white"/>
<path d="M11.6803 176.407C7.14309 177.935 3.3696 181.888 3.3696 181.888C3.3696 181.888 2.1567 186.919 2.06686 187.997C1.97701 189.075 6.82863 188.941 6.82863 188.941C6.82863 188.941 13.7467 184.718 15.4987 182.966C17.2506 181.169 11.6803 176.407 11.6803 176.407Z" fill="#FFC5A4"/>
<path d="M57.6794 253.18L8.93858 225.058V171.735L57.6794 199.857V253.18Z" fill="#C99A6B"/>
<path d="M57.6807 253.177L114.013 220.653V167.33L57.6807 199.854V253.177Z" fill="#AE835B"/>
<path d="M57.6807 199.856L114.013 167.332L65.2726 139.166L8.9398 171.735L57.6807 199.856Z" fill="#E8B687"/>
<g style="mix-blend-mode:screen">
<path d="M81.8512 211.403L90.9255 206.192V180.631L81.8512 185.887V211.403Z" fill="#33271B"/>
</g>
<g style="mix-blend-mode:screen">
<path d="M81.8512 185.884L33.1552 157.718L42.1847 152.507L90.9255 180.628L81.8512 185.884Z" fill="#54493E"/>
</g>
<path d="M81.8493 211.492L84.0505 210.234L82.9724 207.809L81.8493 211.492Z" fill="#AE835B"/>
<path d="M84.1911 210.189L86.3474 208.931L85.2693 206.505L84.1911 210.189Z" fill="#AE835B"/>
<path d="M86.4802 208.841L88.6365 207.583L87.5583 205.157L86.4802 208.841Z" fill="#AE835B"/>
<path d="M88.7693 207.539L90.9255 206.281L89.8474 203.855L88.7693 207.539Z" fill="#AE835B"/>
<path d="M5.57232 184.852C5.57232 184.852 5.30279 185.121 5.07817 185.346C3.64066 186.783 0.136707 190.691 0.0468616 191.77C-0.087904 193.027 1.39453 195.947 1.39453 195.947C1.39453 195.947 0.945311 198.598 1.08008 199.631C1.21484 200.664 3.28127 202.776 3.28127 202.776L4.49418 207.088L5.48248 209.334C5.48248 209.334 4.44926 212.883 4.94341 213.782C5.39264 214.68 10.2892 216.207 10.2892 216.207C10.2892 216.207 13.9728 215.803 14.7365 215.264C15.5002 214.725 15.3205 212.119 15.3205 212.119C15.3205 212.119 20.3069 212.164 20.9807 211.266C21.6546 210.368 21.1155 208.346 21.1155 208.346C21.1155 208.346 23.0921 208.481 23.3167 206.594C23.5413 204.752 20.3069 203.539 20.3069 203.539C20.3069 203.539 20.9807 201.473 19.5432 200.08C18.1057 198.733 11.4572 194.914 11.4572 194.914L8.85166 191.096C8.85166 191.096 8.89658 187.682 9.07627 187.592C9.25596 187.502 5.61724 184.896 5.61724 184.896L5.57232 184.852Z" fill="#FFC5A4"/>
<path d="M72.732 244.108C72.732 244.108 76.2809 247.163 79.9196 247.298C83.5583 247.433 86.5232 246.13 86.5232 246.13C86.5232 246.13 92.453 247.163 94.2499 246.804C96.0917 246.444 111.59 236.427 116.352 236.112C116.801 236.112 118.014 236.022 119.766 235.932C135.399 235.169 196.269 232.204 200.357 226.499C204.894 220.165 208.353 186.203 208.038 172.682C207.769 159.115 182.253 142.808 177.446 158.037C172.685 173.266 176.907 201.881 176.907 201.881C176.907 201.881 160.78 211.719 149.594 214.504C139.532 216.975 124.528 221.422 117.789 222.546C117.026 222.68 116.352 222.77 115.813 222.77C110.512 223.04 104.852 221.692 104.852 221.692C100.853 221.018 93.5311 224.432 93.5311 224.432C93.5311 224.432 83.8279 229.823 82.4802 230.542C81.1325 231.26 77.988 232.294 77.988 235.573C77.988 238.852 83.1091 237.235 83.1091 237.235L89.8924 233.327L90.9256 234.046L80.5036 241.054L72.6871 244.063L72.732 244.108Z" fill="url(#paint4_linear_118_12689)"/>
<path d="M192.133 113.291C179.959 116.795 170.705 127.397 170.39 142.401C170.076 157.405 172.457 174.071 172.996 175.958C173.535 177.845 209.518 173.892 209.518 173.892C209.518 173.892 209.877 142.67 209.428 136.067C209.024 129.463 207.766 109.607 192.133 113.246V113.291Z" fill="#B81B34"/>
<path d="M109.927 28.7496L111.185 30.5016C111.185 30.5016 134.994 38.2282 137.42 38.947C138.453 39.2615 140.205 40.0251 142.676 40.8787C143.439 41.1931 144.338 41.4627 145.371 41.6873C148.875 42.5857 153.816 43.1697 158.668 42.7654C169.539 41.9119 170.483 40.115 170.483 40.115C170.483 40.115 174.256 29.693 172.908 20.0796C171.875 12.7572 163.879 6.10868 154.266 2.64965C154.176 2.5598 154.131 2.5598 154.131 2.5598C151.121 1.52658 147.976 0.673057 144.922 0.268755C131.715 -1.48322 122.505 3.81763 118.058 10.1068C113.656 16.3959 109.882 28.7047 109.882 28.7047L109.927 28.7496Z" fill="#B81B34"/>
<g style="mix-blend-mode:multiply">
<path d="M145.459 41.73C148.963 42.6284 153.904 43.2124 158.756 42.8081C169.627 41.9546 170.57 40.1577 170.57 40.1577C170.57 40.1577 174.344 29.7357 172.996 20.1223C171.963 12.7999 163.967 6.15141 154.353 2.69238C155.387 3.27637 163.922 7.81354 163.607 16.0344C163.248 24.3001 157.812 40.2026 145.459 41.6851V41.73Z" fill="#B81B34"/>
</g>
<path d="M142.986 41.0563C142.986 41.0563 123.355 56.9588 116.976 50.1306C112.484 45.3239 101.119 40.5172 95.9974 41.8649L90.8763 43.2125C90.8763 43.2125 89.7981 42.943 89.9778 41.7301C90.1575 40.5172 109.923 28.7924 109.923 28.7924C109.923 28.7924 117.83 20.8412 142.941 41.0563H142.986Z" fill="#170605"/>
<defs>
<linearGradient id="paint0_linear_118_12689" x1="35.0946" y1="152.143" x2="111.254" y2="158.9" gradientUnits="userSpaceOnUse">
<stop stop-color="#FFB496"/>
<stop offset="1" stop-color="#FFC5A4"/>
</linearGradient>
<linearGradient id="paint1_linear_118_12689" x1="126.703" y1="74.761" x2="164.693" y2="78.1314" gradientUnits="userSpaceOnUse">
<stop stop-color="#FFB496"/>
<stop offset="1" stop-color="#FFC5A4"/>
</linearGradient>
<linearGradient id="paint2_linear_118_12689" x1="110.214" y1="52.6866" x2="157.69" y2="56.8987" gradientUnits="userSpaceOnUse">
<stop stop-color="#FFB496"/>
<stop offset="1" stop-color="#FFC5A4"/>
</linearGradient>
<linearGradient id="paint3_linear_118_12689" x1="153.845" y1="56.8975" x2="163.03" y2="57.5543" gradientUnits="userSpaceOnUse">
<stop stop-color="#FFB496"/>
<stop offset="1" stop-color="#FFC5A4"/>
</linearGradient>
<linearGradient id="paint4_linear_118_12689" x1="208.083" y1="199.59" x2="72.732" y2="199.59" gradientUnits="userSpaceOnUse">
<stop stop-color="#FFB496"/>
<stop offset="1" stop-color="#FFC5A4"/>
</linearGradient>
</defs>
</svg>
