<svg width="36" height="36" viewBox="0 0 36 36" fill="none" xmlns="http://www.w3.org/2000/svg">
<g clip-path="url(#clip0_704_13598)">
<path d="M35.987 8.11262C35.9859 7.72498 35.6715 7.41132 35.2839 7.41132H5.89486L5.07122 2.31838C5.01616 1.97785 4.72205 1.72754 4.37709 1.72754H0.703125C0.314789 1.72754 0 2.04233 0 2.43066C0 2.819 0.314789 3.13379 0.703125 3.13379H3.77852L4.6002 8.21492L5.25537 13.2743C5.25544 13.275 5.25558 13.2756 5.25565 13.2762C5.25579 13.2774 5.25593 13.2785 5.25607 13.2796L6.93281 25.5014C7.10536 26.7595 8.15386 27.7183 9.39839 27.7797C8.82401 28.4673 8.47744 29.3556 8.47744 30.3242C8.47744 32.5009 10.2279 34.2718 12.3795 34.2718C14.5311 34.2718 16.2815 32.5009 16.2815 30.3242C16.2815 29.357 15.9359 28.4701 15.3631 27.7829H24.0076C23.4349 28.4701 23.0893 29.3571 23.0893 30.3242C23.0893 32.5009 24.8397 34.2718 26.9914 34.2718C29.1429 34.2718 30.8933 32.5009 30.8933 30.3242C30.8933 29.3341 30.5312 28.4281 29.9339 27.7344C31.5273 27.4726 32.818 26.1772 33.0456 24.5182L34.504 13.887H35.2969C35.4836 13.887 35.6628 13.8127 35.7947 13.6805C35.9266 13.5482 36.0005 13.3689 36 13.1821L35.987 8.11262ZM34.5825 8.81757L34.592 12.4809H6.57063L6.0963 8.81757H34.5825ZM14.8752 30.3243C14.8752 31.7256 13.7557 32.8656 12.3795 32.8656C11.0033 32.8656 9.88369 31.7256 9.88369 30.3243C9.88369 28.9229 11.0033 27.783 12.3795 27.783C13.7557 27.7829 14.8752 28.9229 14.8752 30.3243ZM26.9913 32.8656C25.6151 32.8656 24.4955 31.7255 24.4955 30.3242C24.4955 28.9229 25.6151 27.7829 26.9913 27.7829C28.3674 27.7829 29.487 28.9229 29.487 30.3242C29.487 31.7255 28.3674 32.8656 26.9913 32.8656ZM31.6523 24.3272C31.4921 25.4956 30.4977 26.3766 29.3394 26.3766H9.52538C8.92505 26.3766 8.40938 25.9182 8.32598 25.3103L6.75893 13.8871H33.0844L31.6523 24.3272Z" fill="#170605"/>
<path d="M25.041 24.0856V15.916H29.9683L28.4755 24.0856H25.041Z" fill="#E7CD8B"/>
<path d="M21.7458 15.916V24.0856H18.3114V15.916H21.7458Z" fill="#E7CD8B"/>
<path d="M11.5823 24.0856L10.8359 15.916H15.0168V24.0856H11.5823Z" fill="#E7CD8B"/>
</g>
<defs>
<clipPath id="clip0_704_13598">
<rect width="36" height="36" fill="white"/>
</clipPath>
</defs>
</svg>
