<svg width="36" height="36" viewBox="0 0 36 36" fill="none" xmlns="http://www.w3.org/2000/svg">
<path d="M26.1357 19.15C25.1433 18.1567 23.9561 17.3588 22.6362 16.8193C21.5802 17.7916 20.1711 18.3853 18.6235 18.3853C17.076 18.3853 15.667 17.7917 14.6109 16.8194C10.7331 18.4049 8 22.2197 8 26.6732V31C11.0251 33.069 14.0605 34.5 18 34.5C21.9395 34.5 25.9749 32.569 29 30.5L29.247 26.6732C29.247 23.736 28.0579 21.076 26.1357 19.15Z" fill="#E7CD8B"/>
<path d="M24.25 12C24.25 15.5051 21.6243 18.25 18.5 18.25C15.3757 18.25 12.75 15.5051 12.75 12C12.75 8.49491 15.3757 5.75 18.5 5.75C21.6243 5.75 24.25 8.49491 24.25 12Z" stroke="#170605" stroke-width="1.5"/>
<rect x="0.75" y="0.75" width="34.5" height="34.5" rx="17.25" stroke="#170605" stroke-width="1.5"/>
</svg>
