<svg width="85" height="38" viewBox="0 0 85 38" fill="none" xmlns="http://www.w3.org/2000/svg">
<rect x="0.433333" y="0.433333" width="83.8579" height="37.1333" rx="8.23333" stroke="#8D8584" stroke-width="0.866667"/>
<path d="M49.1313 11.9238C46.0199 11.9238 43.2394 13.5313 43.2394 16.5012C43.2394 19.9071 48.1707 20.1423 48.1707 21.8534C48.1707 22.5738 47.3424 23.2188 45.9277 23.2188C43.9199 23.2188 42.4193 22.3176 42.4193 22.3176L41.7772 25.3146C41.7772 25.3146 43.5059 26.0758 45.801 26.0758C49.2027 26.0758 51.8794 24.3894 51.8794 21.3687C51.8794 17.7698 46.9277 17.5415 46.9277 15.9534C46.9277 15.3889 47.6076 14.7706 49.0183 14.7706C50.6099 14.7706 51.9086 15.426 51.9086 15.426L52.537 12.5314C52.537 12.5314 51.124 11.9238 49.1313 11.9238ZM20.6652 12.1423L20.5898 12.5792C20.5898 12.5792 21.8988 12.818 23.0777 13.2943C24.5957 13.8405 24.7039 14.1585 24.9595 15.1461L27.7453 25.8505H31.4798L37.2329 12.1423H33.507L29.8103 21.4626L28.3018 13.5623C28.1635 12.6581 27.4627 12.1423 26.605 12.1423H20.6652ZM38.7311 12.1423L35.8083 25.8505H39.3612L42.2738 12.1423L38.7311 12.1423ZM58.5469 12.1423C57.6902 12.1423 57.2363 12.5995 56.9032 13.3984L51.6979 25.8505H55.4238L56.1447 23.7751H60.6838L61.1222 25.8505H64.4097L61.5417 12.1423H58.5469ZM59.0315 15.8458L60.1359 20.9898H57.1771L59.0315 15.8458Z" fill="#2F80ED"/>
</svg>
