<svg width="36" height="36" viewBox="0 0 36 36" fill="none" xmlns="http://www.w3.org/2000/svg">
<path opacity="0.7" fill-rule="evenodd" clip-rule="evenodd" d="M18.1278 29.1418C23.8125 26.4701 32.9695 17.4967 30.7793 10.6541C29.3225 5.99822 23.2589 4.61445 19.9107 8.16773C19.9107 8.1676 18.1278 9.95051 18.1278 9.95051L16.3448 8.1676C12.9969 4.61603 6.93319 5.99658 5.47637 10.6541C3.28725 17.4929 12.4334 26.4637 18.1278 29.1418Z" fill="#E7CD8B"/>
<path d="M34.1359 11.1863C32.9945 3.63951 23.7706 0.320032 18.1286 5.51704C12.4867 0.320284 3.26171 3.63976 2.12132 11.1864C1.1749 17.5952 5.91975 23.7318 10.9837 28.1274C13.5546 30.328 16.1646 31.9298 17.9654 32.4123C19.8 32.272 22.7286 30.249 25.2734 28.1276C30.3375 23.7365 35.0842 17.5905 34.1359 11.1863ZM31.004 19.5401C28.7569 23.6584 22.4687 29.744 18.1286 31.1479C16.5226 30.6615 14.1221 29.1542 11.8036 27.1697C4.72515 21.338 -0.369229 11.6029 6.54374 5.99996C7.92744 4.93805 9.76627 4.2393 11.7119 4.2393C13.7158 4.2393 15.833 4.98079 17.6828 6.83058C17.801 6.94877 17.9614 7.01521 18.1286 7.01521C18.2957 7.01521 18.4561 6.94877 18.5743 6.83058C22.22 3.1847 26.9041 3.84438 29.7134 6.00002C32.6251 8.23414 34.7102 13.1208 31.004 19.5401Z" fill="#170605"/>
</svg>
